<?xml version="1.0" encoding="utf-8"?>
<!DOCTYPE svg PUBLIC "-//W3C//DTD SVG 1.1//EN" "http://www.w3.org/Graphics/SVG/1.1/DTD/svg11.dtd">
<svg version="1.1" id="ram" xmlns="http://www.w3.org/2000/svg" xmlns:xlink="http://www.w3.org/1999/xlink" x="0px" y="0px"
	 width="34px" height="24px" viewBox="0 0 34 24" enable-background="new 0 0 34 24" xml:space="preserve">
<path d="M4,0h30v16h-4v8H0V8h4V0z M24,20h2v2h2V10H2v12h2v-2h2v2h2v-2h2v2h2v-2h2v2h2v-2h2v2h2v-2h2v2h2V20z M8,4h4v4h2V4h4v4h2V4h4
	v4h2V4h4v10h2V2H6v6h2V4z M16,12h4v6h-4V12z M10,12h4v6h-4V12z M4,12h4v6H4V12z M22,12h4v6h-4V12z"/>
</svg>
