<?xml version="1.0" encoding="utf-8"?>
<!DOCTYPE svg PUBLIC "-//W3C//DTD SVG 1.1//EN" "http://www.w3.org/Graphics/SVG/1.1/DTD/svg11.dtd">
<svg version="1.1" id="calculator" xmlns="http://www.w3.org/2000/svg" xmlns:xlink="http://www.w3.org/1999/xlink" x="0px" y="0px"
	 width="22px" height="29px" viewBox="0 0 22 29" enable-background="new 0 0 22 29" xml:space="preserve">
<path d="M0,0h22v29H0V0z M2,27h18V2H2V27z M16,19h2v6h-2V19z M4,4h14v5H4V4z M4,11h2v2H4V11z M8,11h2v2H8V11z M12,11h2v2h-2V11z
	 M16,11h2v2h-2V11z M4,15h2v2H4V15z M8,15h2v2H8V15z M12,15h2v2h-2V15z M16,15h2v2h-2V15z M4,19h2v2H4V19z M8,19h2v2H8V19z M12,19h2
	v2h-2V19z M4,23h6v2H4V23z M12,23h2v2h-2V23z"/>
</svg>
