<?xml version="1.0" encoding="utf-8"?>
<!DOCTYPE svg PUBLIC "-//W3C//DTD SVG 1.1//EN" "http://www.w3.org/Graphics/SVG/1.1/DTD/svg11.dtd">
<svg version="1.1" id="patching" xmlns="http://www.w3.org/2000/svg" xmlns:xlink="http://www.w3.org/1999/xlink" x="0px" y="0px"
	 width="26px" height="26px" viewBox="0 0 26 26" enable-background="new 0 0 26 26" xml:space="preserve">
<path d="M19.363,14.414l-4.949,4.951l3.611,3.609c1.367,1.367,3.582,1.367,4.949,0s1.367-3.582,0-4.949L19.363,14.414z
	 M6.634,11.586l4.951-4.949L7.974,3.025c-1.367-1.367-3.584-1.367-4.951,0c-1.365,1.365-1.368,3.582,0.02,4.967L6.634,11.586z
	 M1.611,16.611L5.22,13L1.627,9.408c-2.162-2.162-2.171-5.645-0.019-7.797c2.148-2.148,5.631-2.148,7.779,0l3.61,3.609l3.595-3.594
	c2.16-2.162,5.643-2.17,7.797-0.018c2.146,2.148,2.146,5.631,0,7.777L20.777,13l3.611,3.611c2.148,2.148,2.148,5.631,0,7.777
	c-2.146,2.148-5.631,2.148-7.777,0L13,20.779L9.39,24.389c-2.148,2.148-5.631,2.148-7.779,0C-0.537,22.24-0.537,18.758,1.611,16.611
	z M19.363,11.586l3.611-3.613c1.367-1.365,1.367-3.582,0-4.949c-1.365-1.365-3.58-1.369-4.967,0.018l-3.594,3.596L19.363,11.586z
	 M13,17.949L17.949,13L13,8.051L8.049,13L13,17.949z M3.025,18.025c-1.366,1.365-1.366,3.582,0,4.949
	c1.367,1.367,3.584,1.367,4.95,0l3.61-3.609l-4.951-4.951L3.025,18.025z M19,18c0-0.553,0.447-1,1-1s1,0.447,1,1s-0.447,1-1,1
	S19,18.553,19,18z M20,21c0-0.553,0.447-1,1-1s1,0.447,1,1s-0.447,1-1,1S20,21.553,20,21z M17,20c0-0.553,0.447-1,1-1s1,0.447,1,1
	s-0.447,1-1,1S17,20.553,17,20z M6,5c0,0.553-0.447,1-1,1S4,5.553,4,5s0.447-1,1-1S6,4.447,6,5z M9,6c0,0.553-0.447,1-1,1
	S7,6.553,7,6s0.447-1,1-1S9,5.447,9,6z M7,8c0,0.553-0.447,1-1,1S5,8.553,5,8s0.447-1,1-1S7,7.447,7,8z M21,6c-0.553,0-1-0.447-1-1
	s0.447-1,1-1s1,0.447,1,1S21.553,6,21,6z M20,9c-0.553,0-1-0.447-1-1s0.447-1,1-1s1,0.447,1,1S20.553,9,20,9z M18,7
	c-0.553,0-1-0.447-1-1s0.447-1,1-1s1,0.447,1,1S18.553,7,18,7z M5,20c0.553,0,1,0.447,1,1s-0.447,1-1,1s-1-0.447-1-1S4.447,20,5,20z
	 M6,17c0.553,0,1,0.447,1,1s-0.447,1-1,1s-1-0.447-1-1S5.447,17,6,17z M8,19c0.553,0,1,0.447,1,1s-0.447,1-1,1s-1-0.447-1-1
	S7.447,19,8,19z"/>
<g>
</g>
<g>
</g>
<g>
</g>
<g>
</g>
<g>
</g>
<g>
</g>
<g>
</g>
<g>
</g>
<g>
</g>
<g>
</g>
<g>
</g>
<g>
</g>
<g>
</g>
<g>
</g>
<g>
</g>
<g>
</g>
<g>
</g>
<g>
</g>
<g>
</g>
<g>
</g>
<g>
</g>
<g>
</g>
<g>
</g>
<g>
</g>
<g>
</g>
<g>
</g>
<g>
</g>
<g>
</g>
<g>
</g>
<g>
</g>
<g>
</g>
<g>
</g>
<g>
</g>
<g>
</g>
<g>
</g>
</svg>
