<?xml version="1.0" encoding="utf-8"?>
<!DOCTYPE svg PUBLIC "-//W3C//DTD SVG 1.1//EN" "http://www.w3.org/Graphics/SVG/1.1/DTD/svg11.dtd">
<svg version="1.1" id="firewall" xmlns="http://www.w3.org/2000/svg" xmlns:xlink="http://www.w3.org/1999/xlink" x="0px" y="0px"
	 width="43px" height="24px" viewBox="0 0 43 24" enable-background="new 0 0 43 24" xml:space="preserve">
<path d="M0,11h15.973c0.339-0.91,0.338-1.859-0.461-2.995c1.214-0.139,2.239,0.036,3.071,0.401C16.861,5.619,17.201,2.41,21.652,0
	c-1.387,4.579,1.812,6.281,4.985,9.674c0.406,0.434,0.768,0.877,1.086,1.326H43v13H0V11z M35,13h-6.155
	c0.574,1.368,0.767,2.735,0.593,4H35V13z M14.857,13H8v4h5.503c-0.015-0.406,0.013-0.805,0.082-1.182
	C13.779,14.75,14.319,13.848,14.857,13z M2,13v4h5v-4H2z M2,22h8v-4H2V22z M11,22h5.608c-1.698-0.873-2.66-2.428-2.984-4H11V22z
	 M25.583,22H32v-4h-2.783C28.699,19.682,27.473,21.109,25.583,22z M22,22l2.089-0.004c0.8-0.748,1.953-2.143,2.002-3.996
	c0.008-0.319-0.017-0.654-0.081-1c-0.053-0.286-0.134-0.581-0.248-0.885c-0.064,0.264-0.313,0.591-0.729,0.885
	c-0.69,0.49-1.838,0.886-3.348,0.73c0.277-0.167,0.52-0.418,0.708-0.73c0.562-0.93,0.666-2.42-0.091-4
	c-0.271-0.566-0.651-1.141-1.161-1.708c0.137,0.524,0.146,1.034,0.023,1.464L21.085,13c-0.618,1.668-2.423,2.484-3.332,4
	c-0.182,0.302-0.327,0.631-0.42,1c-0.066,0.262-0.107,0.545-0.115,0.852c-0.04,1.469,0.743,2.528,1.387,3.145L21,22H22z M41,22v-4
	h-8v4H41z M41,17v-4h-5v4H41z"/>
</svg>
