<?xml version="1.0" encoding="utf-8"?>
<!DOCTYPE svg PUBLIC "-//W3C//DTD SVG 1.1//EN" "http://www.w3.org/Graphics/SVG/1.1/DTD/svg11.dtd">
<svg version="1.1" id="network-connection" xmlns="http://www.w3.org/2000/svg" xmlns:xlink="http://www.w3.org/1999/xlink" x="0px" y="0px"
	 width="24px" height="24px" viewBox="0 0 24 24" enable-background="new 0 0 24 24" xml:space="preserve">
<path d="M16.75,7.752c-0.414,0-0.75,0.335-0.75,0.75c0,0.414,0.336,0.75,0.75,0.75s0.75-0.336,0.75-0.75
	C17.5,8.087,17.164,7.752,16.75,7.752z M7.25,14.248c0.414,0,0.75-0.335,0.75-0.75c0-0.414-0.336-0.75-0.75-0.75
	s-0.75,0.336-0.75,0.75C6.5,13.913,6.836,14.248,7.25,14.248z M8,21.999L5,22v-2.001L0,20V0h24v20l-5-0.001V22h-3v2H8V21.999z M2,11
	v2h3.572c0.215-0.724,0.885-1.252,1.678-1.252c0.967,0,1.75,0.784,1.75,1.75c0,0.967-0.783,1.75-1.75,1.75
	c-0.793,0-1.461-0.525-1.678-1.248H2v4l5-0.002V20l3-0.002V22h4v-2h3v-2.002L22,18v-3h-8.176l-5-4H2z M2,8v2h7.176l5,4H22v-2h-7.176
	l-5-4H2z M19,2v2h-2V2h-2v2h-2V2h-2v2H9V2H7v2H5V2H2v5h8.176l5,4H22V9h-3.572c-0.215,0.724-0.885,1.252-1.678,1.252
	c-0.967,0-1.75-0.784-1.75-1.75c0-0.967,0.783-1.75,1.75-1.75c0.793,0,1.461,0.525,1.678,1.248H22V2H19z"/>
</svg>
