<?xml version="1.0" encoding="utf-8"?>
<!DOCTYPE svg PUBLIC "-//W3C//DTD SVG 1.1//EN" "http://www.w3.org/Graphics/SVG/1.1/DTD/svg11.dtd">
<svg version="1.1" id="img" xmlns="http://www.w3.org/2000/svg" xmlns:xlink="http://www.w3.org/1999/xlink" x="0px" y="0px"
	 width="30px" height="30px" viewBox="0 0 30 30" enable-background="new 0 0 30 30" xml:space="preserve">
<path d="M18.75,0H0v30h30V11.25L18.75,0z M18,2.078L27.922,12H18V2.078z M10,23H9v4h1v1H7v-1h1v-4H7v-1h3V23z M18,28h-1v-4.592
	l-2,3.463l-2-3.463V28h-1v-6h1.342L15,24.871L16.658,22H18V28z M24.268,26.975C23.623,27.619,22.939,28,22,28c-1.654,0-3-1.346-3-3
	s1.346-3,3-3c0.828,0,1.579,0.336,2.121,0.879l-0.707,0.707C23.053,23.223,22.553,23,22,23c-1.104,0-2,0.896-2,2s0.896,2,2,2
	c0.481,0,0.923-0.17,1.268-0.453V26H22v-1h2.268V26.975z M28,20H2V2h14v12h12V20z"/>
</svg>
