<?xml version="1.0" encoding="utf-8"?>
<!DOCTYPE svg PUBLIC "-//W3C//DTD SVG 1.1//EN" "http://www.w3.org/Graphics/SVG/1.1/DTD/svg11.dtd">
<svg version="1.1" xmlns="http://www.w3.org/2000/svg" xmlns:xlink="http://www.w3.org/1999/xlink" x="0px" y="0px"
	 width="327.354px" height="109.3px">
<g>
	<g>
		<g>
			<g>
				<path fill="#333333" d="M141.993,69.279c0.207,0,0.385,0.072,0.529,0.217l1.242,1.344c-0.91,0.971-1.9,1.85-2.967,2.631
					c-1.068,0.775-2.24,1.443-3.514,1.992c-1.275,0.553-2.674,0.977-4.195,1.277c-1.523,0.303-3.197,0.451-5.021,0.451
					c-3.045,0-5.84-0.531-8.379-1.602c-2.538-1.068-4.721-2.588-6.542-4.551c-1.824-1.961-3.239-4.334-4.246-7.119
					c-1.004-2.781-1.505-5.879-1.505-9.286c0-3.344,0.518-6.397,1.555-9.159c1.036-2.761,2.484-5.137,4.352-7.119
					c1.864-1.982,4.102-3.521,6.715-4.609c2.611-1.093,5.492-1.636,8.643-1.636c3.004,0,5.666,0.466,7.988,1.398
					c2.32,0.937,4.436,2.255,6.342,3.958l-0.967,1.401c-0.164,0.252-0.422,0.375-0.775,0.375c-0.248,0-0.65-0.228-1.211-0.684
					c-0.559-0.459-1.336-0.961-2.332-1.514c-0.994-0.551-2.232-1.055-3.715-1.51c-1.482-0.457-3.258-0.687-5.33-0.687
					c-2.656,0-5.084,0.459-7.291,1.372c-2.205,0.914-4.105,2.224-5.689,3.923c-1.585,1.707-2.822,3.781-3.714,6.233
					c-0.892,2.454-1.338,5.203-1.338,8.256c0,3.116,0.453,5.901,1.354,8.35c0.9,2.451,2.137,4.523,3.713,6.215
					c1.576,1.697,3.438,2.994,5.58,3.896c2.146,0.904,4.461,1.357,6.949,1.357c1.576,0,2.979-0.105,4.213-0.314
					c1.232-0.205,2.365-0.516,3.4-0.936c1.037-0.412,2.002-0.922,2.895-1.527c0.889-0.6,1.77-1.305,2.643-2.113
					c0.102-0.086,0.205-0.152,0.309-0.205C141.786,69.306,141.892,69.279,141.993,69.279"/>
				<path fill="#333333" d="M185.731,76.695h-2.457c-0.289,0-0.527-0.08-0.713-0.236c-0.188-0.152-0.332-0.354-0.436-0.605
					l-5.158-12.805h-21.609L150.2,75.853c-0.082,0.229-0.229,0.426-0.436,0.592c-0.209,0.168-0.455,0.25-0.744,0.25h-2.426
					l17.998-44.088h3.141L185.731,76.695z M156.294,60.679h19.709l-8.953-22.278c-0.311-0.727-0.613-1.599-0.902-2.614
					c-0.146,0.498-0.291,0.972-0.436,1.433c-0.145,0.455-0.291,0.861-0.436,1.211L156.294,60.679z"/>
				<path fill="#333333" d="M196.237,56.753v19.941h-3.199V32.606h11.25c5.055,0,8.844,0.981,11.363,2.946
					c2.514,1.964,3.773,4.844,3.773,8.645c0,1.684-0.291,3.221-0.883,4.612s-1.428,2.611-2.52,3.66
					c-1.09,1.05-2.404,1.91-3.947,2.584c-1.545,0.676-3.27,1.118-5.176,1.327c0.496,0.311,0.945,0.727,1.336,1.248l15.143,19.066
					h-2.734c-0.359,0-0.656-0.059-0.889-0.172c-0.242-0.115-0.463-0.322-0.67-0.641l-14.111-17.881
					c-0.166-0.232-0.34-0.428-0.514-0.594c-0.178-0.166-0.373-0.295-0.59-0.391c-0.219-0.092-0.479-0.158-0.777-0.201
					c-0.301-0.041-0.674-0.062-1.104-0.062H196.237z M196.237,54.383h7.617c1.947,0,3.695-0.229,5.232-0.701
					c1.547-0.463,2.854-1.135,3.92-2.006s1.881-1.921,2.441-3.146c0.559-1.227,0.84-2.606,0.84-4.145
					c0-3.136-1.021-5.465-3.062-6.981c-2.041-1.514-5.02-2.275-8.938-2.275h-8.051V54.383z"/>
				<rect x="230.776" y="32.606" fill="#333333" width="3.199" height="44.088"/>
				<path fill="#333333" d="M249.222,32.716c0.158,0.074,0.326,0.232,0.516,0.483l28.504,38.199
					c-0.064-0.623-0.096-1.229-0.096-1.807V32.607h3.176v44.087h-1.898c-0.271,0-0.492-0.047-0.67-0.141
					c-0.178-0.096-0.346-0.256-0.512-0.484l-28.57-38.227c0.066,0.621,0.092,1.206,0.092,1.744v37.108h-3.199V32.607h1.99
					C248.845,32.607,249.069,32.645,249.222,32.716"/>
				<path fill="#333333" d="M327.354,76.695h-2.457c-0.289,0-0.527-0.08-0.713-0.236c-0.188-0.152-0.328-0.354-0.436-0.605
					l-5.16-12.805h-21.605l-5.16,12.805c-0.08,0.229-0.229,0.426-0.436,0.592c-0.205,0.168-0.455,0.25-0.744,0.25h-2.426
					l17.998-44.088h3.137L327.354,76.695z M297.917,60.679h19.705l-8.953-22.278c-0.307-0.727-0.607-1.599-0.9-2.614
					c-0.143,0.498-0.287,0.972-0.434,1.433c-0.145,0.455-0.291,0.861-0.434,1.211L297.917,60.679z"/>
			</g>
			<path fill="#333333" d="M321.136,32.607v0.439h-1.48v3.859h-0.533v-3.859h-1.5v-0.439H321.136z M324.39,35.636
				c0.025-0.082,0.057-0.154,0.096-0.216l1.592-2.723c0.027-0.041,0.049-0.062,0.07-0.077c0.023-0.009,0.059-0.013,0.107-0.013
				h0.426v4.299h-0.461v-3.313l0.035-0.327l-1.633,2.838c-0.039,0.081-0.104,0.123-0.188,0.123h-0.082
				c-0.086,0-0.146-0.042-0.188-0.123l-1.662-2.824l0.037,0.313v3.313h-0.469v-4.299h0.424c0.049,0,0.086,0.004,0.107,0.013
				c0.025,0.015,0.053,0.036,0.086,0.077l1.619,2.723L324.39,35.636z"/>
		</g>
		<g>
			<g>
				<path fill="#666666" d="M112.121,91.966v-7.754h2.375c0.457,0,0.851,0.047,1.183,0.141c0.328,0.094,0.602,0.227,0.813,0.4
					c0.213,0.174,0.371,0.385,0.471,0.637c0.101,0.25,0.151,0.531,0.151,0.846c0,0.191-0.029,0.377-0.088,0.553
					c-0.055,0.178-0.141,0.342-0.255,0.492s-0.259,0.287-0.435,0.406c-0.175,0.119-0.38,0.217-0.615,0.291
					c0.545,0.113,0.954,0.316,1.23,0.611c0.276,0.297,0.416,0.686,0.416,1.17c0,0.328-0.057,0.627-0.175,0.898
					c-0.115,0.27-0.285,0.502-0.508,0.697c-0.224,0.195-0.499,0.346-0.824,0.453c-0.325,0.105-0.696,0.158-1.112,0.158H112.121z
					 M113.124,87.687h1.331c0.283,0,0.529-0.033,0.738-0.098c0.21-0.064,0.385-0.154,0.521-0.27
					c0.136-0.117,0.236-0.256,0.302-0.422c0.066-0.162,0.1-0.342,0.1-0.537c0-0.459-0.132-0.793-0.395-1.004
					c-0.264-0.211-0.672-0.318-1.226-0.318h-1.372V87.687z M113.124,88.433v2.699h1.611c0.286,0,0.533-0.033,0.742-0.102
					c0.207-0.07,0.377-0.164,0.513-0.291c0.132-0.123,0.229-0.271,0.294-0.443c0.062-0.172,0.092-0.359,0.092-0.566
					c0-0.398-0.137-0.715-0.41-0.947c-0.272-0.232-0.686-0.35-1.23-0.35H113.124z"/>
				<path fill="#666666" d="M122.485,88.876v3.09h-1.006v-3.09l-2.729-4.664h0.883c0.09,0,0.162,0.023,0.213,0.068
					c0.053,0.045,0.096,0.104,0.135,0.174l1.705,3.014c0.062,0.127,0.117,0.246,0.168,0.355s0.096,0.219,0.133,0.328
					c0.037-0.109,0.08-0.219,0.129-0.328s0.105-0.229,0.166-0.355l1.699-3.014c0.031-0.061,0.074-0.115,0.131-0.166
					c0.055-0.051,0.125-0.076,0.213-0.076h0.889L122.485,88.876z"/>
				<path fill="#666666" d="M131.608,88.732v3.234h-1.002v-7.754h2.104c0.471,0,0.879,0.051,1.221,0.148
					c0.344,0.102,0.625,0.242,0.85,0.43c0.225,0.189,0.387,0.414,0.496,0.68c0.107,0.264,0.16,0.562,0.16,0.891
					c0,0.273-0.041,0.529-0.123,0.768c-0.084,0.238-0.205,0.453-0.363,0.643c-0.156,0.188-0.35,0.35-0.574,0.486
					c-0.229,0.135-0.484,0.236-0.771,0.301c0.131,0.086,0.242,0.195,0.332,0.33l2.172,3.078h-0.895
					c-0.184,0-0.318-0.072-0.404-0.221l-1.934-2.771c-0.059-0.086-0.121-0.146-0.189-0.188c-0.066-0.037-0.172-0.055-0.314-0.055
					H131.608z M131.608,87.966h1.061c0.291,0,0.547-0.035,0.771-0.111c0.223-0.072,0.408-0.178,0.561-0.312
					c0.15-0.137,0.264-0.295,0.34-0.484c0.076-0.186,0.115-0.395,0.115-0.623c0-0.461-0.146-0.809-0.436-1.045
					c-0.293-0.232-0.729-0.35-1.311-0.35h-1.102V87.966z"/>
				<path fill="#666666" d="M144.259,91.966h-0.781c-0.09,0-0.162-0.023-0.217-0.07s-0.096-0.105-0.125-0.178l-0.695-1.873h-3.34
					l-0.697,1.873c-0.02,0.064-0.061,0.121-0.119,0.172s-0.131,0.076-0.219,0.076h-0.779l2.979-7.754h1.016L144.259,91.966z
					 M139.38,89.087h2.779l-1.168-3.154c-0.039-0.094-0.076-0.201-0.113-0.326c-0.037-0.121-0.072-0.252-0.111-0.395
					c-0.033,0.143-0.07,0.273-0.105,0.398c-0.037,0.123-0.074,0.234-0.111,0.328L139.38,89.087z"/>
				<path fill="#666666" d="M151.364,90.365c0.057,0,0.104,0.023,0.145,0.07l0.4,0.449c-0.305,0.367-0.674,0.656-1.109,0.861
					c-0.434,0.207-0.961,0.307-1.576,0.307c-0.533,0-1.018-0.096-1.455-0.289c-0.436-0.193-0.807-0.463-1.115-0.811
					s-0.549-0.766-0.717-1.254c-0.17-0.486-0.254-1.021-0.254-1.607c0-0.584,0.088-1.119,0.262-1.605
					c0.178-0.486,0.428-0.906,0.748-1.256s0.703-0.621,1.15-0.814c0.445-0.193,0.939-0.289,1.48-0.289
					c0.527,0,0.998,0.088,1.402,0.264c0.406,0.178,0.762,0.418,1.068,0.719l-0.33,0.484c-0.021,0.035-0.049,0.066-0.082,0.088
					c-0.033,0.023-0.076,0.035-0.133,0.035c-0.062,0-0.137-0.035-0.227-0.105s-0.209-0.148-0.354-0.234
					c-0.146-0.088-0.328-0.166-0.547-0.234c-0.217-0.072-0.486-0.107-0.803-0.107c-0.387,0-0.738,0.07-1.057,0.207
					c-0.318,0.141-0.594,0.342-0.822,0.605c-0.232,0.262-0.41,0.584-0.537,0.963c-0.129,0.377-0.193,0.807-0.193,1.281
					c0,0.484,0.066,0.916,0.199,1.295c0.133,0.377,0.316,0.697,0.547,0.961c0.229,0.26,0.502,0.459,0.814,0.596
					c0.312,0.139,0.652,0.205,1.016,0.205c0.221,0,0.42-0.012,0.602-0.041c0.178-0.023,0.342-0.068,0.492-0.125
					s0.289-0.131,0.42-0.219s0.26-0.193,0.387-0.316C151.247,90.392,151.306,90.365,151.364,90.365"/>
				<path fill="#666666" d="M155.173,87.611h0.379c0.133,0,0.236-0.018,0.316-0.051c0.08-0.035,0.152-0.094,0.219-0.176l2.479-2.922
					c0.068-0.094,0.141-0.16,0.217-0.195c0.076-0.037,0.17-0.055,0.281-0.055h0.852l-2.838,3.34
					c-0.068,0.084-0.135,0.156-0.199,0.213c-0.062,0.055-0.133,0.102-0.203,0.139c0.092,0.031,0.176,0.08,0.254,0.143
					c0.074,0.062,0.148,0.145,0.223,0.246l2.961,3.676h-0.871c-0.068,0-0.125-0.008-0.17-0.016c-0.047-0.01-0.09-0.023-0.123-0.043
					s-0.064-0.043-0.092-0.07c-0.025-0.027-0.051-0.059-0.074-0.094l-2.566-3.08c-0.07-0.09-0.145-0.152-0.225-0.191
					c-0.078-0.039-0.199-0.059-0.361-0.059h-0.457v3.553h-1.004v-7.756h1.004V87.611z"/>
				<path fill="#666666" d="M165.952,85.423c-0.031,0.057-0.064,0.098-0.104,0.123c-0.035,0.027-0.08,0.041-0.131,0.041
					c-0.059,0-0.127-0.031-0.207-0.094s-0.18-0.127-0.299-0.201c-0.121-0.074-0.264-0.143-0.432-0.205
					c-0.168-0.061-0.373-0.09-0.609-0.09c-0.227,0-0.426,0.031-0.596,0.094c-0.172,0.062-0.314,0.15-0.432,0.258
					c-0.115,0.109-0.203,0.234-0.262,0.383c-0.059,0.143-0.088,0.303-0.088,0.473c0,0.215,0.051,0.396,0.152,0.537
					c0.104,0.143,0.238,0.266,0.406,0.365c0.168,0.102,0.357,0.189,0.57,0.264c0.211,0.074,0.432,0.15,0.656,0.229
					c0.223,0.082,0.439,0.168,0.654,0.27c0.211,0.1,0.402,0.225,0.57,0.375s0.303,0.338,0.404,0.557
					c0.104,0.223,0.154,0.492,0.154,0.811c0,0.342-0.055,0.658-0.166,0.955c-0.111,0.301-0.273,0.559-0.486,0.777
					c-0.213,0.221-0.473,0.395-0.783,0.52c-0.312,0.127-0.662,0.191-1.059,0.191c-0.484,0-0.926-0.092-1.32-0.275
					c-0.393-0.18-0.73-0.428-1.012-0.738l0.291-0.498c0.027-0.039,0.061-0.074,0.102-0.098c0.041-0.027,0.084-0.041,0.133-0.041
					c0.045,0,0.096,0.018,0.152,0.055c0.059,0.039,0.123,0.086,0.195,0.146c0.072,0.055,0.156,0.117,0.248,0.188
					c0.094,0.07,0.201,0.133,0.32,0.189c0.119,0.059,0.258,0.105,0.408,0.143c0.152,0.039,0.324,0.059,0.516,0.059
					c0.238,0,0.449-0.035,0.637-0.104s0.346-0.166,0.477-0.291c0.129-0.123,0.229-0.273,0.299-0.445
					c0.068-0.174,0.104-0.365,0.104-0.578c0-0.234-0.051-0.428-0.154-0.576c-0.102-0.15-0.234-0.275-0.4-0.377
					c-0.168-0.102-0.359-0.188-0.572-0.256c-0.215-0.072-0.434-0.145-0.654-0.219c-0.223-0.072-0.441-0.158-0.654-0.256
					c-0.217-0.098-0.406-0.223-0.572-0.379c-0.166-0.154-0.301-0.35-0.402-0.58c-0.102-0.236-0.152-0.521-0.152-0.865
					c0-0.273,0.051-0.539,0.152-0.795c0.102-0.258,0.25-0.482,0.445-0.68c0.197-0.201,0.438-0.359,0.723-0.479
					s0.615-0.178,0.986-0.178c0.416,0,0.793,0.068,1.135,0.205c0.34,0.137,0.641,0.336,0.9,0.596L165.952,85.423z"/>
				<path fill="#666666" d="M169.874,89.068v2.9h-1.004v-7.756h2.199c0.471,0,0.879,0.057,1.229,0.17
					c0.348,0.115,0.637,0.275,0.865,0.486c0.229,0.207,0.398,0.461,0.51,0.756c0.113,0.295,0.17,0.627,0.17,0.99
					c0,0.361-0.061,0.689-0.184,0.99c-0.119,0.301-0.295,0.559-0.531,0.773c-0.232,0.217-0.521,0.385-0.867,0.506
					c-0.344,0.123-0.74,0.184-1.191,0.184H169.874z M169.874,88.234h1.195c0.287,0,0.541-0.041,0.76-0.119
					c0.221-0.08,0.406-0.191,0.557-0.332c0.15-0.145,0.264-0.314,0.34-0.514c0.076-0.197,0.115-0.416,0.115-0.654
					c0-0.494-0.146-0.881-0.439-1.156c-0.293-0.279-0.736-0.418-1.332-0.418h-1.195V88.234z"/>
				<path fill="#666666" d="M181.733,91.966h-0.779c-0.092,0-0.164-0.023-0.217-0.07c-0.055-0.047-0.096-0.105-0.125-0.178
					l-0.697-1.873h-3.34l-0.693,1.873c-0.021,0.064-0.062,0.121-0.123,0.172c-0.059,0.051-0.131,0.076-0.217,0.076h-0.779
					l2.979-7.754h1.016L181.733,91.966z M176.856,89.087h2.777l-1.168-3.154c-0.037-0.094-0.074-0.201-0.113-0.326
					c-0.035-0.121-0.07-0.252-0.109-0.395c-0.035,0.143-0.07,0.273-0.107,0.398c-0.035,0.123-0.072,0.234-0.111,0.328
					L176.856,89.087z"/>
				<path fill="#666666" d="M188.839,90.365c0.057,0,0.104,0.023,0.146,0.07l0.4,0.449c-0.307,0.367-0.676,0.656-1.109,0.861
					c-0.436,0.207-0.961,0.307-1.576,0.307c-0.533,0-1.018-0.096-1.455-0.289c-0.436-0.193-0.807-0.463-1.115-0.811
					c-0.311-0.348-0.549-0.766-0.719-1.254c-0.17-0.486-0.254-1.021-0.254-1.607c0-0.584,0.09-1.119,0.266-1.605
					c0.178-0.486,0.424-0.906,0.744-1.256s0.705-0.621,1.152-0.814c0.445-0.193,0.938-0.289,1.48-0.289
					c0.527,0,0.996,0.088,1.402,0.264c0.402,0.178,0.762,0.418,1.068,0.719l-0.332,0.484c-0.021,0.035-0.049,0.066-0.08,0.088
					c-0.033,0.023-0.078,0.035-0.133,0.035c-0.062,0-0.137-0.035-0.229-0.105c-0.09-0.07-0.207-0.148-0.352-0.234
					c-0.146-0.088-0.33-0.166-0.549-0.234c-0.217-0.072-0.484-0.107-0.803-0.107c-0.385,0-0.736,0.07-1.057,0.207
					c-0.318,0.141-0.592,0.342-0.822,0.605c-0.23,0.262-0.408,0.584-0.537,0.963c-0.129,0.377-0.193,0.807-0.193,1.281
					c0,0.484,0.066,0.916,0.201,1.295c0.133,0.377,0.316,0.697,0.545,0.961c0.23,0.26,0.502,0.459,0.816,0.596
					c0.312,0.139,0.65,0.205,1.014,0.205c0.223,0,0.424-0.012,0.604-0.041c0.178-0.023,0.342-0.068,0.49-0.125
					c0.152-0.057,0.291-0.131,0.422-0.219s0.26-0.193,0.387-0.316C188.724,90.392,188.78,90.365,188.839,90.365"/>
				<polygon fill="#666666" points="196.231,84.212 196.231,85.066 192.653,85.066 192.653,87.642 195.552,87.642 195.552,88.464 
					192.653,88.464 192.653,91.111 196.237,91.111 196.231,91.968 191.646,91.968 191.646,84.212 				"/>
			</g>
			<path fill="#666666" d="M197.657,85.458c0-0.123,0.016-0.242,0.047-0.354c0.029-0.113,0.072-0.221,0.129-0.318
				c0.055-0.1,0.123-0.189,0.199-0.27c0.078-0.082,0.164-0.152,0.258-0.209c0.094-0.059,0.195-0.104,0.305-0.135
				c0.107-0.031,0.221-0.047,0.338-0.047c0.115,0,0.23,0.016,0.34,0.047s0.211,0.076,0.303,0.135
				c0.096,0.057,0.182,0.127,0.26,0.209c0.076,0.08,0.146,0.17,0.199,0.27c0.055,0.098,0.098,0.205,0.129,0.318
				c0.031,0.111,0.045,0.23,0.045,0.354c0,0.121-0.014,0.238-0.045,0.352s-0.074,0.221-0.129,0.318
				c-0.053,0.098-0.123,0.188-0.199,0.268c-0.078,0.08-0.164,0.15-0.26,0.207c-0.092,0.059-0.193,0.104-0.303,0.137
				c-0.109,0.029-0.225,0.047-0.34,0.047c-0.117,0-0.23-0.018-0.338-0.047c-0.109-0.033-0.211-0.078-0.305-0.137
				c-0.094-0.057-0.18-0.127-0.258-0.207c-0.076-0.08-0.145-0.17-0.199-0.268c-0.057-0.098-0.1-0.205-0.129-0.318
				C197.673,85.697,197.657,85.58,197.657,85.458 M197.835,85.458c0,0.107,0.012,0.209,0.039,0.311
				c0.023,0.1,0.061,0.193,0.107,0.279c0.049,0.086,0.104,0.164,0.172,0.236c0.066,0.07,0.141,0.129,0.221,0.18
				c0.082,0.051,0.17,0.09,0.264,0.117s0.193,0.039,0.295,0.039c0.104,0,0.201-0.012,0.297-0.039
				c0.094-0.027,0.182-0.066,0.264-0.117s0.156-0.109,0.225-0.18c0.066-0.072,0.123-0.15,0.172-0.236
				c0.047-0.086,0.082-0.18,0.109-0.279c0.027-0.102,0.039-0.203,0.039-0.311c0-0.164-0.027-0.316-0.086-0.459
				c-0.057-0.141-0.137-0.266-0.234-0.371c-0.1-0.107-0.217-0.189-0.354-0.252c-0.135-0.061-0.277-0.092-0.432-0.092
				c-0.102,0-0.201,0.014-0.295,0.041c-0.094,0.029-0.182,0.068-0.264,0.119c-0.08,0.047-0.154,0.109-0.221,0.182
				c-0.068,0.072-0.123,0.152-0.172,0.238c-0.047,0.084-0.084,0.18-0.107,0.281C197.847,85.246,197.835,85.349,197.835,85.458
				 M198.683,85.621v0.645h-0.271v-1.623h0.5c0.201,0,0.35,0.039,0.447,0.115c0.096,0.076,0.143,0.188,0.143,0.336
				c0,0.113-0.029,0.211-0.092,0.291c-0.062,0.078-0.154,0.135-0.277,0.164c0.02,0.012,0.035,0.027,0.053,0.045
				c0.012,0.018,0.027,0.039,0.039,0.064l0.398,0.607h-0.26c-0.039,0-0.068-0.016-0.084-0.047l-0.354-0.547
				c-0.012-0.016-0.023-0.027-0.035-0.037c-0.016-0.008-0.039-0.014-0.068-0.014H198.683z M198.683,85.414h0.201
				c0.129,0,0.221-0.023,0.271-0.072c0.053-0.051,0.08-0.121,0.08-0.213c0-0.045-0.006-0.084-0.018-0.117
				c-0.01-0.035-0.029-0.062-0.055-0.086c-0.023-0.02-0.059-0.037-0.1-0.047c-0.039-0.012-0.092-0.018-0.152-0.018h-0.229V85.414z"
				/>
		</g>
	</g>
	<g>
		<polygon fill="#B7DCD8" points="24.1,66.701 24.1,42.601 0,28.7 0,80.601 		"/>
		<polygon fill="#9DAEBA" points="70.699,69.5 49.798,81.5 49.798,109.3 94.798,83.4 		"/>
		<polygon fill="#785A66" points="1.601,83.4 46.6,109.3 46.6,81.5 25.699,69.5 		"/>
		<polygon fill="#5D6D7E" points="70.699,39.801 49.798,27.801 49.798,0 94.798,25.9 		"/>
		<polygon fill="#DADFE1" points="1.601,25.9 46.6,0 46.6,27.801 25.699,39.801 		"/>
	</g>
</g>
</svg>
