<?xml version="1.0" encoding="utf-8"?>
<!-- Generator: Adobe Illustrator 18.0.0, SVG Export Plug-In . SVG Version: 6.00 Build 0)  -->
<!DOCTYPE svg PUBLIC "-//W3C//DTD SVG 1.1//EN" "http://www.w3.org/Graphics/SVG/1.1/DTD/svg11.dtd">
<svg version="1.1" id="Layer_1" xmlns="http://www.w3.org/2000/svg" xmlns:xlink="http://www.w3.org/1999/xlink" x="0px" y="0px"
	 viewBox="0 0 144 144" enable-background="new 0 0 144 144" xml:space="preserve">
<g>
	
		<rect x="15.3" y="60.8" transform="matrix(-0.7071 0.7071 -0.7071 -0.7071 172.3526 68.4488)" fill="#B7DCD8" width="113.4" height="18.1"/>
	<g>
		
			<rect x="38.8" y="108.7" transform="matrix(0.7071 0.7071 -0.7071 0.7071 89.5809 2.7697)" fill="#F5F7FA" width="5.3" height="1.6"/>
		
			<rect x="43.8" y="103.7" transform="matrix(0.7071 0.7071 -0.7071 0.7071 87.5076 -2.2409)" fill="#F5F7FA" width="5.3" height="1.6"/>
		
			<rect x="48.8" y="98.7" transform="matrix(0.707 0.7072 -0.7072 0.707 85.4434 -7.2484)" fill="#F5F7FA" width="5.3" height="1.6"/>
		
			<rect x="53.8" y="93.7" transform="matrix(0.7071 0.7071 -0.7071 0.7071 83.3538 -12.2632)" fill="#F5F7FA" width="5.3" height="1.6"/>
		
			<rect x="58.8" y="88.7" transform="matrix(0.7072 0.707 -0.707 0.7072 81.2668 -17.2763)" fill="#F5F7FA" width="5.3" height="1.6"/>
		
			<rect x="63.8" y="83.7" transform="matrix(0.707 0.7072 -0.7072 0.707 79.2163 -22.2832)" fill="#F5F7FA" width="5.3" height="1.6"/>
		
			<rect x="68.8" y="78.6" transform="matrix(0.707 0.7072 -0.7072 0.707 77.1409 -27.2944)" fill="#F5F7FA" width="5.3" height="1.6"/>
		
			<rect x="73.8" y="73.6" transform="matrix(0.707 0.7072 -0.7072 0.707 75.0635 -32.3057)" fill="#F5F7FA" width="5.3" height="1.6"/>
		
			<rect x="78.9" y="68.6" transform="matrix(0.7071 0.7071 -0.7071 0.7071 72.9771 -37.3164)" fill="#F5F7FA" width="5.3" height="1.6"/>
		
			<rect x="83.9" y="63.6" transform="matrix(0.7073 0.7069 -0.7069 0.7073 70.8779 -42.3251)" fill="#F5F7FA" width="5.3" height="1.6"/>
		
			<rect x="88.9" y="58.6" transform="matrix(0.7071 0.7071 -0.7071 0.7071 68.826 -47.339)" fill="#F5F7FA" width="5.3" height="1.6"/>
		
			<rect x="93.9" y="53.6" transform="matrix(0.7072 0.707 -0.707 0.7072 66.7373 -52.3453)" fill="#F5F7FA" width="5.3" height="1.6"/>
		
			<rect x="98.9" y="48.6" transform="matrix(0.7073 0.7069 -0.7069 0.7073 64.6499 -57.3514)" fill="#F5F7FA" width="5.3" height="1.6"/>
		
			<rect x="103.9" y="43.6" transform="matrix(0.7069 0.7073 -0.7073 0.7069 62.6244 -62.381)" fill="#F5F7FA" width="5.3" height="1.6"/>
		
			<rect x="108.9" y="38.6" transform="matrix(0.707 0.7072 -0.7072 0.707 60.5358 -67.3877)" fill="#F5F7FA" width="5.3" height="1.6"/>
	</g>
	<polygon fill="#CDD3DA" points="38,26.9 32.6,31.6 35.6,43.6 49.5,31.7 	"/>
	<polygon fill="#5D6D7E" points="49.5,31.7 35.6,43.6 88.4,104.8 102.2,92.9 	"/>
	<polygon fill="#34495E" points="49.5,31.7 42.6,37.6 95.3,98.9 102.2,92.9 	"/>
	<polygon fill="#34495E" points="32.6,31.6 30.7,23.8 38,26.9 	"/>
	
		<rect x="88" y="98.2" transform="matrix(0.7578 -0.6525 0.6525 0.7578 -42.3613 87.8257)" fill="#CDD3DA" width="18.3" height="5.5"/>
	
		<rect x="92.9" y="101.9" transform="matrix(0.7577 -0.6526 0.6526 0.7577 -44.9238 92.4801)" fill="#34495E" width="18.3" height="9.7"/>
</g>
</svg>
