<?xml version="1.0" encoding="utf-8"?>
<!-- Generator: Adobe Illustrator 19.1.0, SVG Export Plug-In . SVG Version: 6.00 Build 0)  -->
<svg version="1.1" id="Layer_1" xmlns="http://www.w3.org/2000/svg" xmlns:xlink="http://www.w3.org/1999/xlink" x="0px" y="0px"
	 viewBox="0 0 100 100" style="enable-background:new 0 0 100 100;" xml:space="preserve">
<style type="text/css">
	.st0{fill:#CCD2D9;}
	.st1{fill:#B7DCD8;}
	.st2{fill:#F5F7FA;}
	.st3{fill:#34495E;}
	.st4{fill:#5D6D7E;}
</style>
<g>
	<path class="st0" d="M50,1.2c-13.2,0-24,10.7-24,23.9v14.2h7.7V25.1c0-9,7.3-16.3,16.3-16.3c9,0,16.3,7.3,16.3,16.3v14.2H74V25.1
		C74,11.9,63.2,1.2,50,1.2z"/>
	<rect x="17.2" y="39.3" class="st1" width="65.6" height="49.1"/>
	<rect x="23.2" y="56.9" class="st2" width="53.7" height="13.9"/>
	<g>
		<g>
			<g>
				<path class="st3" d="M31.8,66.3c-1.3,0-2.4-1.1-2.4-2.4c0-1.3,1.1-2.4,2.4-2.4c1.4,0,2.5,1.1,2.5,2.4
					C34.3,65.2,33.2,66.3,31.8,66.3z"/>
			</g>
			<g>
				<path class="st3" d="M40.9,66.3c-1.4,0-2.5-1.1-2.5-2.4c0-1.3,1.1-2.4,2.5-2.4c1.3,0,2.4,1.1,2.4,2.4
					C43.4,65.2,42.3,66.3,40.9,66.3z"/>
			</g>
			<g>
				<path class="st3" d="M50,66.3c-1.3,0-2.4-1.1-2.4-2.4c0-1.3,1.1-2.4,2.4-2.4c1.4,0,2.5,1.1,2.5,2.4C52.5,65.2,51.4,66.3,50,66.3
					z"/>
			</g>
			<g>
				<path class="st3" d="M59.1,66.3c-1.3,0-2.4-1.1-2.4-2.4c0-1.3,1.1-2.4,2.4-2.4c1.3,0,2.4,1.1,2.4,2.4
					C61.5,65.2,60.4,66.3,59.1,66.3z"/>
			</g>
			<g>
				<path class="st3" d="M68.1,66.3c-1.3,0-2.4-1.1-2.4-2.4c0-1.3,1.1-2.4,2.4-2.4c1.4,0,2.4,1.1,2.4,2.4
					C70.6,65.2,69.5,66.3,68.1,66.3z"/>
			</g>
		</g>
	</g>
	<rect x="17.2" y="88.4" class="st4" width="65.6" height="10.4"/>
</g>
</svg>
