<?xml version="1.0" encoding="utf-8"?>
<!-- Generator: Adobe Illustrator 19.1.0, SVG Export Plug-In . SVG Version: 6.00 Build 0)  -->
<svg version="1.1" id="Layer_1" xmlns="http://www.w3.org/2000/svg" xmlns:xlink="http://www.w3.org/1999/xlink" x="0px" y="0px"
	 viewBox="0 0 100 100" style="enable-background:new 0 0 100 100;" xml:space="preserve">
<style type="text/css">
	.st0{fill:#34495E;}
	.st1{fill:#F5F7FA;}
	.st2{fill:#B7DCD8;}
	.st3{fill:#283A4D;}
	.st4{fill:#5D6D7E;}
	.st5{fill:#CCD2D9;}
</style>
<g>
	<path class="st0" d="M50,20.9c-5.8,0-10.4-4.7-10.4-10.4C39.6,4.7,44.2,0,50,0s10.4,4.7,10.4,10.4C60.4,16.2,55.8,20.9,50,20.9z
		 M50,1.7c-4.8,0-8.8,3.9-8.8,8.7c0,4.8,3.9,8.8,8.8,8.8s8.8-3.9,8.8-8.8C58.8,5.6,54.8,1.7,50,1.7z"/>
	<circle class="st0" cx="50" cy="60.9" r="39.1"/>
	<circle class="st1" cx="50" cy="60.9" r="34.5"/>
	<path class="st2" d="M50,26.3v34.5l24.4,24.4c6.3-6.3,10.1-14.9,10.1-24.4C84.5,41.8,69.1,26.3,50,26.3z"/>
	<g>
		<g>
			<rect x="49.7" y="28.6" class="st3" width="0.7" height="2.9"/>
			
				<rect x="46.4" y="28.8" transform="matrix(0.9942 -0.1076 0.1076 0.9942 -2.9775 5.2074)" class="st3" width="0.7" height="2.9"/>
			<polygon class="st3" points="44.2,32 43.6,32.2 43,29.4 43.6,29.2 			"/>
			
				<rect x="40.1" y="30.1" transform="matrix(0.9502 -0.3116 0.3116 0.9502 -7.8135 14.1789)" class="st3" width="0.7" height="2.9"/>
			
				<rect x="37.1" y="31.3" transform="matrix(0.9135 -0.4069 0.4069 0.9135 -10.0648 18.0684)" class="st3" width="0.7" height="2.9"/>
			<polygon class="st3" points="35.6,35.2 35,35.6 33.6,33.1 34.1,32.8 			"/>
			<rect x="31.5" y="34.5" transform="matrix(0.8089 -0.588 0.588 0.8089 -15.0321 25.604)" class="st3" width="0.7" height="2.9"/>
			<polygon class="st3" points="30.6,38.8 30.1,39.2 28.2,37.1 28.6,36.7 			"/>
			
				<rect x="26.7" y="38.8" transform="matrix(0.6683 -0.7439 0.7439 0.6683 -20.9533 33.4847)" class="st3" width="0.7" height="2.9"/>
			<polygon class="st3" points="26.4,43.3 26,43.9 23.7,42.2 24.1,41.6 			"/>
			<rect x="23" y="44" transform="matrix(0.499 -0.8666 0.8666 0.499 -27.7312 42.9469)" class="st3" width="0.7" height="2.9"/>
			
				<rect x="21.5" y="46.9" transform="matrix(0.4096 -0.9123 0.9123 0.4096 -31.2149 48.4391)" class="st3" width="0.7" height="2.9"/>
			
				<rect x="20.3" y="49.9" transform="matrix(0.3047 -0.9525 0.9525 0.3047 -34.5451 55.3808)" class="st3" width="0.7" height="2.9"/>
			
				<rect x="19.5" y="53" transform="matrix(0.2081 -0.9781 0.9781 0.2081 -37.5798 62.5195)" class="st3" width="0.7" height="2.9"/>
			
				<rect x="19" y="56.2" transform="matrix(9.824888e-02 -0.9952 0.9952 9.824888e-02 -39.9638 71.2152)" class="st3" width="0.7" height="2.9"/>
			<rect x="17.7" y="60.6" class="st3" width="2.9" height="0.7"/>
			<polygon class="st3" points="20.7,63.6 20.8,64.3 17.9,64.6 17.9,63.9 			"/>
			
				<rect x="19.5" y="65.9" transform="matrix(-0.2087 -0.978 0.978 -0.2087 -41.8588 100.7256)" class="st3" width="0.7" height="2.9"/>
			
				<rect x="20.3" y="69" transform="matrix(-0.3054 -0.9522 0.9522 -0.3054 -40.0862 111.5946)" class="st3" width="0.7" height="2.9"/>
			
				<rect x="21.5" y="72" transform="matrix(-0.4115 -0.9114 0.9114 -0.4115 -36.1363 123.5373)" class="st3" width="0.7" height="2.9"/>
			<polygon class="st3" points="24.4,75.3 24.7,75.9 22.2,77.3 21.9,76.7 			"/>
			
				<rect x="24.7" y="77.6" transform="matrix(-0.5888 -0.8082 0.8082 -0.5888 -24.0823 145.7923)" class="st3" width="0.7" height="2.9"/>
			
				<rect x="26.7" y="80.1" transform="matrix(-0.6696 -0.7427 0.7427 -0.6696 -15.3493 156.2342)" class="st3" width="0.7" height="2.9"/>
			
				<rect x="29" y="82.4" transform="matrix(-0.7431 -0.6692 0.6692 -0.7431 -4.9167 165.7347)" class="st3" width="0.7" height="2.9"/>
			
				<rect x="31.5" y="84.4" transform="matrix(-0.807 -0.5905 0.5905 -0.807 6.8939 173.9458)" class="st3" width="0.7" height="2.9"/>
			<polygon class="st3" points="35,86.2 35.6,86.5 34.1,89 33.6,88.7 			"/>
			
				<rect x="37.1" y="87.6" transform="matrix(-0.914 -0.4058 0.4058 -0.914 35.533 185.6754)" class="st3" width="0.7" height="2.9"/>
			<polygon class="st3" points="40.6,88.8 41.2,89 40.3,91.7 39.7,91.5 			"/>
			
				<rect x="43.3" y="89.6" transform="matrix(-0.979 -0.2041 0.2041 -0.979 67.672 189.1096)" class="st3" width="0.6" height="2.9"/>
			
				<rect x="46.4" y="90.1" transform="matrix(-0.9947 -0.1026 0.1026 -0.9947 83.9021 187.459)" class="st3" width="0.7" height="2.9"/>
			<rect x="49.7" y="90.3" class="st3" width="0.7" height="2.9"/>
			<polygon class="st3" points="52.7,90.2 53.4,90.1 53.7,93 53.1,93 			"/>
			<polygon class="st3" points="55.8,89.7 56.4,89.6 57,92.4 56.4,92.5 			"/>
			<polygon class="st3" points="58.8,89 59.4,88.8 60.3,91.5 59.7,91.7 			"/>
			
				<rect x="62.2" y="87.6" transform="matrix(-0.914 0.4058 -0.4058 -0.914 155.8583 145.0958)" class="st3" width="0.7" height="2.9"/>
			<polygon class="st3" points="64.4,86.5 65,86.2 66.4,88.7 65.9,89 			"/>
			
				<rect x="67.8" y="84.4" transform="matrix(-0.8088 0.5881 -0.5881 -0.8088 173.7294 115.2145)" class="st3" width="0.7" height="2.9"/>
			<polygon class="st3" points="69.4,83 69.9,82.5 71.8,84.7 71.4,85.1 			"/>
			
				<rect x="72.6" y="80.1" transform="matrix(-0.6717 0.7408 -0.7408 -0.6717 182.3143 82.2725)" class="st3" width="0.7" height="2.9"/>
			<polygon class="st3" points="73.6,78.4 74,77.9 76.3,79.6 75.9,80.1 			"/>
			
				<rect x="76.4" y="74.9" transform="matrix(-0.5007 0.8656 -0.8656 -0.5007 181.1885 48.1089)" class="st3" width="0.7" height="2.9"/>
			<polygon class="st3" points="76.7,73.1 77,72.6 79.6,73.7 79.4,74.3 			"/>
			<rect x="79" y="69" transform="matrix(-0.307 0.9517 -0.9517 -0.307 170.723 16.527)" class="st3" width="0.7" height="2.9"/>
			
				<rect x="79.9" y="65.9" transform="matrix(-0.2093 0.9778 -0.9778 -0.2093 162.7717 2.9827)" class="st3" width="0.7" height="2.9"/>
			
				<rect x="80.4" y="62.7" transform="matrix(-0.1047 0.9945 -0.9945 -0.1047 152.8935 -9.4167)" class="st3" width="0.7" height="2.9"/>
			<rect x="79.4" y="60.6" class="st3" width="2.9" height="0.7"/>
			
				<rect x="80.4" y="56.2" transform="matrix(0.1045 0.9945 -0.9945 0.1045 129.6022 -28.6073)" class="st3" width="0.7" height="2.9"/>
			<polygon class="st3" points="78.8,55.1 78.7,54.4 81.5,53.9 81.7,54.5 			"/>
			<polygon class="st3" points="78.1,52.1 77.9,51.5 80.6,50.6 80.8,51.2 			"/>
			<polygon class="st3" points="77,49.2 76.7,48.6 79.4,47.5 79.6,48.1 			"/>
			
				<rect x="76.4" y="44" transform="matrix(0.5026 0.8645 -0.8645 0.5026 77.4656 -43.7153)" class="st3" width="0.7" height="2.9"/>
			
				<rect x="74.6" y="41.3" transform="matrix(0.5869 0.8097 -0.8097 0.5869 65.583 -43.031)" class="st3" width="0.7" height="2.9"/>
			
				<rect x="72.6" y="38.8" transform="matrix(0.6704 0.742 -0.742 0.6704 53.8909 -40.8501)" class="st3" width="0.7" height="2.9"/>
			<polygon class="st3" points="69.9,39.2 69.4,38.8 71.4,36.7 71.8,37.1 			"/>
			
				<rect x="67.8" y="34.5" transform="matrix(0.8106 0.5856 -0.5856 0.8106 33.9395 -33.096)" class="st3" width="0.7" height="2.9"/>
			
				<rect x="65.1" y="32.7" transform="matrix(0.8631 0.505 -0.505 0.8631 26.2079 -28.3622)" class="st3" width="0.6" height="2.9"/>
			
				<rect x="62.2" y="31.3" transform="matrix(0.9135 0.4069 -0.4069 0.9135 18.7173 -22.6215)" class="st3" width="0.7" height="2.9"/>
			
				<rect x="59.2" y="30.1" transform="matrix(0.9507 0.3101 -0.3101 0.9507 12.7165 -16.9072)" class="st3" width="0.7" height="2.9"/>
			
				<rect x="56.1" y="29.3" transform="matrix(0.9782 0.2075 -0.2075 0.9782 7.6003 -11.0389)" class="st3" width="0.7" height="2.9"/>
			<polygon class="st3" points="53.4,31.7 52.7,31.6 53.1,28.7 53.7,28.8 			"/>
		</g>
	</g>
	
		<rect x="58.4" y="50.3" transform="matrix(-0.7071 0.7071 -0.7071 -0.7071 150.2299 77.6206)" class="st0" width="1.3" height="39.3"/>
	<circle class="st4" cx="50" cy="60.9" r="3"/>
	<path class="st1" d="M51.2,60.9c0,0.7-0.5,1.2-1.2,1.2c-0.7,0-1.2-0.5-1.2-1.2c0-0.7,0.5-1.2,1.2-1.2
		C50.7,59.7,51.2,60.2,51.2,60.9z"/>
	<rect x="46.7" y="15.4" class="st4" width="6.5" height="6.5"/>
	<rect x="44.8" y="10.2" class="st0" width="10.4" height="5.2"/>
	
		<rect x="75.6" y="31.1" transform="matrix(-0.7072 -0.707 0.707 -0.7072 111.1103 110.8134)" class="st4" width="5.8" height="2.6"/>
	
		<rect x="77.7" y="25.8" transform="matrix(-0.707 -0.7073 0.7073 -0.707 119.0125 107.5406)" class="st0" width="8.2" height="6.7"/>
	
		<rect x="18.6" y="31.1" transform="matrix(0.7073 -0.7069 0.7069 0.7073 -16.6113 24.6825)" class="st4" width="5.8" height="2.6"/>
	
		<rect x="14.1" y="25.8" transform="matrix(0.7071 -0.7071 0.7071 0.7071 -15.2526 21.4093)" class="st0" width="8.2" height="6.7"/>
	<circle class="st5" cx="50" cy="77.1" r="6.5"/>
</g>
</svg>
