<?xml version="1.0" encoding="utf-8"?>
<!-- Generator: Adobe Illustrator 19.1.0, SVG Export Plug-In . SVG Version: 6.00 Build 0)  -->
<svg version="1.1" id="Layer_1" xmlns="http://www.w3.org/2000/svg" xmlns:xlink="http://www.w3.org/1999/xlink" x="0px" y="0px"
	 viewBox="0 0 150 150" style="enable-background:new 0 0 150 150;" xml:space="preserve">
<style type="text/css">
	.st0{fill:#34495E;}
</style>
<g>
	<g>
		<g>
			<g>
				<g>
					<rect x="123.3" y="89.7" class="st0" width="3.7" height="1.6"/>
					<path class="st0" d="M44.8,104.3l-1.1-1.1l5-5l1.1,1.1L44.8,104.3z M54.7,94.4l-1.1-1.1l3.3-3.3l0.6-0.2h2.4v1.6h-2.1
						L54.7,94.4z M116.2,91.3h-7v-1.6h7V91.3z M102.1,91.3h-7v-1.6h7V91.3z M88.1,91.3h-7v-1.6h7V91.3z M74,91.3h-7.1v-1.6H74V91.3z
						"/>
					<polygon class="st0" points="37.1,111.9 36,110.8 38.6,108.2 39.8,109.3 					"/>
				</g>
				<g>
					<polygon class="st0" points="37.1,111.9 36,110.8 38.6,108.2 39.8,109.3 					"/>
					<path class="st0" d="M44.8,104.3l-1.1-1.1l5-5l1.1,1.1L44.8,104.3z M54.7,94.4l-1.1-1.1l3-3v-2.1h1.6v2.4L58,91.1L54.7,94.4z
						 M58.3,81.1h-1.6V74h1.6V81.1z M58.3,66.9h-1.6v-7h1.6V66.9z M58.3,52.9h-1.6v-7.1h1.6V52.9z M58.3,38.8h-1.6v-7h1.6V38.8z"/>
					<rect x="56.7" y="20.9" class="st0" width="1.6" height="3.7"/>
				</g>
			</g>
			<path class="st0" d="M106.2,112.9H36.6c-0.8,0-1.5-0.7-1.5-1.5V41.8c0-0.8,0.7-1.5,1.5-1.5h69.6c0.8,0,1.5,0.7,1.5,1.5v69.6
				C107.7,112.2,107,112.9,106.2,112.9z M38.1,109.9h66.6V43.3H38.1V109.9z"/>
			<path class="st0" d="M106.2,43.3H36.6c-0.6,0-1.2-0.4-1.4-0.9c-0.2-0.6-0.1-1.2,0.3-1.6l20.9-20.9c0.3-0.3,0.7-0.4,1.1-0.4H127
				c0.6,0,1.2,0.4,1.4,0.9c0.2,0.6,0.1,1.2-0.3,1.6l-20.9,20.9C106.9,43.1,106.6,43.3,106.2,43.3z M40.2,40.3h65.4l17.9-17.9H58.1
				L40.2,40.3z"/>
			<path class="st0" d="M106.2,112.9c-0.2,0-0.4,0-0.6-0.1c-0.6-0.2-0.9-0.8-0.9-1.4V41.8c0-0.4,0.2-0.8,0.4-1.1L126,19.9
				c0.4-0.4,1.1-0.6,1.6-0.3c0.6,0.2,0.9,0.8,0.9,1.4v69.6c0,0.4-0.2,0.8-0.4,1.1l-20.9,20.9C106.9,112.7,106.5,112.9,106.2,112.9z
				 M107.7,42.4v65.4l17.9-17.9V24.5L107.7,42.4z"/>
		</g>
	</g>
	<g>
		<g>
			<path class="st0" d="M71.6,119.4c-1.7,0-3.2,0.5-4.5,1.7l1,1.6c0.9-0.9,2-1.4,3.1-1.4c1.4,0,2.5,0.8,2.5,2v1.6
				c-0.8-0.9-2-1.4-3.5-1.4c-1.7,0-3.7,1-3.7,3.5c0,2.3,2,3.5,3.7,3.5c1.4,0,2.7-0.5,3.5-1.4v1.2h2.3v-7.1
				C76.1,120.4,74,119.4,71.6,119.4z M73.8,127.9c-0.5,0.7-1.5,1.1-2.5,1.1c-1.3,0-2.3-0.8-2.3-1.9c0-1.1,1-1.9,2.3-1.9
				c1,0,2,0.4,2.5,1.1V127.9z"/>
			<path class="st0" d="M23.1,72.9c-1.3,0-2.5,0.6-3.4,1.7v-5.5h-2.3v14.7h2.3v-1.4c0.8,1,2,1.7,3.4,1.7c2.7,0,4.7-2.1,4.7-5.6
				C27.8,75,25.8,72.9,23.1,72.9z M22.4,82c-1.1,0-2.2-0.6-2.7-1.4v-4.2c0.5-0.8,1.6-1.4,2.7-1.4c1.8,0,3,1.5,3,3.5
				C25.4,80.5,24.3,82,22.4,82z"/>
			<path class="st0" d="M128.7,110.8c-1.9,0-3.2-1.5-3.2-3.5c0-2.1,1.3-3.5,3.2-3.5c1,0,1.8,0.4,2.4,1.2l1.5-1.4
				c-0.7-1-2-1.9-4.1-1.9c-3.2,0-5.5,2.4-5.5,5.6c0,3.2,2.3,5.6,5.5,5.6c2.1,0,3.3-0.9,4.1-1.9l-1.5-1.4
				C130.5,110.4,129.7,110.8,128.7,110.8z"/>
		</g>
	</g>
</g>
</svg>
