<?xml version="1.0" encoding="utf-8"?>
<!-- Generator: Adobe Illustrator 19.1.0, SVG Export Plug-In . SVG Version: 6.00 Build 0)  -->
<svg version="1.1" id="Layer_1" xmlns="http://www.w3.org/2000/svg" xmlns:xlink="http://www.w3.org/1999/xlink" x="0px" y="0px"
	 viewBox="0 0 150 150" style="enable-background:new 0 0 150 150;" xml:space="preserve">
<style type="text/css">
	.st0{fill:#34495E;}
	.st1{fill:#B7DCD8;}
	.st2{fill:#FFFFFF;}
</style>
<g>
	<g>
		<g>
			<rect x="75.3" y="75.8" class="st0" width="1.7" height="2.1"/>
			<path class="st0" d="M77,71.8h-1.7v-4H77V71.8z M77,63.9h-1.7v-4H77V63.9z M77,56h-1.7v-4H77V56z M77,48.1h-1.7v-4H77V48.1z
				 M77,40.1h-1.7v-4H77V40.1z"/>
			<rect x="75.3" y="30.2" class="st0" width="1.7" height="2.1"/>
		</g>
		<g>
			<rect x="75.3" y="77.9" class="st0" width="1.7" height="2.1"/>
			<path class="st0" d="M77,119.5h-1.7v-4H77V119.5z M77,111.6h-1.7v-4H77V111.6z M77,103.7h-1.7v-4H77V103.7z M77,95.8h-1.7l0-4H77
				L77,95.8z M77,87.8h-1.7v-4H77V87.8z"/>
			<rect x="75.3" y="123.5" class="st0" width="1.7" height="2.1"/>
		</g>
		<g>
			
				<rect x="34.9" y="100.2" transform="matrix(0.4998 0.8661 -0.8661 0.4998 105.5143 19.658)" class="st0" width="1.7" height="2.1"/>
			<path class="st0" d="M40.5,99.4L39.6,98l3.4-2l0.8,1.4L40.5,99.4z M47.3,95.4L46.5,94l3.4-2l0.8,1.4L47.3,95.4z M54.2,91.5
				l-0.8-1.4l3.4-2l0.8,1.4L54.2,91.5z M61.1,87.5l-0.8-1.4l3.4-2l0.8,1.4L61.1,87.5z M67.9,83.6l-0.8-1.4l3.4-2l0.8,1.4L67.9,83.6z
				"/>
			<polygon class="st0" points="74.8,79.6 73.9,78.2 74.5,77.9 73.9,77.5 74.8,76.1 77.8,77.9 			"/>
			<path class="st0" d="M70.5,75.6l-3.4-2l0.8-1.4l3.4,2L70.5,75.6z M63.7,71.6l-3.4-2l0.8-1.4l3.4,2L63.7,71.6z M56.8,67.6l-3.4-2
				l0.8-1.4l3.4,2L56.8,67.6z M49.9,63.7l-3.4-2l0.8-1.4l3.4,2L49.9,63.7z M43.1,59.7l-3.4-2l0.8-1.4l3.4,2L43.1,59.7z"/>
			
				<rect x="34.7" y="53.7" transform="matrix(0.8661 0.4999 -0.4999 0.8661 32.0424 -10.5622)" class="st0" width="2.1" height="1.7"/>
		</g>
		<g>
			
				<rect x="115.7" y="53.5" transform="matrix(0.4998 0.8662 -0.8662 0.4998 105.5332 -73.6777)" class="st0" width="1.7" height="2.1"/>
			<path class="st0" d="M81.8,75.6L81,74.1l3.4-2l0.8,1.4L81.8,75.6z M88.6,71.6l-0.8-1.4l3.4-2l0.8,1.4L88.6,71.6z M95.5,67.6
				l-0.8-1.4l3.4-2l0.8,1.4L95.5,67.6z M102.4,63.7l-0.8-1.4l3.4-2l0.8,1.4L102.4,63.7z M109.2,59.7l-0.8-1.4l3.4-2l0.8,1.4
				L109.2,59.7z"/>
			<polygon class="st0" points="77.5,79.6 74.5,77.9 77.5,76.1 78.3,77.5 77.8,77.9 78.3,78.2 			"/>
			<path class="st0" d="M111.8,99.4l-3.4-2l0.8-1.4l3.4,2L111.8,99.4z M105,95.4l-3.4-2l0.8-1.4l3.4,2L105,95.4z M98.1,91.5l-3.4-2
				l0.8-1.4l3.4,2L98.1,91.5z M91.2,87.5l-3.4-2l0.8-1.4l3.4,2L91.2,87.5z M84.4,83.6l-3.4-2l0.8-1.4l3.4,2L84.4,83.6z"/>
			<rect x="115.5" y="100.4" transform="matrix(0.866 0.5 -0.5 0.866 66.2033 -44.7183)" class="st0" width="2.1" height="1.7"/>
		</g>
		<g>
			<polygon class="st0" points="76.1,126.5 73.9,125.2 74.8,123.8 76.1,124.6 77.5,123.8 78.3,125.2 			"/>
			<path class="st0" d="M70.5,123.3l-3.4-2l0.8-1.4l3.4,2L70.5,123.3z M63.7,119.3l-3.4-2l0.8-1.4l3.4,2L63.7,119.3z M56.8,115.3
				l-3.4-2l0.8-1.4l3.4,2L56.8,115.3z M49.9,111.4l-3.4-2l0.8-1.4l3.4,2L49.9,111.4z M43.1,107.4l-3.4-2l0.8-1.4l3.4,2L43.1,107.4z"
				/>
			<polygon class="st0" points="36.2,103.5 34,102.2 34,99.6 35.7,99.6 35.7,101.2 37,102 			"/>
			<path class="st0" d="M35.7,95.7H34v-4h1.7V95.7z M35.7,87.8H34v-4h1.7V87.8z M34,79.8l0-4h1.7l0,4H34z M35.7,71.9H34v-4h1.7V71.9
				z M35.7,64H34v-4h1.7V64z"/>
			<polygon class="st0" points="35.7,56.1 34,56.1 34,53.5 36.2,52.3 37,53.7 35.7,54.5 			"/>
			<path class="st0" d="M40.5,51.7l-0.8-1.4l3.4-2l0.8,1.4L40.5,51.7z M47.3,47.8l-0.8-1.4l3.4-2l0.8,1.4L47.3,47.8z M54.2,43.8
				l-0.8-1.4l3.4-2l0.8,1.4L54.2,43.8z M61.1,39.8l-0.8-1.4l3.4-2l0.8,1.4L61.1,39.8z M67.9,35.9l-0.8-1.4l3.4-2l0.8,1.4L67.9,35.9z
				"/>
			<polygon class="st0" points="74.8,31.9 73.9,30.5 76.1,29.2 78.3,30.5 77.5,31.9 76.1,31.1 			"/>
			<path class="st0" d="M111.8,51.7l-3.4-2l0.8-1.4l3.4,2L111.8,51.7z M105,47.8l-3.4-2l0.8-1.4l3.4,2L105,47.8z M98.1,43.8l-3.4-2
				l0.8-1.4l3.4,2L98.1,43.8z M91.2,39.8l-3.4-2l0.8-1.4l3.4,2L91.2,39.8z M84.4,35.9l-3.4-2l0.8-1.4l3.4,2L84.4,35.9z"/>
			<polygon class="st0" points="118.3,56.1 116.6,56.1 116.6,54.5 115.2,53.7 116.1,52.3 118.3,53.5 			"/>
			<path class="st0" d="M118.3,95.7h-1.7v-4h1.7V95.7z M118.3,87.8h-1.7v-4h1.7V87.8z M118.3,79.8h-1.7v-4h1.7V79.8z M118.3,71.9
				h-1.7v-4h1.7V71.9z M118.3,64h-1.7v-4h1.7V64z"/>
			<polygon class="st0" points="116.1,103.5 115.2,102 116.6,101.2 116.6,99.6 118.3,99.6 118.3,102.2 			"/>
			<path class="st0" d="M81.8,123.3l-0.8-1.4l3.4-2l0.8,1.4L81.8,123.3z M88.6,119.3l-0.8-1.4l3.4-2l0.8,1.4L88.6,119.3z
				 M95.5,115.3l-0.8-1.4l3.4-2l0.8,1.4L95.5,115.3z M102.4,111.4l-0.8-1.4l3.4-2l0.8,1.4L102.4,111.4z M109.2,107.4l-0.8-1.4l3.4-2
				l0.8,1.4L109.2,107.4z"/>
		</g>
	</g>
	<circle class="st1" cx="76.1" cy="77.9" r="6.2"/>
	<path class="st1" d="M40.2,50.9c1.7,3,0.7,6.8-2.3,8.5c-3,1.7-6.8,0.7-8.5-2.3c-1.7-3-0.7-6.8,2.3-8.5C34.7,46.9,38.5,48,40.2,50.9
		z"/>
	<path class="st2" d="M81.5,27.1c1.7,3,0.7,6.8-2.3,8.5c-3,1.7-6.8,0.7-8.5-2.3c-1.7-3-0.7-6.8,2.3-8.5C76,23.1,79.8,24.1,81.5,27.1
		z"/>
	<path class="st1" d="M122.8,50.9c1.7,3,0.7,6.8-2.3,8.5c-3,1.7-6.8,0.7-8.5-2.3c-1.7-3-0.7-6.8,2.3-8.5
		C117.3,46.9,121.1,48,122.8,50.9z"/>
	<path class="st2" d="M122.8,98.6c1.7,3,0.7,6.8-2.3,8.5c-3,1.7-6.8,0.7-8.5-2.3c-1.7-3-0.7-6.8,2.3-8.5
		C117.3,94.6,121.1,95.6,122.8,98.6z"/>
	<circle class="st1" cx="76.1" cy="125.6" r="6.2"/>
	<circle class="st2" cx="34.8" cy="101.7" r="6.2"/>
	<circle class="st0" cx="133.9" cy="62.7" r="2.5"/>
	<circle class="st1" cx="94.5" cy="9.3" r="4"/>
	<circle class="st2" cx="6.3" cy="76.6" r="3.3"/>
	<circle class="st0" cx="113.2" cy="141.3" r="3.4"/>
	<circle class="st1" cx="142.1" cy="105.9" r="5"/>
	<circle class="st0" cx="29.7" cy="129.9" r="6.8"/>
	<circle class="st2" cx="34.6" cy="28.1" r="6"/>
</g>
</svg>
