<?xml version="1.0" encoding="utf-8"?>
<!DOCTYPE svg PUBLIC "-//W3C//DTD SVG 1.1//EN" "http://www.w3.org/Graphics/SVG/1.1/DTD/svg11.dtd">
<svg version="1.1" id="database" xmlns="http://www.w3.org/2000/svg" xmlns:xlink="http://www.w3.org/1999/xlink" x="0px" y="0px"
	 width="24px" height="24px" viewBox="0 0 24 24" enable-background="new 0 0 24 24" xml:space="preserve">
<path d="M23.984,4.5L23.984,4.5c0-3.092-6.217-4.5-11.992-4.5S0,1.408,0,4.5c0,0.001,0,0.002,0,0.004V9.5l0,0
	c0,0.001,0,0.002,0,0.002V14.5l0,0v0.002V19.5C0,22.592,6.217,24,11.992,24s11.992-1.408,11.992-4.499L24,4.5H23.984z M11.992,14
	c3.764,0,7.704-0.603,10-1.875L21.989,14.5h-0.005c0,0.748-3.4,2.5-9.992,2.5S2.002,15.248,2,14.5v-2.371
	C4.297,13.398,8.232,14,11.992,14z M2,9.501V7.129C4.297,8.398,8.232,9,11.992,9c3.767,0,7.71-0.604,10.005-1.879L21.994,9.5h-0.01
	c0,0.748-3.4,2.5-9.992,2.5C5.402,12,2.004,10.25,2,9.501z M11.992,2c6.592,0,9.992,1.752,9.992,2.5c0,0.747-3.4,2.5-9.992,2.5
	C5.404,7,2.006,5.25,2,4.502V4.5l0,0C2,3.752,5.399,2,11.992,2z M11.992,22C5.399,22,2,20.248,2,19.5v-2.371
	C4.297,18.398,8.232,19,11.992,19c3.761,0,7.697-0.602,9.994-1.872L21.984,19.5C21.984,20.248,18.584,22,11.992,22z"/>
</svg>
