<?xml version="1.0" encoding="utf-8"?>
<!DOCTYPE svg PUBLIC "-//W3C//DTD SVG 1.1//EN" "http://www.w3.org/Graphics/SVG/1.1/DTD/svg11.dtd">
<svg version="1.1" id="doc" xmlns="http://www.w3.org/2000/svg" xmlns:xlink="http://www.w3.org/1999/xlink" x="0px" y="0px"
	 width="30px" height="30px" viewBox="0 0 30 30" enable-background="new 0 0 30 30" xml:space="preserve">
<path d="M16.414,23.586C16.777,23.947,17,24.447,17,25c0,1.104-0.896,2-2,2s-2-0.896-2-2s0.896-2,2-2
	C15.553,23,16.052,23.223,16.414,23.586z M8,23H7v4h1c1.104,0,2-0.896,2-2C10,23.895,9.104,23,8,23z M30,11.25V30H0V0h18.75
	L30,11.25z M18,12h9.922L18,2.078V12z M11,25c0-1.656-1.344-3-3-3H6v6h2C9.656,28,11,26.656,11,25z M18,25
	c0-0.828-0.336-1.58-0.879-2.121C16.579,22.336,15.828,22,15,22c-1.654,0-3,1.346-3,3s1.346,3,3,3S18,26.654,18,25z M20,25
	c0-1.104,0.896-2,2-2c0.553,0,1.053,0.223,1.414,0.586l0.707-0.707C23.579,22.336,22.828,22,22,22c-1.654,0-3,1.346-3,3s1.346,3,3,3
	c0.828,0,1.579-0.336,2.121-0.879l-0.707-0.707C23.053,26.777,22.553,27,22,27C20.896,27,20,26.104,20,25z M28,14H16V2H2v18h26V14z"
	/>
</svg>
