<?xml version="1.0" encoding="utf-8"?>
<!DOCTYPE svg PUBLIC "-//W3C//DTD SVG 1.1//EN" "http://www.w3.org/Graphics/SVG/1.1/DTD/svg11.dtd">
<svg version="1.1" id="os" xmlns="http://www.w3.org/2000/svg" xmlns:xlink="http://www.w3.org/1999/xlink" x="0px" y="0px"
	 width="30px" height="30px" viewBox="0 0 30 30" enable-background="new 0 0 30 30" xml:space="preserve">
<path d="M27.881,16.076C27.96,15.852,28,15.49,28,15s-0.04-0.853-0.119-1.078l-0.077-0.219l-2.963-0.601l-0.156-0.606
	c-0.245-0.947-0.627-1.853-1.137-2.689L23.2,9.236l1.757-2.405L24.869,6.65c-0.104-0.214-0.333-0.498-0.678-0.844
	c-0.43-0.43-0.697-0.605-0.845-0.678l-0.207-0.1l-2.522,1.673l-0.54-0.319c-0.845-0.499-1.756-0.869-2.706-1.1l-0.65-0.158
	l-0.456-2.941l-0.189-0.065C15.923,2.064,15.61,2,14.999,2c-0.611,0-0.923,0.064-1.078,0.118l-0.219,0.077l-0.598,2.963
	l-0.607,0.156c-0.947,0.244-1.852,0.627-2.69,1.138L9.236,6.799L6.827,5.038L6.645,5.13C6.498,5.204,6.232,5.383,5.807,5.807
	c-0.43,0.43-0.606,0.697-0.678,0.844L5.027,6.861l1.674,2.522L6.383,9.923c-0.499,0.845-0.869,1.755-1.1,2.704l-0.158,0.65
	l-2.94,0.457l-0.065,0.188C2.064,14.077,2,14.389,2,15s0.064,0.922,0.118,1.076l0.077,0.221l2.964,0.598l0.156,0.607
	c0.245,0.947,0.627,1.854,1.137,2.69l0.348,0.571l-1.757,2.402l0.087,0.18c0.071,0.148,0.246,0.414,0.678,0.846
	c0.431,0.432,0.697,0.606,0.844,0.678l0.207,0.1l2.522-1.672l0.54,0.318c0.845,0.5,1.756,0.87,2.707,1.102l0.649,0.158l0.456,2.939
	l0.188,0.066C14.075,27.936,14.387,28,14.999,28c0.487,0,0.849-0.039,1.077-0.117l0.222-0.076l0.599-2.966l0.606-0.156
	c0.947-0.244,1.852-0.626,2.689-1.137l0.571-0.348l2.409,1.761l0.182-0.092c0.147-0.074,0.412-0.252,0.838-0.677
	c0.432-0.431,0.608-0.698,0.679-0.847l0.1-0.209l-1.672-2.519l0.319-0.54c0.499-0.845,0.869-1.756,1.101-2.707l0.158-0.649
	l2.94-0.456L27.881,16.076z M29.768,13.26C29.926,13.711,30,14.264,30,15c0,0.735-0.074,1.288-0.231,1.738l-0.463,1.32l-2.823,0.438
	c-0.215,0.705-0.494,1.39-0.835,2.045l1.619,2.438l-0.594,1.234c-0.208,0.432-0.547,0.875-1.068,1.395
	c-0.499,0.499-0.942,0.842-1.354,1.049l-1.274,0.64l-2.332-1.704c-0.65,0.348-1.331,0.633-2.033,0.855l-0.582,2.879l-1.306,0.447
	C16.275,29.928,15.727,30,14.999,30c-0.738,0-1.291-0.074-1.741-0.232l-1.318-0.463l-0.438-2.823
	c-0.705-0.214-1.389-0.494-2.044-0.836l-2.443,1.62L5.781,26.67c-0.428-0.207-0.869-0.545-1.387-1.063
	c-0.521-0.521-0.86-0.963-1.067-1.393l-0.606-1.261l1.688-2.309c-0.348-0.65-0.633-1.33-0.855-2.033l-2.871-0.58L0.23,16.736
	C0.073,16.289,0,15.736,0,15s0.073-1.288,0.23-1.737l0.46-1.321l2.827-0.439c0.214-0.704,0.493-1.387,0.834-2.041L2.728,7.012
	l0.604-1.237C3.539,5.349,3.876,4.91,4.393,4.393c0.498-0.498,0.939-0.841,1.35-1.049l1.276-0.643l2.335,1.707
	c0.651-0.348,1.331-0.633,2.034-0.855l0.579-2.871l1.295-0.451C13.712,0.072,14.263,0,14.999,0c0.736,0,1.289,0.072,1.737,0.229
	l1.322,0.462l0.438,2.826c0.705,0.215,1.389,0.494,2.044,0.836l2.445-1.621l1.234,0.598c0.428,0.207,0.868,0.545,1.386,1.062
	c0.517,0.517,0.854,0.955,1.062,1.381l0.615,1.266l-1.691,2.314c0.348,0.65,0.634,1.331,0.856,2.034l2.868,0.581L29.768,13.26z
	 M11,9c1.93,0,3.5,1.57,3.5,3.5v5c0,1.93-1.57,3.5-3.5,3.5s-3.5-1.57-3.5-3.5v-5C7.5,10.57,9.07,9,11,9z M12.5,17.5v-5
	c0-0.827-0.673-1.5-1.5-1.5s-1.5,0.673-1.5,1.5v5c0,0.827,0.673,1.5,1.5,1.5S12.5,18.327,12.5,17.5z M19,11
	c-0.827,0-1.5,0.673-1.5,1.5c0,1.111,1.291,1.442,1.686,1.518c2.013,0.381,3.314,1.747,3.314,3.482c0,1.93-1.57,3.5-3.5,3.5
	s-3.5-1.57-3.5-3.5h2c0,0.827,0.673,1.5,1.5,1.5s1.5-0.673,1.5-1.5c0-1.112-1.29-1.443-1.686-1.518
	C16.801,15.602,15.5,14.234,15.5,12.5c0-1.93,1.57-3.5,3.5-3.5s3.5,1.57,3.5,3.5h-2C20.5,11.673,19.827,11,19,11z"/>
</svg>
