<?xml version="1.0" encoding="utf-8"?>
<!DOCTYPE svg PUBLIC "-//W3C//DTD SVG 1.1//EN" "http://www.w3.org/Graphics/SVG/1.1/DTD/svg11.dtd">
<svg version="1.1" id="hard-drive" xmlns="http://www.w3.org/2000/svg" xmlns:xlink="http://www.w3.org/1999/xlink" x="0px" y="0px"
	 width="34px" height="24px" viewBox="0 0 34 24" enable-background="new 0 0 34 24" xml:space="preserve">
<path d="M32,2H2v20h30V2z M0,0h34v24H0V0z M12,15c1.657,0,3-1.344,3-3c0-1.657-1.343-3-3-3c-1.656,0-3,1.343-3,3
	C9,13.656,10.344,15,12,15z M12,4c3.471,0,6.424,2.209,7.532,5.299l4.462,1.785c0.523,0.23,0.836,0.576,0.957,1.027
	c0.214,0.801-0.261,1.623-1.061,1.838c-0.451,0.12-0.909,0.023-1.262-0.229l-2.637-2.076L20,12c0,4.418-3.582,8-8,8s-8-3.582-8-8
	S7.582,4,12,4z M13,12c0,0.553-0.447,1-1,1s-1-0.447-1-1s0.447-1,1-1S13,11.447,13,12z M30,20H18.001
	c1.563-1.174,2.769-2.798,3.431-4.678c0.809,0.576,1.916,0.843,2.977,0.559c1.867-0.5,2.975-2.42,2.475-4.287
	c-0.285-1.062-1.066-1.885-1.975-2.297l-0.17-0.07L22,8.131V4h8V20z"/>
</svg>
