<?xml version="1.0" encoding="utf-8"?>
<!DOCTYPE svg PUBLIC "-//W3C//DTD SVG 1.1//EN" "http://www.w3.org/Graphics/SVG/1.1/DTD/svg11.dtd">
<svg version="1.1" id="txt" xmlns="http://www.w3.org/2000/svg" xmlns:xlink="http://www.w3.org/1999/xlink" x="0px" y="0px"
	 width="30px" height="30px" viewBox="0 0 30 30" enable-background="new 0 0 30 30" xml:space="preserve">
<path d="M18.75,0H0v30h30V11.25L18.75,0z M18,2.078L27.922,12H18V2.078z M11,23H9v5H8v-5H6v-1h5V23z M17.711,28H16.49L15,25.871
	L13.51,28h-1.221l2.101-3l-2.101-3h1.221L15,24.129L16.49,22h1.221l-2.101,3L17.711,28z M24,23h-2v5h-1v-5h-2v-1h5V23z M28,20H2V2
	h14v12h12V20z"/>
</svg>
