<?xml version="1.0" encoding="utf-8"?>
<!-- Generator: Adobe Illustrator 19.1.0, SVG Export Plug-In . SVG Version: 6.00 Build 0)  -->
<svg version="1.1" id="Layer_1" xmlns="http://www.w3.org/2000/svg" xmlns:xlink="http://www.w3.org/1999/xlink" x="0px" y="0px"
	 viewBox="85 -85 320 320" style="enable-background:new 85 -85 320 320;" xml:space="preserve">
<style type="text/css">
	.st0{fill:#B7DCD8;}
	.st1{fill:#5D6D7E;}
	.st2{fill:#F5F7FA;}
	.st3{fill:#E7E7E7;}
	.st4{fill:url(#SVGID_1_);}
	.st5{fill:url(#SVGID_2_);}
	.st6{fill:url(#SVGID_3_);}
	.st7{fill:url(#SVGID_4_);}
	.st8{fill:url(#SVGID_5_);}
	.st9{fill:#9DAEBA;}
	.st10{fill:url(#SVGID_6_);}
	.st11{fill:#F2F2F2;}
	.st12{fill:#E8E8E8;}
	.st13{fill:#34495E;}
	.st14{fill:url(#SVGID_7_);}
	.st15{fill:url(#SVGID_8_);}
	.st16{fill:#966875;}
	.st17{fill:url(#SVGID_9_);}
	.st18{fill:#A57A89;}
	.st19{fill:url(#SVGID_10_);}
</style>
<g id="chunk-3">
	<g>
		<polygon class="st0" points="355.3,44.1 374.9,55.5 394.5,44.1 374.9,32.8 		"/>
		<polygon class="st1" points="374.9,55.5 374.9,78.1 355.3,66.8 355.3,44.1 		"/>
		<polygon class="st2" points="394.5,44.1 394.5,66.8 374.9,78.1 374.9,55.5 		"/>
	</g>
</g>
<g id="cube">
	<polygon class="st3" points="203.2,115.3 183.6,104 183.6,126.7 203.2,138 	"/>
	<polygon class="st3" points="183.6,150.9 203.2,162.3 203.2,139.6 183.6,128.3 	"/>
	<polygon class="st3" points="203.2,91.1 183.6,79.8 183.6,102.4 203.2,113.7 	"/>
	<polygon class="st3" points="162.6,138.8 182.2,150.1 182.2,127.5 162.6,116.1 	"/>
	<polygon class="st3" points="182.2,103.2 162.6,91.9 162.6,114.5 182.2,125.9 	"/>
	
		<linearGradient id="SVGID_1_" gradientUnits="userSpaceOnUse" x1="162.6" y1="65.4" x2="182.2" y2="65.4" gradientTransform="matrix(1 0 0 -1 0 150)">
		<stop  offset="0" style="stop-color:#685A66"/>
		<stop  offset="0.4949" style="stop-color:#715A66"/>
		<stop  offset="1" style="stop-color:#785A66"/>
	</linearGradient>
	<polygon class="st4" points="182.2,78.9 162.6,67.6 162.6,90.3 182.2,101.6 	"/>
	<polygon class="st3" points="161.2,113.7 161.2,91.1 140.9,79.3 140.9,102 	"/>
	<polygon class="st3" points="161.2,66.8 140.9,55.1 140.9,77.7 161.2,89.5 	"/>
	<polygon class="st3" points="204.6,163.1 224.2,174.4 224.2,151.7 204.6,140.4 	"/>
	<polygon class="st3" points="161.2,115.3 140.9,103.6 140.9,126.3 161.2,138 	"/>
	
		<linearGradient id="SVGID_2_" gradientUnits="userSpaceOnUse" x1="204.6204" y1="16.9" x2="224.2204" y2="16.9" gradientTransform="matrix(1 0 0 -1 0 150)">
		<stop  offset="0" style="stop-color:#685A66"/>
		<stop  offset="0.4949" style="stop-color:#715A66"/>
		<stop  offset="1" style="stop-color:#785A66"/>
	</linearGradient>
	<polygon class="st5" points="224.2,127.5 204.6,116.1 204.6,138.8 224.2,150.1 	"/>
	
		<linearGradient id="SVGID_3_" gradientUnits="userSpaceOnUse" x1="204.6204" y1="16.9" x2="224.2204" y2="16.9" gradientTransform="matrix(1 0 0 -1 0 150)">
		<stop  offset="0" style="stop-color:#685A66"/>
		<stop  offset="0.4949" style="stop-color:#715A66"/>
		<stop  offset="1" style="stop-color:#785A66"/>
	</linearGradient>
	<polygon class="st6" points="224.2,127.5 204.6,116.1 204.6,138.8 224.2,150.1 	"/>
	<polygon class="st3" points="161.2,139.6 140.9,127.9 140.9,151.3 161.2,163.1 	"/>
	<polygon class="st3" points="203.2,163.9 183.6,152.5 183.6,176 203.2,187.3 	"/>
	
		<linearGradient id="SVGID_4_" gradientUnits="userSpaceOnUse" x1="162.6" y1="-7.8" x2="182.2" y2="-7.8" gradientTransform="matrix(1 0 0 -1 0 150)">
		<stop  offset="0" style="stop-color:#685A66"/>
		<stop  offset="0.4949" style="stop-color:#715A66"/>
		<stop  offset="1" style="stop-color:#785A66"/>
	</linearGradient>
	<polygon class="st7" points="182.2,175.2 182.2,151.7 162.6,140.4 162.6,163.9 	"/>
	<polygon class="st3" points="224.2,176 204.6,164.7 204.6,188.1 224.2,199.5 	"/>
	<polygon class="st1" points="268.4,5.7 288,17.1 308.3,5.3 288.7,-6 	"/>
	<polygon class="st2" points="329.3,17.5 309.7,6.1 289.4,17.9 309,29.2 	"/>
	
		<linearGradient id="SVGID_5_" gradientUnits="userSpaceOnUse" x1="204.6" y1="156.6" x2="244.5" y2="156.6" gradientTransform="matrix(1 0 0 -1 0 150)">
		<stop  offset="0" style="stop-color:#685A66"/>
		<stop  offset="0.4949" style="stop-color:#715A66"/>
		<stop  offset="1" style="stop-color:#785A66"/>
	</linearGradient>
	<polygon class="st8" points="204.6,-6.8 224.9,4.9 244.5,-6.4 224.2,-18.1 	"/>
	<polygon class="st9" points="307.6,30 288,18.7 268.4,30 288,41.3 	"/>
	<polygon class="st1" points="226.3,5.7 245.9,17.1 265.6,5.7 246,-5.6 	"/>
	<polygon class="st9" points="247.4,-6.4 267,4.9 287.3,-6.8 267.7,-18.1 	"/>
	
		<linearGradient id="SVGID_6_" gradientUnits="userSpaceOnUse" x1="205.3" y1="107.85" x2="244.5" y2="107.85" gradientTransform="matrix(1 0 0 -1 0 150)">
		<stop  offset="0" style="stop-color:#685A66"/>
		<stop  offset="0.4949" style="stop-color:#715A66"/>
		<stop  offset="1" style="stop-color:#785A66"/>
	</linearGradient>
	<polygon class="st10" points="244.5,42.1 224.9,30.8 205.3,42.1 224.9,53.5 	"/>
	<polygon class="st11" points="244.5,17.9 224.9,6.6 205.3,17.9 224.9,29.2 	"/>
	<polygon class="st9" points="286.6,42.1 267,30.8 247.3,42.1 267,53.5 	"/>
	<polygon class="st1" points="184.3,30 203.9,41.3 223.5,30 203.9,18.7 	"/>
	<polygon class="st1" points="265.6,30 245.9,18.7 226.3,30 245.9,41.3 	"/>
	<polygon class="st9" points="203.9,17.1 223.5,5.7 203.2,-6 183.6,5.3 	"/>
	<polygon class="st9" points="286.6,17.9 267,6.6 247.3,17.9 267,29.2 	"/>
	<polygon class="st9" points="246,-7.2 266.3,-18.9 246,-30.7 225.6,-18.9 	"/>
	<g>
		<polygon class="st3" points="161.2,65.2 161.2,41.7 140.9,30 140.9,53.5 		"/>
		<polygon class="st9" points="181.5,30 161.2,18.3 140.9,30 161.2,41.7 		"/>
	</g>
	<g>
		<polygon class="st3" points="182.2,53.9 162.6,42.5 162.6,66 182.2,77.3 		"/>
		<polygon class="st9" points="182.2,53.9 202.5,42.1 182.9,30.8 162.6,42.5 		"/>
	</g>
	<polygon class="st9" points="182.9,29.2 202.5,17.9 182.2,6.1 162.6,17.5 	"/>
	<polygon class="st9" points="308.3,79.8 288.7,91.1 288.7,113.7 308.3,102.4 	"/>
	<polygon class="st12" points="308.3,104 288.7,115.3 288.7,138 308.3,126.6 	"/>
	<polygon class="st9" points="288.7,162.2 308.3,150.9 308.3,128.3 288.7,139.6 	"/>
	<polygon class="st12" points="287.3,116.1 267.7,127.5 267.7,150.1 287.3,138.8 	"/>
	<polygon class="st13" points="330.7,138 351,126.2 351,103.6 330.7,115.3 	"/>
	<polygon class="st9" points="267.7,174.4 287.3,163 287.3,140.4 267.7,151.7 	"/>
	<polygon class="st9" points="329.3,91.9 309.7,103.2 309.7,125.8 329.3,114.5 	"/>
	<g>
		<polygon class="st3" points="246,164.3 225.6,152.5 225.6,175.2 246,186.9 		"/>
		<polygon class="st9" points="266.3,152.5 246,164.3 246,186.9 266.3,175.2 		"/>
	</g>
	<polygon class="st1" points="309.7,150.1 329.3,138.8 329.3,116.1 309.7,127.5 	"/>
	<polygon class="st9" points="329.3,67.6 309.7,79 309.7,101.6 329.3,90.3 	"/>
	<g>
		<polygon class="st9" points="330.7,18.3 310.4,30 330.7,41.7 351,30 		"/>
		<polygon class="st1" points="330.7,65.2 351,53.5 351,30 330.7,41.7 		"/>
	</g>
	<polygon class="st9" points="330.7,113.7 351,102 351,79.3 330.7,91.1 	"/>
	<polygon class="st1" points="330.7,89.5 351,77.7 351,55.1 330.7,66.8 	"/>
	<polygon class="st9" points="330.7,139.6 330.7,163.1 351,151.3 351,127.8 	"/>
	<g>
		<polygon class="st3" points="225.6,176.8 225.6,200.3 246,212 246,188.5 		"/>
		<polygon class="st9" points="266.3,176.8 246,188.5 246,212 266.3,200.3 		"/>
	</g>
	<g>
		<polygon class="st3" points="224.2,103.2 204.6,91.9 204.6,114.5 224.2,125.9 		"/>
	</g>
	<polygon class="st12" points="287.3,188.1 287.3,164.7 267.7,176 267.7,199.5 	"/>
	<g>
		
			<linearGradient id="SVGID_7_" gradientUnits="userSpaceOnUse" x1="289.4" y1="107.65" x2="329.3" y2="107.65" gradientTransform="matrix(1 0 0 -1 0 150)">
			<stop  offset="0" style="stop-color:#685A66"/>
			<stop  offset="0.4949" style="stop-color:#715A66"/>
			<stop  offset="1" style="stop-color:#785A66"/>
		</linearGradient>
		<polygon class="st14" points="309,30.8 289.4,42.1 309.7,53.9 329.3,42.6 		"/>
		<polygon class="st12" points="309.7,53.9 309.7,77.3 329.3,66 329.3,42.6 		"/>
	</g>
	<polygon class="st9" points="329.3,140.4 309.7,151.7 309.7,175.2 329.3,163.9 	"/>
	<polygon class="st9" points="308.3,152.5 288.7,163.8 288.7,187.3 308.3,176 	"/>
	<g>
		<polygon class="st13" points="287.3,91.9 267.7,103.2 267.7,125.8 287.3,114.5 		"/>
	</g>
	<g>
		<polygon class="st9" points="288,42.9 268.4,54.3 288.7,66 308.3,54.7 		"/>
		<polygon class="st9" points="308.3,54.7 288.7,66 288.7,89.5 308.3,78.1 		"/>
	</g>
	<g>
		<polygon class="st3" points="225.6,104 225.6,126.7 246,138.4 246,115.8 		"/>
		<polygon class="st9" points="266.3,104 246,115.7 246,138.4 266.3,126.7 		"/>
	</g>
	<g>
		<polygon class="st3" points="225.6,128.3 225.6,150.9 246,162.7 246,140 		"/>
		<polygon class="st1" points="266.3,128.3 246,140 246,162.6 266.3,150.9 		"/>
	</g>
	<polygon class="st1" points="265.5,54.3 245.9,42.9 226.3,54.3 245.9,65.6 	"/>
	<g>
		<polygon class="st3" points="203.2,66 183.6,54.7 183.6,78.1 203.2,89.5 		"/>
		<polygon class="st9" points="223.5,54.3 203.9,42.9 183.6,54.7 203.2,66 		"/>
	</g>
	<g>
		<polygon class="st9" points="287.3,66.8 267,55.1 247.3,66.4 267.7,78.1 		"/>
		<polygon class="st9" points="287.3,66.8 267.7,78.1 267.7,101.6 287.3,90.3 		"/>
	</g>
	<g>
		<polygon class="st2" points="204.6,66.8 204.6,90.3 224.2,101.6 224.2,78.1 		"/>
		<polygon class="st9" points="244.5,66.4 224.9,55.1 204.6,66.8 224.2,78.1 		"/>
	</g>
	<g>
		<polygon class="st3" points="225.6,102.4 246,114.1 246,90.7 225.6,78.9 		"/>
		<polygon class="st9" points="245.9,67.2 225.6,78.9 246,90.7 266.3,79 		"/>
		
			<linearGradient id="SVGID_8_" gradientUnits="userSpaceOnUse" x1="256.15" y1="71.0539" x2="256.15" y2="35.8539" gradientTransform="matrix(1 0 0 -1 0 150)">
			<stop  offset="0" style="stop-color:#685A66"/>
			<stop  offset="0.4949" style="stop-color:#715A66"/>
			<stop  offset="1" style="stop-color:#785A66"/>
		</linearGradient>
		<polygon class="st15" points="266.3,102.4 266.3,78.9 246,90.7 246,114.1 		"/>
	</g>
</g>
<g id="chunk-1">
	<g>
		<polygon class="st0" points="205,-70.8 224.6,-59.4 244.2,-70.8 224.6,-82.1 		"/>
		<polygon class="st1" points="224.3,-59.4 224.3,-36.8 204.6,-48.1 204.6,-70.8 		"/>
		<polygon class="st2" points="243.9,-70.8 243.9,-48.1 224.3,-36.8 224.3,-59.4 		"/>
	</g>
</g>
<g id="chunk-2">
	<g>
		<polygon class="st0" points="289.4,-37.2 309,-25.9 328.6,-37.2 309,-48.5 		"/>
		<polygon class="st1" points="309,-25.9 309,-3.2 289.4,-14.5 289.4,-37.2 		"/>
		<polygon class="st2" points="328.6,-37.2 328.6,-14.5 309,-3.2 309,-25.9 		"/>
	</g>
</g>
<g id="chunk-4">
	<g>
		<polygon class="st16" points="366.1,150.7 385.7,162 405.3,150.7 385.7,139.3 		"/>
		
			<linearGradient id="SVGID_9_" gradientUnits="userSpaceOnUse" x1="366.0514" y1="-17.7" x2="385.6855" y2="-17.7" gradientTransform="matrix(1 0 0 -1 0 150)">
			<stop  offset="0" style="stop-color:#685A66"/>
			<stop  offset="0.4949" style="stop-color:#715A66"/>
			<stop  offset="1" style="stop-color:#785A66"/>
		</linearGradient>
		<polygon class="st17" points="385.7,162 385.7,184.7 366.1,173.3 366.1,150.7 		"/>
		<polygon class="st18" points="405.3,150.7 405.3,173.3 385.7,184.7 385.7,162 		"/>
	</g>
</g>
<g id="chunk-5">
	<g>
		<polygon class="st0" points="278.2,113.8 297.9,125.1 317.5,113.8 297.9,102.4 		"/>
		<polygon class="st1" points="297.9,125.1 297.9,147.8 278.2,136.4 278.2,113.8 		"/>
		<polygon class="st2" points="317.5,113.8 317.5,136.4 297.9,147.8 297.9,125.1 		"/>
	</g>
</g>
<g id="chunk-7">
	<g>
		<polygon class="st0" points="137.6,157.1 157.2,168.5 176.8,157.1 157.2,145.8 		"/>
		<polygon class="st1" points="157.2,168.5 157.2,191.1 137.6,179.8 137.6,157.1 		"/>
		<polygon class="st2" points="176.8,157.1 176.8,179.8 157.2,191.1 157.2,168.5 		"/>
	</g>
</g>
<g id="chunk-6">
	<g>
		<polygon class="st0" points="114.4,198.1 134,209.4 153.6,198.1 134,186.8 		"/>
		<polygon class="st1" points="134,209.4 134,232.1 114.4,220.8 114.4,198.1 		"/>
		<polygon class="st2" points="153.6,198.1 153.6,220.8 134,232.1 134,209.4 		"/>
	</g>
</g>
<g id="chunk-8">
	<g>
		<polygon class="st0" points="110.8,111.1 130.4,122.5 150,111.1 130.4,99.8 		"/>
		<polygon class="st1" points="130.4,122.5 130.4,145.1 110.8,133.8 110.8,111.1 		"/>
		<polygon class="st2" points="150,111.1 150,133.8 130.4,145.1 130.4,122.5 		"/>
	</g>
</g>
<g id="chunk-9">
	<g>
		<polygon class="st16" points="84.7,7.2 104.3,18.5 123.9,7.2 104.3,-4.2 		"/>
		
			<linearGradient id="SVGID_10_" gradientUnits="userSpaceOnUse" x1="84.7" y1="125.8" x2="104.327" y2="125.8" gradientTransform="matrix(1 0 0 -1 0 150)">
			<stop  offset="0" style="stop-color:#685A66"/>
			<stop  offset="0.4949" style="stop-color:#715A66"/>
			<stop  offset="1" style="stop-color:#785A66"/>
		</linearGradient>
		<polygon class="st19" points="104.3,18.5 104.3,41.2 84.7,29.8 84.7,7.2 		"/>
		<polygon class="st18" points="123.9,7.2 123.9,29.8 104.3,41.2 104.3,18.5 		"/>
	</g>
</g>
<g id="chunk-10">
	<g>
		<polygon class="st0" points="205.3,8.1 224.9,19.5 244.6,8.1 224.9,-3.2 		"/>
		<polygon class="st1" points="224.9,19.5 224.9,42.1 205.3,30.8 205.3,8.1 		"/>
		<polygon class="st2" points="244.6,8.1 244.6,30.8 224.9,42.1 224.9,19.5 		"/>
	</g>
</g>
</svg>
