<?xml version="1.0" encoding="utf-8"?>
<!DOCTYPE svg PUBLIC "-//W3C//DTD SVG 1.1//EN" "http://www.w3.org/Graphics/SVG/1.1/DTD/svg11.dtd">
<svg version="1.1" id="api-services-connection" xmlns="http://www.w3.org/2000/svg" xmlns:xlink="http://www.w3.org/1999/xlink" x="0px" y="0px"
	 width="35px" height="35px" viewBox="0 0 35 35" enable-background="new 0 0 35 35" xml:space="preserve">
<path d="M23.5,14c0.276,0,0.5-0.225,0.5-0.5c0-0.277-0.224-0.5-0.5-0.5S23,13.223,23,13.5C23,13.775,23.224,14,23.5,14z M23.5,22
	c0.276,0,0.5-0.225,0.5-0.5c0-0.277-0.224-0.5-0.5-0.5S23,21.223,23,21.5C23,21.775,23.224,22,23.5,22z M15.5,17
	c-0.276,0-0.5,0.223-0.5,0.5c0,0.275,0.224,0.5,0.5,0.5s0.5-0.225,0.5-0.5C16,17.223,15.776,17,15.5,17z M11.5,13
	c-0.276,0-0.5,0.223-0.5,0.5c0,0.275,0.224,0.5,0.5,0.5s0.5-0.225,0.5-0.5C12,13.223,11.776,13,11.5,13z M11.5,21
	c-0.276,0-0.5,0.223-0.5,0.5c0,0.275,0.224,0.5,0.5,0.5s0.5-0.225,0.5-0.5C12,21.223,11.776,21,11.5,21z M2,10v3h8.085
	c0.206-0.582,0.762-1,1.415-1c0.828,0,1.5,0.672,1.5,1.5S12.328,15,11.5,15c-0.653,0-1.209-0.418-1.415-1H2v3h12.085
	c0.206-0.582,0.762-1,1.415-1c0.828,0,1.5,0.672,1.5,1.5S16.328,19,15.5,19c-0.653,0-1.209-0.418-1.415-1H2v3h8.085
	c0.206-0.582,0.762-1,1.415-1c0.828,0,1.5,0.672,1.5,1.5S12.328,23,11.5,23c-0.653,0-1.209-0.418-1.415-1H2v3h9v3.758L21.807,17.5
	L11,6.242V10H2z M0,0h35v35H0V0z M33,10h-9V6.242l-5.807,6.049L22.713,17H33v-3h-8.085c-0.206,0.582-0.762,1-1.415,1
	c-0.828,0-1.5-0.672-1.5-1.5s0.672-1.5,1.5-1.5c0.653,0,1.209,0.418,1.415,1H33V10z M17.5,11.57L23.807,5H25v4h8V2H2v7h8V5h1.193
	L17.5,11.57z M33,26h-8v4h-1.193L17.5,23.43L11.193,30H10v-4H2v7h31V26z M24,28.758V25h9v-3h-8.085c-0.206,0.582-0.762,1-1.415,1
	c-0.828,0-1.5-0.672-1.5-1.5s0.672-1.5,1.5-1.5c0.653,0,1.209,0.418,1.415,1H33v-3H22.713l-4.52,4.709L24,28.758z"/>
</svg>
