<?xml version="1.0" encoding="utf-8"?>
<!DOCTYPE svg PUBLIC "-//W3C//DTD SVG 1.1//EN" "http://www.w3.org/Graphics/SVG/1.1/DTD/svg11.dtd">
<svg version="1.1" id="architecture-design" xmlns="http://www.w3.org/2000/svg" xmlns:xlink="http://www.w3.org/1999/xlink" x="0px" y="0px"
	 width="38.879px" height="38.369px" viewBox="0 0 38.879 38.369" enable-background="new 0 0 38.879 38.369" xml:space="preserve">
<path d="M27.293,20.879l10.586,10.586l-6.414,6.414L20.879,27.293l1.414-1.414l9.172,9.172l3.586-3.586l-9.172-9.172L27.293,20.879z
	 M11.458,2.986l1.229-1.229c2.343-2.344,6.143-2.344,8.485,0l0.707,0.707l-6.5,6.5l3.672,3.672l-1.414,1.414l-3.672-3.672
	l-3.586,3.586l3.672,3.672l-1.414,1.414l-3.672-3.672l-6.5,6.5l-0.707-0.707c-2.344-2.343-2.344-6.142,0-8.484l1.229-1.229
	c-0.945-1.06-1.521-2.46-1.521-3.993c0-3.313,2.686-6,6-6C8.998,1.465,10.398,2.041,11.458,2.986z M18.961,2.554
	c-1.533-0.905-3.542-0.7-4.861,0.618l-2.563,2.564l-1.409-1.258C9.418,3.848,8.488,3.465,7.465,3.465c-2.209,0-4,1.791-4,4
	c0,1.023,0.383,1.953,1.014,2.662l1.258,1.409l-2.564,2.565c-1.318,1.317-1.524,3.326-0.618,4.86L18.961,2.554z M33.465,1.051
	l5.414,5.414L11.035,34.309l-9.475,4.061l4.061-9.475L33.465,1.051z M30.879,6.465l2.586,2.586l2.586-2.586l-2.586-2.586
	L30.879,6.465z M27.879,9.465l2.586,2.586l1.586-1.586l-2.586-2.586L27.879,9.465z M8.691,28.652l2.586,2.586l17.773-17.773
	l-2.586-2.586L8.691,28.652z M9.85,32.641l-2.561-2.562l-1.92,4.481L9.85,32.641z"/>
</svg>
