<?xml version="1.0" encoding="utf-8"?>
<!DOCTYPE svg PUBLIC "-//W3C//DTD SVG 1.1//EN" "http://www.w3.org/Graphics/SVG/1.1/DTD/svg11.dtd">
<svg version="1.1" id="building-2" xmlns="http://www.w3.org/2000/svg" xmlns:xlink="http://www.w3.org/1999/xlink" x="0px" y="0px"
	 width="67px" height="41px" viewBox="0 0 67 41" enable-background="new 0 0 67 41" xml:space="preserve">
<path d="M49,39v-9h-4v9H49z M44,29h6v10h12V6H5v33h39V29z M57,4V2H37v2H57z M59,0v4h5v35h3v2H0v-2h3V4h32V0H59z M53,11.125h6v6h-6
	V11.125z M58,12.125h-4v4h4V12.125z M13,21.125H9v4h4V21.125z M8,20.125h6v6H8V20.125z M13,30.125H9v4h4V30.125z M8,29.125h6v6H8
	V29.125z M22,21.125h-4v4h4V21.125z M17,20.125h6v6h-6V20.125z M22,30.125h-4v4h4V30.125z M17,29.125h6v6h-6V29.125z M31,21.125h-4
	v4h4V21.125z M26,20.125h6v6h-6V20.125z M31,30.125h-4v4h4V30.125z M26,29.125h6v6h-6V29.125z M40,21.125h-4v4h4V21.125z M35,20.125
	h6v6h-6V20.125z M40,30.125h-4v4h4V30.125z M35,29.125h6v6h-6V29.125z M49,21.125h-4v4h4V21.125z M44,20.125h6v6h-6V20.125z
	 M58,21.125h-4v4h4V21.125z M53,20.125h6v6h-6V20.125z M58,30.125h-4v4h4V30.125z M53,29.125h6v6h-6V29.125z M13,12.125H9v4h4
	V12.125z M8,11.125h6v6H8V11.125z M22,12.125h-4v4h4V12.125z M17,11.125h6v6h-6V11.125z M31,12.125h-4v4h4V12.125z M26,11.125h6v6
	h-6V11.125z M40,12.125h-4v4h4V12.125z M35,11.125h6v6h-6V11.125z M49,12.125h-4v4h4V12.125z M44,11.125h6v6h-6V11.125z"/>
</svg>
