<?xml version="1.0" encoding="utf-8"?>
<!DOCTYPE svg PUBLIC "-//W3C//DTD SVG 1.1//EN" "http://www.w3.org/Graphics/SVG/1.1/DTD/svg11.dtd">
<svg version="1.1" id="building-1" xmlns="http://www.w3.org/2000/svg" xmlns:xlink="http://www.w3.org/1999/xlink" x="0px" y="0px"
	 width="67px" height="50px" viewBox="0 0 67 50" enable-background="new 0 0 67 50" xml:space="preserve">
<path d="M35,4V2H24v2H35z M62,48V25H51v23H62z M16,16H5v32h11V16z M3,14h13V4h6V0h15v4h14v19h13v25h3v2H0v-2h3V14z M36,48v-9h-4v9
	H36z M31,38h6v10h12V6H18v42h13V38z M8,20.125h5v6H8V20.125z M12,21.125H9v4h3V21.125z M12,39.125H9v4h3V39.125z M8,38.125h5v6H8
	V38.125z M12,30.125H9v4h3V30.125z M8,29.125h5v6H8V29.125z M58,39.125h-3v4h3V39.125z M54,38.125h5v6h-5V38.125z M58,30.125h-3v4h3
	V30.125z M54,29.125h5v6h-5V29.125z M27,21.125h-4v4h4V21.125z M22,20.125h6v6h-6V20.125z M36,21.125h-4v4h4V21.125z M31,20.125h6v6
	h-6V20.125z M45,21.125h-4v4h4V21.125z M40,20.125h6v6h-6V20.125z M27,30.125h-4v4h4V30.125z M22,29.125h6v6h-6V29.125z M36,30.125
	h-4v4h4V30.125z M31,29.125h6v6h-6V29.125z M45,30.125h-4v4h4V30.125z M40,29.125h6v6h-6V29.125z M27,39.125h-4v4h4V39.125z
	 M22,38.125h6v6h-6V38.125z M45,39.125h-4v4h4V39.125z M40,38.125h6v6h-6V38.125z M27,12.125h-4v4h4V12.125z M22,11.125h6v6h-6
	V11.125z M36,12.125h-4v4h4V12.125z M31,11.125h6v6h-6V11.125z M45,12.125h-4v4h4V12.125z M40,11.125h6v6h-6V11.125z"/>
</svg>
