<?xml version="1.0" encoding="utf-8"?>
<!DOCTYPE svg PUBLIC "-//W3C//DTD SVG 1.1//EN" "http://www.w3.org/Graphics/SVG/1.1/DTD/svg11.dtd">
<svg version="1.1" id="calendar-small" xmlns="http://www.w3.org/2000/svg" xmlns:xlink="http://www.w3.org/1999/xlink" x="0px" y="0px"
	 width="31px" height="27px" viewBox="0 0 31 27" enable-background="new 0 0 31 27" xml:space="preserve">
<path d="M31,0v27H0V0H31z M2,9h27V2H2V9z M26,22v3h-1v-3h-3v3h-1v-3h-3v3h-1v-3h-3v3h-1v-3h-3v3H9v-3H6v3H5v-3H2v3h27v-3H26z M26,13
	h3v-3h-3V13z M22,13h3v-3h-3V13z M18,13h3v-3h-3V13z M14,13h3v-3h-3V13z M10,13h3v-3h-3V13z M6,13h3v-3H6V13z M2,13h3v-3H2V13z
	 M5,18H2v3h3V18z M9,18H6v3h3V18z M13,18h-3v3h3V18z M17,18h-3v3h3V18z M21,18h-3v3h3V18z M25,18h-3v3h3V18z M29,18h-3v3h3V18z
	 M26,17h3v-3h-3V17z M22,17h3v-3h-3V17z M18,17h3v-3h-3V17z M14,17h3v-3h-3V17z M10,17h3v-3h-3V17z M6,17h3v-3H6V17z M2,17h3v-3H2
	V17z"/>
</svg>
