<?xml version="1.0" encoding="utf-8"?>
<!DOCTYPE svg PUBLIC "-//W3C//DTD SVG 1.1//EN" "http://www.w3.org/Graphics/SVG/1.1/DTD/svg11.dtd">
<svg version="1.1" id="check" xmlns="http://www.w3.org/2000/svg" xmlns:xlink="http://www.w3.org/1999/xlink" x="0px" y="0px"
	 width="32px" height="32px" viewBox="0 0 32 32" enable-background="new 0 0 32 32" xml:space="preserve">
<path d="M16,2C8.268,2,2,8.268,2,16s6.268,14,14,14s14-6.268,14-14S23.732,2,16,2z M32,16c0,8.836-7.163,16-16,16S0,24.836,0,16
	C0,7.162,7.163,0,16,0S32,7.162,32,16z M12.699,15.561l1.592,1.723c0.156,0.215,0.18,0.732,0.18,1.049h0.191
	c0-0.33,0.006-0.857,0.226-1.16l5.176-7.127c0.761-1.049,2.227-1.281,3.274-0.52c1.047,0.762,1.279,2.227,0.518,3.273l-7.163,9.861
	c-0.093,0.127-0.195,0.24-0.306,0.342c-0.805,0.746-2.048,0.846-2.969,0.176c-0.126-0.09-0.241-0.195-0.344-0.305l-3.818-4.131
	c-0.879-0.951-0.82-2.434,0.131-3.312C10.337,14.551,11.82,14.609,12.699,15.561z"/>
</svg>
