<?xml version="1.0" encoding="utf-8"?>
<!DOCTYPE svg PUBLIC "-//W3C//DTD SVG 1.1//EN" "http://www.w3.org/Graphics/SVG/1.1/DTD/svg11.dtd">
<svg version="1.1" id="cloud-load-balancers" xmlns="http://www.w3.org/2000/svg" xmlns:xlink="http://www.w3.org/1999/xlink" x="0px" y="0px"
	 width="50px" height="39px" viewBox="0 0 50 39" enable-background="new 0 0 50 39" xml:space="preserve">
<path d="M40.236,21.473c-0.397,0-0.789,0.029-1.17,0.088c1.044-1.268,1.671-2.891,1.671-4.658c0-4.047-3.28-7.328-7.327-7.328
	c-2.203,0-4.18,0.973-5.523,2.514C27.646,6.475,23.021,2,17.351,2C11.525,2,6.804,6.721,6.804,12.547
	c0,2.586,0.932,4.957,2.478,6.791C5.139,20.102,2,23.732,2,28.096C2,33.014,5.986,37,10.904,37h29.332
	C44.524,37,48,33.523,48,29.236C48,24.947,44.524,21.473,40.236,21.473z M10.904,39C4.882,39,0,34.117,0,28.096
	c0-4.33,2.523-8.07,6.18-9.83c-0.88-1.715-1.376-3.66-1.376-5.719C4.804,5.617,10.421,0,17.351,0c5.533,0,10.229,3.582,11.897,8.553
	c1.253-0.627,2.666-0.979,4.162-0.979c5.151,0,9.327,4.176,9.327,9.328c0,0.973-0.148,1.91-0.425,2.791
	C46.707,20.645,50,24.557,50,29.236C50,34.629,45.629,39,40.236,39H10.904z M24.004,27.963v2.6c0.86,0.225,1.496,1.006,1.496,1.938
	c0,1.104-0.896,2-2,2s-2-0.896-2-2c0-0.934,0.639-1.717,1.504-1.938v-2.598C21.306,27.723,20,26.264,20,24.5
	c0-0.459,0.088-0.898,0.249-1.299l-4.347-2.51c-0.438,0.869-0.711,1.781-0.832,2.699l-2.396-5.137l5.646-0.492
	c-0.733,0.562-1.385,1.254-1.918,2.064l4.347,2.51c0.544-0.691,1.343-1.172,2.255-1.301v-5.021
	c-0.971,0.057-1.898,0.275-2.755,0.629L23.5,12l3.25,4.643c-0.854-0.354-1.778-0.572-2.746-0.629v5.021
	c0.909,0.131,1.706,0.613,2.249,1.303l4.352-2.512c-0.532-0.811-1.185-1.502-1.918-2.064l5.646,0.492l-2.396,5.137
	c-0.121-0.918-0.396-1.83-0.832-2.699l-4.354,2.514C26.912,23.605,27,24.041,27,24.5C27,26.262,25.698,27.719,24.004,27.963z
	 M23.5,27c1.381,0,2.5-1.119,2.5-2.5S24.881,22,23.5,22S21,23.119,21,24.5S22.119,27,23.5,27z"/>
</svg>
