<?xml version="1.0" encoding="utf-8"?>
<!-- Generator: Adobe Illustrator 16.0.4, SVG Export Plug-In . SVG Version: 6.00 Build 0)  -->
<!DOCTYPE svg PUBLIC "-//W3C//DTD SVG 1.1//EN" "http://www.w3.org/Graphics/SVG/1.1/DTD/svg11.dtd">
<svg version="1.1" id="cloud-servers" xmlns="http://www.w3.org/2000/svg" xmlns:xlink="http://www.w3.org/1999/xlink" x="0px" y="0px"
	 width="50px" height="39px" viewBox="0 0 50 39" enable-background="new 0 0 50 39" xml:space="preserve">
<path d="M10.904,39C4.883,39,0,34.117,0,28.096c0-4.33,2.523-8.07,6.18-9.83c-0.879-1.715-1.375-3.66-1.375-5.719
	C4.805,5.617,10.422,0,17.35,0c5.533,0,10.23,3.582,11.898,8.553c1.254-0.627,2.666-0.979,4.162-0.979
	c5.152,0,9.328,4.176,9.328,9.328c0,0.973-0.15,1.91-0.426,2.791C46.707,20.645,50,24.557,50,29.236C50,34.629,45.629,39,40.236,39
	H10.904z M40.236,21.473c-0.398,0-0.789,0.029-1.17,0.088c1.045-1.268,1.672-2.891,1.672-4.658c0-4.047-3.281-7.328-7.328-7.328
	c-2.203,0-4.18,0.973-5.523,2.514C27.646,6.475,23.021,2,17.35,2C11.525,2,6.805,6.721,6.805,12.547
	c0,2.586,0.932,4.957,2.477,6.791C5.139,20.102,2,23.732,2,28.096C2,33.014,5.986,37,10.904,37h29.332
	C44.523,37,48,33.523,48,29.236C48,24.947,44.523,21.473,40.236,21.473z M33,17H15v5h18V17z M14,16h20v7H14V16z M28,19.5
	c0-0.828,0.672-1.5,1.5-1.5s1.5,0.672,1.5,1.5S30.328,21,29.5,21S28,20.328,28,19.5z M33,26H15v5h18V26z M14,25h20v7H14V25z
	 M28,28.5c0-0.828,0.672-1.5,1.5-1.5s1.5,0.672,1.5,1.5S30.328,30,29.5,30S28,29.328,28,28.5z"/>
</svg>
