<?xml version="1.0" encoding="utf-8"?>
<!DOCTYPE svg PUBLIC "-//W3C//DTD SVG 1.1//EN" "http://www.w3.org/Graphics/SVG/1.1/DTD/svg11.dtd">
<svg version="1.1" id="cloud-orchestration" xmlns="http://www.w3.org/2000/svg" xmlns:xlink="http://www.w3.org/1999/xlink" x="0px" y="0px"
	 width="50px" height="39px" viewBox="0 0 50 39" enable-background="new 0 0 50 39" xml:space="preserve">
<path d="M40.236,21.473c-0.398,0-0.789,0.029-1.17,0.088c1.045-1.268,1.672-2.891,1.672-4.658c0-4.047-3.281-7.328-7.328-7.328
	c-2.203,0-4.18,0.973-5.523,2.514C27.646,6.475,23.021,2,17.35,2C11.525,2,6.805,6.721,6.805,12.547
	c0,2.586,0.932,4.957,2.477,6.791C5.139,20.102,2,23.732,2,28.096C2,33.014,5.986,37,10.904,37h29.332
	C44.523,37,48,33.523,48,29.236C48,24.947,44.523,21.473,40.236,21.473z M10.904,39C4.883,39,0,34.117,0,28.096
	c0-4.33,2.523-8.07,6.18-9.83c-0.879-1.715-1.375-3.66-1.375-5.719C4.805,5.617,10.422,0,17.35,0c5.533,0,10.23,3.582,11.898,8.553
	c1.254-0.627,2.666-0.979,4.162-0.979c5.152,0,9.328,4.176,9.328,9.328c0,0.973-0.15,1.91-0.426,2.791
	C46.707,20.645,50,24.557,50,29.236C50,34.629,45.629,39,40.236,39H10.904z M15.486,23.816L19.5,21.5l-2.281-1.318
	c-2.869-1.656-3.854-5.326-2.197-8.195c1.658-2.869,5.328-3.854,8.197-2.195l-0.5,0.865c-2.393-1.381-5.449-0.562-6.83,1.83
	c-1.381,2.391-0.562,5.449,1.83,6.83L20,20.633V16h1v5.789l-5.014,2.895L15.486,23.816z M25,20.633l2.281-1.316
	c2.869-1.656,6.539-0.674,8.197,2.197c1.656,2.869,0.672,6.539-2.197,8.195l-0.5-0.865c2.393-1.381,3.211-4.439,1.83-6.83
	c-1.381-2.393-4.438-3.211-6.83-1.832L25.5,21.5l4.014,2.316l-0.5,0.867L24,21.789V16h1V20.633z M23,25.365V28c0,3.312-2.686,6-6,6
	c-3.312,0-6-2.688-6-6h1c0,2.762,2.238,5,5,5s5-2.238,5-5v-2.635l-4.014,2.316l-0.5-0.865l5.014-2.895l5.014,2.895l-0.5,0.865
	L23,25.365z"/>
</svg>
