<?xml version="1.0" encoding="utf-8"?>
<!DOCTYPE svg PUBLIC "-//W3C//DTD SVG 1.1//EN" "http://www.w3.org/Graphics/SVG/1.1/DTD/svg11.dtd">
<svg version="1.1" id="cloud-feeds" xmlns="http://www.w3.org/2000/svg" xmlns:xlink="http://www.w3.org/1999/xlink" x="0px" y="0px"
	 width="50px" height="39px" viewBox="0 0 50 39" enable-background="new 0 0 50 39" xml:space="preserve">
<path d="M40.236,21.473c-0.398,0-0.789,0.029-1.171,0.088c1.044-1.267,1.671-2.89,1.671-4.658c0-4.047-3.279-7.328-7.326-7.328
	c-2.204,0-4.181,0.974-5.523,2.514C27.646,6.476,23.021,2,17.35,2C11.525,2,6.803,6.722,6.803,12.547
	c0,2.587,0.932,4.957,2.479,6.791C5.139,20.102,2,23.732,2,28.096C2,33.014,5.986,37,10.904,37h29.332
	C44.523,37,48,33.523,48,29.236C48,24.948,44.523,21.473,40.236,21.473z M10.904,39C4.881,39,0,34.117,0,28.096
	c0-4.33,2.523-8.07,6.18-9.83c-0.88-1.715-1.377-3.659-1.377-5.719C4.803,5.617,10.42,0,17.35,0c5.533,0,10.23,3.582,11.898,8.553
	c1.252-0.626,2.666-0.979,4.162-0.979c5.15,0,9.326,4.176,9.326,9.328c0,0.973-0.148,1.91-0.424,2.791
	C46.707,20.646,50,24.557,50,29.236C50,34.629,45.628,39,40.236,39H10.904z M17.5,26c-1.105,0-2-0.896-2-2c0-1.105,0.895-2,2-2
	c1.104,0,2,0.895,2,2C19.5,25.104,18.604,26,17.5,26z M19.741,27.902C21.091,27.126,22,25.669,22,24c0-1.67-0.909-3.127-2.259-3.903
	l0.907-0.606C22.07,20.484,23,22.133,23,24c0,1.866-0.93,3.516-2.352,4.51L19.741,27.902z M22.518,29.758
	C24.588,28.671,26,26.5,26,24c0-2.501-1.412-4.672-3.482-5.758l0.929-0.621C25.579,18.943,27,21.306,27,24
	c0,2.693-1.421,5.057-3.554,6.379L22.518,29.758z M25.289,31.61C28.082,30.217,30,27.332,30,24c0-3.333-1.918-6.217-4.711-7.61
	l0.942-0.63C29.081,17.4,31,20.476,31,24c0,3.523-1.919,6.6-4.77,8.24L25.289,31.61z"/>
</svg>
