<?xml version="1.0" encoding="utf-8"?>
<!DOCTYPE svg PUBLIC "-//W3C//DTD SVG 1.1//EN" "http://www.w3.org/Graphics/SVG/1.1/DTD/svg11.dtd">
<svg version="1.1" id="cloud-registry" xmlns="http://www.w3.org/2000/svg" xmlns:xlink="http://www.w3.org/1999/xlink" x="0px" y="0px"
	 width="50px" height="39px" viewBox="0 0 50 39" enable-background="new 0 0 50 39" xml:space="preserve">
<path d="M10.904,39C4.883,39,0,34.117,0,28.096c0-4.33,2.523-8.07,6.18-9.83c-0.879-1.715-1.375-3.66-1.375-5.719
	C4.805,5.617,10.422,0,17.35,0c5.533,0,10.23,3.582,11.898,8.553c1.254-0.627,2.666-0.979,4.162-0.979
	c5.152,0,9.328,4.176,9.328,9.328c0,0.973-0.15,1.91-0.426,2.791C46.707,20.645,50,24.557,50,29.236C50,34.629,45.629,39,40.236,39
	H10.904z M40.236,21.473c-0.398,0-0.789,0.029-1.17,0.088c1.045-1.268,1.672-2.891,1.672-4.658c0-4.047-3.281-7.328-7.328-7.328
	c-2.203,0-4.18,0.973-5.523,2.514C27.646,6.475,23.021,2,17.35,2C11.525,2,6.805,6.721,6.805,12.547
	c0,2.586,0.932,4.957,2.477,6.791C5.139,20.102,2,23.732,2,28.096C2,33.014,5.986,37,10.904,37h29.332
	C44.523,37,48,33.523,48,29.236C48,24.947,44.523,21.473,40.236,21.473z M35,17c0-1.105-0.895-2-2-2s-2,0.895-2,2
	c0,1.104,0.895,2,2,2S35,18.104,35,17z M20,26c0,2.209,1.791,4,4,4s4-1.791,4-4s-1.791-4-4-4S20,23.791,20,26z M20,13
	c0-1.105-0.895-2-2-2s-2,0.895-2,2c0,1.104,0.895,2,2,2S20,14.104,20,13z M13,28c0-1.105-0.895-2-2-2s-2,0.895-2,2
	c0,1.104,0.895,2,2,2S13,29.104,13,28z M42,29c0-1.105-0.895-2-2-2s-2,0.895-2,2c0,1.104,0.895,2,2,2S42,30.104,42,29z M37,28.945
	l-8.201-1.537C28.191,29.484,26.271,31,24,31c-2.33,0-4.287-1.594-4.842-3.75L14,28.043C13.977,29.68,12.643,31,11,31
	c-1.656,0-3-1.344-3-3c0-1.658,1.344-3,3-3c1.326,0,2.453,0.861,2.848,2.055l5.158-0.793L19,26c0-1.836,0.988-3.439,2.461-4.309
	l-2.676-5.797C18.535,15.963,18.271,16,18,16c-1.656,0-3-1.344-3-3c0-1.658,1.344-3,3-3s3,1.342,3,3
	c0,1.027-0.518,1.936-1.307,2.477l2.676,5.795C22.879,21.096,23.428,21,24,21c1.201,0,2.303,0.422,3.164,1.129l3.391-3.391
	C30.205,18.248,30,17.646,30,17c0-1.658,1.344-3,3-3s3,1.342,3,3c0,1.656-1.344,3-3,3c-0.648,0-1.248-0.207-1.738-0.555
	l-3.391,3.391C28.576,23.697,29,24.799,29,26c0,0.143-0.006,0.285-0.018,0.426l8.201,1.537C37.605,26.816,38.707,26,40,26
	c1.656,0,3,1.342,3,3c0,1.656-1.344,3-3,3s-3-1.344-3-3V28.945z"/>
</svg>
