<?xml version="1.0" encoding="utf-8"?>
<!DOCTYPE svg PUBLIC "-//W3C//DTD SVG 1.1//EN" "http://www.w3.org/Graphics/SVG/1.1/DTD/svg11.dtd">
<svg version="1.1" id="cloud-monitoring" xmlns="http://www.w3.org/2000/svg" xmlns:xlink="http://www.w3.org/1999/xlink" x="0px" y="0px"
	 width="50px" height="39px" viewBox="0 0 50 39" enable-background="new 0 0 50 39" xml:space="preserve">
<path d="M40.236,21.473c-0.397,0-0.789,0.029-1.17,0.088c1.044-1.268,1.671-2.891,1.671-4.658c0-4.047-3.28-7.328-7.327-7.328
	c-2.203,0-4.18,0.973-5.523,2.514C27.646,6.475,23.021,2,17.351,2C11.525,2,6.804,6.721,6.804,12.547
	c0,2.586,0.932,4.957,2.478,6.791C5.139,20.102,2,23.732,2,28.096C2,33.014,5.986,37,10.904,37h29.332
	C44.524,37,48,33.523,48,29.236C48,24.947,44.524,21.473,40.236,21.473z M10.904,39C4.882,39,0,34.117,0,28.096
	c0-4.33,2.523-8.07,6.18-9.83c-0.88-1.715-1.376-3.66-1.376-5.719C4.804,5.617,10.421,0,17.351,0c5.533,0,10.229,3.582,11.897,8.553
	c1.253-0.627,2.666-0.979,4.162-0.979c5.151,0,9.327,4.176,9.327,9.328c0,0.973-0.148,1.91-0.425,2.791
	C46.707,20.645,50,24.557,50,29.236C50,34.629,45.629,39,40.236,39H10.904z M14.016,23.996c0-5.523,4.477-10,10-10
	c5.522,0,10,4.477,10,10c0,5.521-4.478,10-10,10C18.492,33.996,14.016,29.518,14.016,23.996z M32.961,22.996h-3.896L27.764,27
	h-1.051l-2.398-7.383L21.266,29h-1.052l-1.301-4.004H15.07c0.498,4.5,4.312,8,8.945,8c4.971,0,9-4.029,9-9
	C33.016,23.658,32.997,23.324,32.961,22.996z M24.84,18l2.398,7.381L28.337,22l4.456-0.004c-0.91-4.008-4.494-7-8.777-7
	c-4.971,0-9,4.029-9,9L19.641,24l1.1,3.381L23.788,18H24.84z"/>
</svg>
