<?xml version="1.0" encoding="utf-8"?>
<!DOCTYPE svg PUBLIC "-//W3C//DTD SVG 1.1//EN" "http://www.w3.org/Graphics/SVG/1.1/DTD/svg11.dtd">
<svg version="1.1" id="cloud-databases" xmlns="http://www.w3.org/2000/svg" xmlns:xlink="http://www.w3.org/1999/xlink" x="0px" y="0px"
	 width="50px" height="39px" viewBox="0 0 50 39" enable-background="new 0 0 50 39" xml:space="preserve">
<path d="M10.904,39C4.882,39,0,34.117,0,28.096c0-4.33,2.523-8.07,6.18-9.83c-0.88-1.715-1.376-3.66-1.376-5.719
	C4.804,5.617,10.421,0,17.351,0c5.533,0,10.229,3.582,11.897,8.553c1.253-0.627,2.666-0.979,4.162-0.979
	c5.151,0,9.327,4.176,9.327,9.328c0,0.973-0.148,1.91-0.425,2.791C46.707,20.645,50,24.557,50,29.236C50,34.629,45.629,39,40.236,39
	H10.904z M40.236,21.473c-0.397,0-0.789,0.029-1.17,0.088c1.044-1.268,1.671-2.891,1.671-4.658c0-4.047-3.28-7.328-7.327-7.328
	c-2.203,0-4.18,0.973-5.523,2.514C27.646,6.475,23.021,2,17.351,2C11.525,2,6.804,6.721,6.804,12.547
	c0,2.586,0.932,4.957,2.478,6.791C5.139,20.102,2,23.732,2,28.096C2,33.014,5.986,37,10.904,37h29.332
	C44.524,37,48,33.523,48,29.236C48,24.947,44.524,21.473,40.236,21.473z M23.999,14c-4.97,0-10,1.029-10,3v13c0,1.969,5.03,3,10,3
	s10-1.031,10-3V17C33.999,15.029,28.969,14,23.999,14z M23.999,15c5.823,0,9,1.32,9,2c0,0.678-3.177,2-9,2s-9-1.322-9-2
	C14.999,16.32,18.176,15,23.999,15z M23.999,32c-5.823,0-9-1.322-9-2v-2.953c1.708,1.066,5.366,1.619,9,1.619s7.292-0.553,9-1.619
	V30C32.999,30.678,29.822,32,23.999,32z M23.999,27.666c-5.823,0-9-1.32-9-2v-2.953c1.708,1.066,5.366,1.619,9,1.619
	s7.292-0.553,9-1.619v2.953C32.999,26.346,29.822,27.666,23.999,27.666z M23.999,23.332c-5.823,0-9-1.32-9-2v-2.953
	c1.708,1.066,5.366,1.621,9,1.621s7.292-0.555,9-1.621v2.953C32.999,22.012,29.822,23.332,23.999,23.332z"/>
</svg>
