<?xml version="1.0" encoding="utf-8"?>
<!DOCTYPE svg PUBLIC "-//W3C//DTD SVG 1.1//EN" "http://www.w3.org/Graphics/SVG/1.1/DTD/svg11.dtd">
<svg version="1.1" id="code-scripts" xmlns="http://www.w3.org/2000/svg" xmlns:xlink="http://www.w3.org/1999/xlink" x="0px" y="0px"
	 width="34.016px" height="40px" viewBox="0 0 34.016 40" enable-background="new 0 0 34.016 40" xml:space="preserve">
<path d="M7.56,7l0.349-1.258C7.969,5.503,8,5.261,8,5c0-1.656-1.343-3-3-3S2,3.344,2,5v2H7.56z M9,38h20
	c1.663,0,3.016-1.346,3.016-2.998L32.005,33H10v2C10,36.125,9.628,37.164,9,38z M5,0h24c2.762,0,5,2.238,5,5
	c0,0.43-0.057,0.857-0.16,1.258L26.994,31h7.001l0.021,3.998C34.016,37.764,31.756,40,29,40H5c-2.762,0-5-2.238-5-5
	c0-0.43,0.057-0.857,0.16-1.258L7.006,9H0V5C0,2.238,2.238,0,5,0z M24.918,31l6.99-25.258C31.969,5.503,32,5.261,32,5
	c0-1.656-1.343-3-3-3H9c0.628,0.836,1,1.875,1,3c0,0.43-0.057,0.857-0.16,1.258L2.094,34.25C2.033,34.488,2,34.739,2,35
	c0,1.656,1.343,3,3,3s3-1.344,3-3v-4H24.918z M23.25,15l3,4l-3,4h-2.5l3-4l-3-4H23.25z M8.75,19l3-4h2.5l-3,4l3,4h-2.5L8.75,19z
	 M17.969,13h2.062l-3,12h-2.062L17.969,13z"/>
</svg>
