<?xml version="1.0" encoding="utf-8"?>
<!DOCTYPE svg PUBLIC "-//W3C//DTD SVG 1.1//EN" "http://www.w3.org/Graphics/SVG/1.1/DTD/svg11.dtd">
<svg version="1.1" id="data-replication-services" xmlns="http://www.w3.org/2000/svg" xmlns:xlink="http://www.w3.org/1999/xlink" x="0px" y="0px"
	 width="34px" height="34px" viewBox="0 0 34 34" enable-background="new 0 0 34 34" xml:space="preserve">
<path d="M32,2H2v30h30V2z M0,0h34v34H0V0z M12.146,20.854L10,18.707V22.5c0,1.381,1.119,2.5,2.5,2.5H15v1h-2.5
	C10.566,26,9,24.433,9,22.5v-3.793l-2.146,2.146l-0.707-0.707L9.5,16.793l3.354,3.354L12.146,20.854z M18,15H6V6h5v1h7V15z M17,14V8
	h-7V7H7v7H17z M28,28H16v-9h5v1h7V28z M27,27v-6h-7v-1h-3v7H27z M21.854,14.146L24,16.293V12.5c0-1.381-1.12-2.5-2.5-2.5H19V9h2.5
	c1.933,0,3.5,1.566,3.5,3.5v3.793l2.146-2.146l0.707,0.707L24.5,18.207l-3.354-3.354L21.854,14.146z"/>
</svg>
