<?xml version="1.0" encoding="utf-8"?>
<!DOCTYPE svg PUBLIC "-//W3C//DTD SVG 1.1//EN" "http://www.w3.org/Graphics/SVG/1.1/DTD/svg11.dtd">
<svg version="1.1" id="dedicated-server-lg" xmlns="http://www.w3.org/2000/svg" xmlns:xlink="http://www.w3.org/1999/xlink" x="0px" y="0px"
	 width="49px" height="21px" viewBox="0 0 49 21" enable-background="new 0 0 49 21" xml:space="preserve">
<path d="M0,0h49v21H0V0z M47,19V2H2v17H47z M17,16h10v-3H17V16z M6,16h10v-3H6V16z M16,5H6v3h10V5z M27,5H17v3h10V5z M17,9v3h10V9
	H17z M16,12V9H6v3H16z M28,17H5V4h23V17z M42.5,8C41.671,8,41,7.328,41,6.5S41.671,5,42.5,5C43.328,5,44,5.672,44,6.5
	S43.328,8,42.5,8z M31,6h8v1h-8V6z"/>
</svg>
