<?xml version="1.0" encoding="utf-8"?>
<!DOCTYPE svg PUBLIC "-//W3C//DTD SVG 1.1//EN" "http://www.w3.org/Graphics/SVG/1.1/DTD/svg11.dtd">
<svg version="1.1" id="dedicated-intrusion-detection-ids" xmlns="http://www.w3.org/2000/svg" xmlns:xlink="http://www.w3.org/1999/xlink" x="0px" y="0px"
	 width="49px" height="21px" viewBox="0 0 49 21" enable-background="new 0 0 49 21" xml:space="preserve">
<path d="M18,11.199c0,4.527,4.762,6.937,6.5,7.662c1.738-0.726,6.5-3.135,6.5-7.662V3.87c-1.886-0.108-3.507-0.503-4.748-0.921
	c-0.708-0.238-1.299-0.486-1.752-0.697c-0.454,0.211-1.044,0.459-1.752,0.697C21.507,3.367,19.886,3.762,18,3.87V11.199z M32.08,15
	H47v-2H32.806C32.647,13.721,32.396,14.387,32.08,15z M2,15h14.92c-0.316-0.613-0.567-1.279-0.726-2H2V15z M16,11H2v1h14.037
	C16.013,11.74,16,11.473,16,11.199V11z M47,11H33v0.199c0,0.273-0.013,0.541-0.037,0.801H47V11z M33,8h14V6H33V8z M2,8h14V6H2V8z
	 M16,9H2v1h14V9z M47,9H33v1h14V9z M0,4h16V1.867C20.958,2.188,24.5,0,24.5,0s3.542,2.188,8.5,1.867V4h16v13H30.688
	c-2.517,2.815-6.188,4-6.188,4s-3.671-1.185-6.188-4H0V4z M19,10.285C20.625,8.728,22.904,8,24.499,8
	c1.595,0,3.875,0.727,5.501,2.285h-1.872c-0.693-0.438-1.443-0.748-2.15-0.934c0.18,0.27,0.284,0.59,0.284,0.934
	c0,0.947-0.789,1.715-1.762,1.715c-0.973,0-1.761-0.768-1.761-1.715c0-0.344,0.104-0.666,0.285-0.935
	c-0.708,0.186-1.458,0.496-2.152,0.935H19z"/>
</svg>
