<?xml version="1.0" encoding="utf-8"?>
<!DOCTYPE svg PUBLIC "-//W3C//DTD SVG 1.1//EN" "http://www.w3.org/Graphics/SVG/1.1/DTD/svg11.dtd">
<svg version="1.1" id="dedicated-generic-device-2" xmlns="http://www.w3.org/2000/svg" xmlns:xlink="http://www.w3.org/1999/xlink" x="0px" y="0px"
	 width="49px" height="13px" viewBox="0 0 49 13" enable-background="new 0 0 49 13" xml:space="preserve">
<path d="M49,0v13H0V0H49z M47,2H2v9h45V2z M11,8c0-0.553,0.447-1,1-1s1,0.447,1,1s-0.447,1-1,1S11,8.553,11,8z M7,9
	c0.553,0,1-0.447,1-1S7.553,7,7,7S6,7.447,6,8S6.447,9,7,9z M12,6c0.553,0,1-0.447,1-1s-0.447-1-1-1s-1,0.447-1,1S11.447,6,12,6z
	 M7,6c0.553,0,1-0.447,1-1S7.553,4,7,4S6,4.447,6,5S6.447,6,7,6z M17,9c0.553,0,1-0.447,1-1s-0.447-1-1-1s-1,0.447-1,1
	S16.447,9,17,9z M17,6c0.553,0,1-0.447,1-1s-0.447-1-1-1s-1,0.447-1,1S16.447,6,17,6z M22,9c0.553,0,1-0.447,1-1s-0.447-1-1-1
	s-1,0.447-1,1S21.447,9,22,9z M22,6c0.553,0,1-0.447,1-1s-0.447-1-1-1s-1,0.447-1,1S21.447,6,22,6z M27,9c0.553,0,1-0.447,1-1
	s-0.447-1-1-1s-1,0.447-1,1S26.447,9,27,9z M27,6c0.553,0,1-0.447,1-1s-0.447-1-1-1s-1,0.447-1,1S26.447,6,27,6z M33,5h9V4h-9V5z
	 M33,8h9V7h-9V8z"/>
</svg>
