<?xml version="1.0" encoding="utf-8"?>
<!DOCTYPE svg PUBLIC "-//W3C//DTD SVG 1.1//EN" "http://www.w3.org/Graphics/SVG/1.1/DTD/svg11.dtd">
<svg version="1.1" id="dedicated-databases" xmlns="http://www.w3.org/2000/svg" xmlns:xlink="http://www.w3.org/1999/xlink" x="0px" y="0px"
	 width="34px" height="34px" viewBox="0 0 34 34" enable-background="new 0 0 34 34" xml:space="preserve">
<path d="M32,2H2v30h30V2z M0,0h34v34H0V0z M26,21.088c-2.332,1.428-8.01,1.578-9,1.578s-6.668-0.15-9-1.578V24
	c0,0.588,2.068,1.193,2.41,1.283C12.076,25.723,14.408,26,17,26c2.053,0,6.57-0.258,8.49-1.451C25.938,24.27,26,24.072,26,24V21.088
	z M8,19.666c0,0.588,2.068,1.193,2.41,1.285c1.666,0.438,3.998,0.715,6.59,0.715c2.053,0,6.57-0.256,8.49-1.451
	c0.447-0.279,0.51-0.477,0.51-0.549v-2.91c-2.332,1.428-8.01,1.576-9,1.576s-6.668-0.148-9-1.576V19.666z M8,15.332
	c0,0.588,2.068,1.195,2.41,1.285c1.666,0.438,3.998,0.715,6.59,0.715c2.053,0,6.57-0.256,8.49-1.451
	c0.447-0.277,0.51-0.477,0.51-0.549v-2.91C23.668,13.85,17.99,14,17,14s-6.668-0.15-9-1.578V15.332z M8.512,10.451
	C8.064,10.729,8,10.928,8,11c0,0.588,2.068,1.193,2.41,1.283C12.076,12.723,14.408,13,17,13c2.053,0,6.57-0.258,8.49-1.451
	C25.938,11.27,26,11.072,26,11c0-0.588-2.066-1.195-2.41-1.285C21.924,9.277,19.594,9,17,9C14.947,9,10.432,9.256,8.512,10.451z
	 M7.982,9.602C10.107,8.279,14.699,8,17,8c1.252,0,10,0.238,10,3v13c0,2.76-8.748,3-10,3S7,26.76,7,24V11
	C7,10.381,7.469,9.922,7.982,9.602z"/>
</svg>
