<?xml version="1.0" encoding="utf-8"?>
<!DOCTYPE svg PUBLIC "-//W3C//DTD SVG 1.1//EN" "http://www.w3.org/Graphics/SVG/1.1/DTD/svg11.dtd">
<svg version="1.1" id="dedicated-server-md" xmlns="http://www.w3.org/2000/svg" xmlns:xlink="http://www.w3.org/1999/xlink" x="0px" y="0px"
	 width="49px" height="17px" viewBox="0 0 49 17" enable-background="new 0 0 49 17" xml:space="preserve">
<path d="M0,0h49v17H0V0z M47,15V2H2v13H47z M17,12h10V9H17V12z M6,12h10V9H6V12z M16,5H6v3h10V5z M27,5H17v3h10V5z M28,4v9H5V4H28z
	 M42.5,8C41.671,8,41,7.328,41,6.5S41.671,5,42.5,5C43.328,5,44,5.672,44,6.5S43.328,8,42.5,8z M31,6h8v1h-8V6z"/>
</svg>
