<?xml version="1.0" encoding="utf-8"?>
<!DOCTYPE svg PUBLIC "-//W3C//DTD SVG 1.1//EN" "http://www.w3.org/Graphics/SVG/1.1/DTD/svg11.dtd">
<svg version="1.1" id="desktop-computer" xmlns="http://www.w3.org/2000/svg" xmlns:xlink="http://www.w3.org/1999/xlink" x="0px" y="0px"
	 width="47px" height="46px" viewBox="0 0 47 46" enable-background="new 0 0 47 46" xml:space="preserve">
<path d="M0,46v-1.303L4.465,38h8.617c0,0,3.33-1.312,4.879-4H0V0h47v34H29.039c1.549,2.688,4.879,4,4.879,4h8.617L47,44.697V46H0z
	 M26.73,34H20.27l-0.576,0.998c-0.734,1.277-1.75,2.27-2.695,3.002h13.004c-0.945-0.732-1.961-1.725-2.695-3.002L26.73,34z
	 M5.535,40l-2.666,4h41.262l-2.666-4H5.535z M45,32V2H2v30H45z M38,42.5c0-0.277,0.224-0.5,0.5-0.5s0.5,0.223,0.5,0.5
	c0,0.275-0.224,0.5-0.5,0.5S38,42.775,38,42.5z M36,42.5c0-0.277,0.224-0.5,0.5-0.5s0.5,0.223,0.5,0.5c0,0.275-0.224,0.5-0.5,0.5
	S36,42.775,36,42.5z M34,42.5c0-0.277,0.224-0.5,0.5-0.5s0.5,0.223,0.5,0.5c0,0.275-0.224,0.5-0.5,0.5S34,42.775,34,42.5z M32,42.5
	c0-0.277,0.224-0.5,0.5-0.5s0.5,0.223,0.5,0.5c0,0.275-0.224,0.5-0.5,0.5S32,42.775,32,42.5z M30,42.5c0-0.277,0.224-0.5,0.5-0.5
	s0.5,0.223,0.5,0.5c0,0.275-0.224,0.5-0.5,0.5S30,42.775,30,42.5z M28,42.5c0-0.277,0.224-0.5,0.5-0.5s0.5,0.223,0.5,0.5
	c0,0.275-0.224,0.5-0.5,0.5S28,42.775,28,42.5z M26,42.5c0-0.277,0.224-0.5,0.5-0.5s0.5,0.223,0.5,0.5c0,0.275-0.224,0.5-0.5,0.5
	S26,42.775,26,42.5z M6,42.5C6,42.223,6.224,42,6.5,42S7,42.223,7,42.5C7,42.775,6.776,43,6.5,43S6,42.775,6,42.5z M8,42.5
	C8,42.223,8.224,42,8.5,42S9,42.223,9,42.5C9,42.775,8.776,43,8.5,43S8,42.775,8,42.5z M10,42.5c0-0.277,0.224-0.5,0.5-0.5
	s0.5,0.223,0.5,0.5c0,0.275-0.224,0.5-0.5,0.5S10,42.775,10,42.5z M12,42.5c0-0.277,0.224-0.5,0.5-0.5s0.5,0.223,0.5,0.5
	c0,0.275-0.224,0.5-0.5,0.5S12,42.775,12,42.5z M14,42.5c0-0.277,0.224-0.5,0.5-0.5s0.5,0.223,0.5,0.5c0,0.275-0.224,0.5-0.5,0.5
	S14,42.775,14,42.5z M16,42.5c0-0.277,0.224-0.5,0.5-0.5s0.5,0.223,0.5,0.5c0,0.275-0.224,0.5-0.5,0.5S16,42.775,16,42.5z M18,42.5
	c0-0.277,0.224-0.5,0.5-0.5s0.5,0.223,0.5,0.5c0,0.275-0.224,0.5-0.5,0.5S18,42.775,18,42.5z M20,42.5c0-0.277,0.224-0.5,0.5-0.5
	s0.5,0.223,0.5,0.5c0,0.275-0.224,0.5-0.5,0.5S20,42.775,20,42.5z M22,42.5c0-0.277,0.224-0.5,0.5-0.5s0.5,0.223,0.5,0.5
	c0,0.275-0.224,0.5-0.5,0.5S22,42.775,22,42.5z M24,42.5c0-0.277,0.224-0.5,0.5-0.5s0.5,0.223,0.5,0.5c0,0.275-0.224,0.5-0.5,0.5
	S24,42.775,24,42.5z M39,41.5c0-0.277,0.224-0.5,0.5-0.5s0.5,0.223,0.5,0.5c0,0.275-0.224,0.5-0.5,0.5S39,41.775,39,41.5z M37,41.5
	c0-0.277,0.224-0.5,0.5-0.5s0.5,0.223,0.5,0.5c0,0.275-0.224,0.5-0.5,0.5S37,41.775,37,41.5z M35,41.5c0-0.277,0.224-0.5,0.5-0.5
	s0.5,0.223,0.5,0.5c0,0.275-0.224,0.5-0.5,0.5S35,41.775,35,41.5z M33,41.5c0-0.277,0.224-0.5,0.5-0.5s0.5,0.223,0.5,0.5
	c0,0.275-0.224,0.5-0.5,0.5S33,41.775,33,41.5z M31,41.5c0-0.277,0.224-0.5,0.5-0.5s0.5,0.223,0.5,0.5c0,0.275-0.224,0.5-0.5,0.5
	S31,41.775,31,41.5z M29,41.5c0-0.277,0.224-0.5,0.5-0.5s0.5,0.223,0.5,0.5c0,0.275-0.224,0.5-0.5,0.5S29,41.775,29,41.5z M27,41.5
	c0-0.277,0.224-0.5,0.5-0.5s0.5,0.223,0.5,0.5c0,0.275-0.224,0.5-0.5,0.5S27,41.775,27,41.5z M25,41.5c0-0.277,0.224-0.5,0.5-0.5
	s0.5,0.223,0.5,0.5c0,0.275-0.224,0.5-0.5,0.5S25,41.775,25,41.5z M7,41.5C7,41.223,7.224,41,7.5,41S8,41.223,8,41.5
	C8,41.775,7.776,42,7.5,42S7,41.775,7,41.5z M9,41.5C9,41.223,9.224,41,9.5,41s0.5,0.223,0.5,0.5c0,0.275-0.224,0.5-0.5,0.5
	S9,41.775,9,41.5z M11,41.5c0-0.277,0.224-0.5,0.5-0.5s0.5,0.223,0.5,0.5c0,0.275-0.224,0.5-0.5,0.5S11,41.775,11,41.5z M13,41.5
	c0-0.277,0.224-0.5,0.5-0.5s0.5,0.223,0.5,0.5c0,0.275-0.224,0.5-0.5,0.5S13,41.775,13,41.5z M15,41.5c0-0.277,0.224-0.5,0.5-0.5
	s0.5,0.223,0.5,0.5c0,0.275-0.224,0.5-0.5,0.5S15,41.775,15,41.5z M17,41.5c0-0.277,0.224-0.5,0.5-0.5s0.5,0.223,0.5,0.5
	c0,0.275-0.224,0.5-0.5,0.5S17,41.775,17,41.5z M19,41.5c0-0.277,0.224-0.5,0.5-0.5s0.5,0.223,0.5,0.5c0,0.275-0.224,0.5-0.5,0.5
	S19,41.775,19,41.5z M21,41.5c0-0.277,0.224-0.5,0.5-0.5s0.5,0.223,0.5,0.5c0,0.275-0.224,0.5-0.5,0.5S21,41.775,21,41.5z M23,41.5
	c0-0.277,0.224-0.5,0.5-0.5s0.5,0.223,0.5,0.5c0,0.275-0.224,0.5-0.5,0.5S23,41.775,23,41.5z M40,42.5c0-0.277,0.224-0.5,0.5-0.5
	s0.5,0.223,0.5,0.5c0,0.275-0.224,0.5-0.5,0.5S40,42.775,40,42.5z M4,4h39v23H4V4z M42,5H5v21h37V5z M23.5,28
	c0.828,0,1.5,0.672,1.5,1.5S24.328,31,23.5,31S22,30.328,22,29.5S22.672,28,23.5,28z"/>
</svg>
