<?xml version="1.0" encoding="utf-8"?>
<!DOCTYPE svg PUBLIC "-//W3C//DTD SVG 1.1//EN" "http://www.w3.org/Graphics/SVG/1.1/DTD/svg11.dtd">
<svg version="1.1" id="gear-small" xmlns="http://www.w3.org/2000/svg" xmlns:xlink="http://www.w3.org/1999/xlink" x="0px" y="0px"
	 width="23px" height="23px" viewBox="0 0 23 23" enable-background="new 0 0 23 23" xml:space="preserve">
<path d="M19.364,7.797c0.104,0.221,0.197,0.438,0.279,0.654l1.735,0.371C22.09,8.936,23,9.5,23,11.5
	c0,1.996-0.906,2.562-1.668,2.686l-1.654,0.258c-0.082,0.23-0.17,0.449-0.266,0.66l0.966,1.488c0.423,0.586,0.664,1.629-0.747,3.041
	c-1.411,1.41-2.451,1.17-3.076,0.721l-1.354-0.988c-0.221,0.104-0.438,0.195-0.655,0.277l-0.369,1.736
	C14.062,22.092,13.494,23,11.498,23c-1.994,0-2.561-0.904-2.686-1.664L8.556,19.68c-0.231-0.084-0.45-0.172-0.661-0.268
	l-1.488,0.967c-0.584,0.424-1.627,0.664-3.039-0.748c-1.414-1.414-1.172-2.455-0.719-3.078l0.986-1.35
	c-0.105-0.223-0.198-0.439-0.28-0.658L1.62,14.176C0.906,14.062,0,13.496,0,11.5c0-2,0.906-2.564,1.668-2.686l1.651-0.258
	c0.083-0.23,0.171-0.449,0.267-0.662c0,0.002-0.966-1.486-0.966-1.486C2.197,5.82,1.957,4.779,3.367,3.369
	c1.41-1.412,2.451-1.172,3.076-0.725c0,0,1.354,0.99,1.353,0.99c0.222-0.105,0.438-0.197,0.656-0.279l0.369-1.734
	C8.938,0.906,9.504,0,11.498,0c1.996,0,2.562,0.904,2.688,1.662l0.257,1.658c0.23,0.082,0.449,0.17,0.661,0.266l1.488-0.965
	c0.584-0.424,1.625-0.666,3.039,0.746c1.412,1.412,1.172,2.453,0.721,3.078L19.364,7.797 M20.924,12.225
	C20.953,12.145,21,11.943,21,11.5c0-0.445-0.047-0.645-0.076-0.725l-2.164-0.338c-0.623-0.117-0.781-0.643-0.84-0.84
	c-0.135-0.453-0.314-0.887-0.535-1.291c-0.1-0.186-0.357-0.668-0.01-1.178l1.302-1.781c-0.038-0.078-0.146-0.252-0.46-0.566
	c-0.314-0.312-0.489-0.422-0.566-0.459l-1.768,1.291c-0.414,0.285-0.881,0.168-1.188,0.002c-0.412-0.225-0.846-0.404-1.293-0.535
	c-0.201-0.062-0.726-0.221-0.839-0.826l-0.339-2.18C12.145,2.047,11.943,2,11.498,2c-0.443,0-0.645,0.047-0.725,0.074l-0.336,2.164
	c-0.116,0.621-0.642,0.781-0.839,0.84C9.146,5.213,8.713,5.393,8.306,5.613c-0.313,0.168-0.794,0.273-1.177,0.01L5.346,4.32
	c-0.07,0.035-0.245,0.143-0.564,0.461C4.468,5.096,4.359,5.27,4.321,5.348l1.293,1.77c0.356,0.52,0.099,1.004,0.001,1.186
	C5.391,8.717,5.211,9.15,5.08,9.596c-0.061,0.201-0.22,0.725-0.826,0.84l-2.18,0.338C2.046,10.855,2,11.057,2,11.5
	s0.046,0.645,0.074,0.725l2.164,0.336c0.621,0.115,0.78,0.641,0.84,0.84c0.134,0.451,0.313,0.885,0.535,1.293
	c0.1,0.184,0.357,0.666,0.01,1.176L4.321,17.65c0.037,0.078,0.146,0.252,0.46,0.566s0.489,0.422,0.566,0.459l1.768-1.291
	c0.416-0.283,0.883-0.166,1.188,0c0.412,0.223,0.846,0.402,1.293,0.535c0.199,0.061,0.726,0.219,0.839,0.826l0.339,2.18
	C10.854,20.953,11.055,21,11.498,21c0.445,0,0.646-0.047,0.727-0.074l0.336-2.166c0.116-0.621,0.643-0.779,0.84-0.84
	c0.451-0.133,0.886-0.312,1.291-0.535c0.314-0.168,0.795-0.271,1.178-0.01l1.783,1.303c0.07-0.035,0.245-0.143,0.564-0.461
	c0.314-0.314,0.423-0.488,0.46-0.566l-1.293-1.768c-0.356-0.523-0.099-1.006-0.001-1.188c0.223-0.41,0.403-0.844,0.537-1.293
	c0.059-0.199,0.217-0.725,0.824-0.838L20.924,12.225z M11.498,7.043c2.458,0,4.457,2,4.457,4.457s-1.999,4.455-4.457,4.455
	c-2.457,0-4.455-1.998-4.455-4.455S9.041,7.043,11.498,7.043z M11.498,14.955c1.906,0,3.457-1.549,3.457-3.455
	s-1.551-3.457-3.457-3.457c-1.905,0-3.455,1.551-3.455,3.457S9.593,14.955,11.498,14.955z"/>
</svg>
