<?xml version="1.0" encoding="utf-8"?>
<!DOCTYPE svg PUBLIC "-//W3C//DTD SVG 1.1//EN" "http://www.w3.org/Graphics/SVG/1.1/DTD/svg11.dtd">
<svg version="1.1" id="lock-large" xmlns="http://www.w3.org/2000/svg" xmlns:xlink="http://www.w3.org/1999/xlink" x="0px" y="0px"
	 width="32px" height="32px" viewBox="0 0 32 32" enable-background="new 0 0 32 32" xml:space="preserve">
<path d="M16,2C8.268,2,2,8.268,2,16s6.268,14,14,14s14-6.268,14-14S23.732,2,16,2z M32,16c0,8.836-7.163,16-16,16S0,24.836,0,16
	C0,7.162,7.163,0,16,0S32,7.162,32,16z M21,11v3h2v11H9V14h2v-3c0-2.762,2.238-5,5-5S21,8.238,21,11z M19,14v-3c0-1.658-1.344-3-3-3
	s-3,1.342-3,3v3H19z"/>
</svg>
