<?xml version="1.0" encoding="utf-8"?>
<!DOCTYPE svg PUBLIC "-//W3C//DTD SVG 1.1//EN" "http://www.w3.org/Graphics/SVG/1.1/DTD/svg11.dtd">
<svg version="1.1" id="mailgun-email-delivery-service" xmlns="http://www.w3.org/2000/svg" xmlns:xlink="http://www.w3.org/1999/xlink" x="0px" y="0px"
	 width="49px" height="42px" viewBox="0 0 49 42" enable-background="new 0 0 49 42" xml:space="preserve">
<path d="M14.019,2.154l0.011,3.996L23,6.814V2.82L14.019,2.154z M11.754,13.031C11.396,13.006,11.199,13,11,13c-4.971,0-9,4.029-9,9
	v18h18V22C20,17.283,16.371,13.414,11.754,13.031z M22,40h25V24c0-4.752-3.695-8.646-8.361-8.979l-20.664-1.529
	C20.432,15.508,22,18.57,22,22V40z M11.74,11.023l0.172,0.014L12.013,0L25,0.963v8.006L14.035,8.156l0.01,3.039l24.738,1.832
	C44.486,13.432,49,18.189,49,24v18H22h-1H0V22c0-6.076,4.925-11,11-11c0.24,0,0.48,0.008,0.717,0.023H11.74z M5,27h12v1H5V27z M5,30
	h12v1H5V30z M34,23.975c-1.881,0-3.404,1.523-3.404,3.402c0,1.881,1.523,3.404,3.404,3.404c1.879,0,3.403-1.523,3.403-3.404
	C37.403,25.498,35.879,23.975,34,23.975z M28.691,27.377c0-2.93,2.377-5.307,5.309-5.307s5.308,2.377,5.308,5.307
	c0,0.195-0.011,0.387-0.03,0.574c-0.041,0.518,0.339,0.912,0.854,0.912c0.872,0,0.965-1.125,0.965-1.486
	c0-3.918-3.178-7.096-7.096-7.096c-3.92,0-7.097,3.178-7.097,7.096c0,3.92,3.177,7.098,7.097,7.098c2.081,0,3.953-0.896,5.251-2.324
	l1.459,1.225c-1.647,1.844-4.044,3.004-6.71,3.004c-4.971,0-9-4.029-9-9.002c0-4.969,4.029-8.998,9-8.998s9,4.029,9,8.998
	c0,1.998-0.951,3.621-2.862,3.621c-0.841,0-1.353-0.385-1.632-0.814c-0.938,1.502-2.604,2.502-4.506,2.502
	C31.068,32.686,28.691,30.309,28.691,27.377z M34,25.82c0.859,0,1.559,0.697,1.559,1.557c0,0.861-0.699,1.559-1.559,1.559
	c-0.861,0-1.559-0.697-1.559-1.559C32.441,26.518,33.139,25.82,34,25.82z"/>
</svg>
