<?xml version="1.0" encoding="utf-8"?>
<!DOCTYPE svg PUBLIC "-//W3C//DTD SVG 1.1//EN" "http://www.w3.org/Graphics/SVG/1.1/DTD/svg11.dtd">
<svg version="1.1" id="network-connection" xmlns="http://www.w3.org/2000/svg" xmlns:xlink="http://www.w3.org/1999/xlink" x="0px" y="0px"
	 width="32px" height="32px" viewBox="0 0 32 32" enable-background="new 0 0 32 32" xml:space="preserve">
<path d="M16,2C8.268,2,2,8.268,2,16s6.268,14,14,14s14-6.268,14-14S23.732,2,16,2z M32,16c0,8.836-7.164,16-16,16
	C7.163,32,0,24.836,0,16C0,7.163,7.163,0,16,0C24.836,0,32,7.163,32,16z M19.464,15.5h6.329l-2.646-2.646l0.707-0.707L27.707,16
	l-3.854,3.854l-0.707-0.707l2.646-2.646h-6.329c-0.219,1.533-1.432,2.745-2.964,2.965v6.328l2.646-2.646l0.707,0.707L16,27.707
	l-3.854-3.854l0.707-0.707l2.646,2.646v-6.328c-1.533-0.22-2.745-1.432-2.965-2.965H6.207l2.646,2.646l-0.707,0.707L4.293,16
	l3.854-3.854l0.707,0.707L6.207,15.5h6.328c0.22-1.533,1.432-2.746,2.965-2.965V6.207l-2.646,2.646l-0.707-0.707L16,4.293
	l3.854,3.854l-0.707,0.707L16.5,6.207v6.328C18.033,12.754,19.245,13.967,19.464,15.5z M16,13.5c-1.381,0-2.5,1.119-2.5,2.5
	s1.119,2.5,2.5,2.5s2.5-1.119,2.5-2.5S17.381,13.5,16,13.5z"/>
</svg>
