<?xml version="1.0" encoding="utf-8"?>
<!DOCTYPE svg PUBLIC "-//W3C//DTD SVG 1.1//EN" "http://www.w3.org/Graphics/SVG/1.1/DTD/svg11.dtd">
<svg version="1.1" id="rss-feed" xmlns="http://www.w3.org/2000/svg" xmlns:xlink="http://www.w3.org/1999/xlink" x="0px" y="0px"
	 width="26px" height="25.998px" viewBox="0 0 26 25.998" enable-background="new 0 0 26 25.998" xml:space="preserve">
<path d="M13,23.998c6.076,0,11-4.924,11-10.998c0-6.076-4.924-11-11-11C6.926,2,2,6.924,2,13C2,19.074,6.926,23.998,13,23.998z
	 M26,13c0,7.178-5.82,12.998-13,12.998S0,20.178,0,13C0,5.82,5.82,0,13,0S26,5.82,26,13z M8.002,10.736
	c4.002,0,7.26,3.258,7.26,7.262h-2.117c0-1.377-0.535-2.672-1.506-3.643c-0.973-0.975-2.264-1.51-3.637-1.51V10.736z M9.465,15.066
	c0.811,0,1.467,0.658,1.467,1.461c0,0.807-0.656,1.457-1.467,1.457C8.656,17.984,8,17.334,8,16.527
	C8,15.725,8.656,15.066,9.465,15.066z M8.004,7C14.066,7,19,11.936,19,17.998h-2.115c0-4.9-3.984-8.889-8.881-8.889V7z"/>
</svg>
