<?xml version="1.0" encoding="utf-8"?>
<!DOCTYPE svg PUBLIC "-//W3C//DTD SVG 1.1//EN" "http://www.w3.org/Graphics/SVG/1.1/DTD/svg11.dtd">
<svg version="1.1" id="server-room-dc" xmlns="http://www.w3.org/2000/svg" xmlns:xlink="http://www.w3.org/1999/xlink" x="0px" y="0px"
	 width="79px" height="45px" viewBox="0 0 79 45" enable-background="new 0 0 79 45" xml:space="preserve">
<path d="M0,43h3V0h73v43h3v2H0V43z M24,43V10H10v33H24z M39,43V10H25v33H39z M54,43V10H40v33H54z M69,43V10H55v33H69z M70,23h4v-2
	h-4V23z M70,26h4v-2h-4V26z M70,29h4v-2h-4V29z M74,33h-4v10h4V33z M70,32h4v-2h-4V32z M5,20h4V9h16h15h15h15v11h4V2H5V20z M5,23h4
	v-2H5V23z M5,26h4v-2H5V26z M5,29h4v-2H5V29z M9,33H5v10h4V33z M5,32h4v-2H5V32z M57,32h10v4H57V32z M66,33h-8v2h8V33z M57,27h10v4
	H57V27z M66,28h-8v2h8V28z M57,22h10v4H57V22z M66,23h-8v2h8V23z M57,17h10v4H57V17z M66,18h-8v2h8V18z M57,12h10v4H57V12z M66,13
	h-8v2h8V13z M57,37h10v4H57V37z M66,38h-8v2h8V38z M21,38h-8v2h8V38z M12,37h10v4H12V37z M21,13h-8v2h8V13z M12,12h10v4H12V12z
	 M21,18h-8v2h8V18z M12,17h10v4H12V17z M21,23h-8v2h8V23z M12,22h10v4H12V22z M21,28h-8v2h8V28z M12,27h10v4H12V27z M21,33h-8v2h8
	V33z M12,32h10v4H12V32z M36,38h-8v2h8V38z M27,37h10v4H27V37z M36,13h-8v2h8V13z M27,12h10v4H27V12z M36,18h-8v2h8V18z M27,17h10v4
	H27V17z M36,23h-8v2h8V23z M27,22h10v4H27V22z M36,28h-8v2h8V28z M27,27h10v4H27V27z M36,33h-8v2h8V33z M27,32h10v4H27V32z M51,38
	h-8v2h8V38z M42,37h10v4H42V37z M51,13h-8v2h8V13z M42,12h10v4H42V12z M51,18h-8v2h8V18z M42,17h10v4H42V17z M51,23h-8v2h8V23z
	 M42,22h10v4H42V22z M51,28h-8v2h8V28z M42,27h10v4H42V27z M51,33h-8v2h8V33z M42,32h10v4H42V32z"/>
</svg>
