<?xml version="1.0" encoding="utf-8"?>
<!DOCTYPE svg PUBLIC "-//W3C//DTD SVG 1.1//EN" "http://www.w3.org/Graphics/SVG/1.1/DTD/svg11.dtd">
<svg version="1.1" id="server-instance" xmlns="http://www.w3.org/2000/svg" xmlns:xlink="http://www.w3.org/1999/xlink" x="0px" y="0px"
	 width="28px" height="35px" viewBox="0 0 28 35" enable-background="new 0 0 28 35" xml:space="preserve">
<path d="M26,3.914L16,7.402v25.02l10-4.5V3.914z M5.57,4.848l9.305,0.83l8.492-2.963l-8.52-0.691L5.57,4.848z M14,20.715L2,19.322
	v11.779l12,1.715V20.715z M14,16.514L2,15.227v3.088l12,1.395V16.514z M14,12.311L2,11.133v3.088l12,1.287V12.311z M14,7.607
	L2,6.537v3.59l12,1.18V7.607z M28,1.084v28.131L15.146,35L0,32.836V4.451L14.629,0L28,1.084z M10,28c0-0.553,0.447-1,1-1
	s1,0.447,1,1s-0.447,1-1,1S10,28.553,10,28z M10,24c0-0.553,0.447-1,1-1s1,0.447,1,1s-0.447,1-1,1S10,24.553,10,24z"/>
</svg>
