<?xml version="1.0" encoding="utf-8"?>
<!DOCTYPE svg PUBLIC "-//W3C//DTD SVG 1.1//EN" "http://www.w3.org/Graphics/SVG/1.1/DTD/svg11.dtd">
<svg version="1.1" id="server-rack" xmlns="http://www.w3.org/2000/svg" xmlns:xlink="http://www.w3.org/1999/xlink" x="0px" y="0px"
	 width="24px" height="49px" viewBox="0 0 24 49" enable-background="new 0 0 24 49" xml:space="preserve">
<path d="M4,40h16v5H4V40z M19,41H5v3h14V41z M24,0v49h-2V2H2v47H0V0H24z M19,6H5v3h14V6z M4,5h16v5H4V5z M19,13H5v3h14V13z M4,12h16
	v5H4V12z M19,20H5v3h14V20z M4,19h16v5H4V19z M19,27H5v3h14V27z M4,26h16v5H4V26z M19,34H5v3h14V34z M4,33h16v5H4V33z"/>
</svg>
