<?xml version="1.0" encoding="utf-8"?>
<!DOCTYPE svg PUBLIC "-//W3C//DTD SVG 1.1//EN" "http://www.w3.org/Graphics/SVG/1.1/DTD/svg11.dtd">
<svg version="1.1" id="shield-small" xmlns="http://www.w3.org/2000/svg" xmlns:xlink="http://www.w3.org/1999/xlink" x="0px" y="0px"
	 width="24px" height="30px" viewBox="0 0 24 30" enable-background="new 0 0 24 30" xml:space="preserve">
<path fill-rule="evenodd" clip-rule="evenodd" d="M4.197,17.809l12.99-12.99c-0.805-0.205-1.596-0.461-2.303-0.775
	C13.713,3.521,12.893,3.08,12,2.475c-0.893,0.605-1.713,1.047-2.885,1.568c-1.783,0.795-4.1,1.203-5.826,1.42
	C2.83,5.521,2.396,5.568,2.006,5.604C2.057,8.205,2.422,13.09,4.197,17.809z M21.354,12.066L8.486,24.934
	c1.008,1.064,2.172,2.016,3.514,2.795C17.932,24.277,20.369,17.533,21.354,12.066z M21.967,6.453L6.309,22.113
	c0.455,0.719,0.957,1.414,1.512,2.074l13.799-13.801C21.824,8.891,21.922,7.541,21.967,6.453z M20.711,5.463
	c-0.715-0.09-1.533-0.213-2.371-0.383L4.602,18.82c0.346,0.816,0.736,1.623,1.178,2.406L21.457,5.551L20.711,5.463z M12,0
	c1.348,1.035,2.162,1.531,3.699,2.217c2.998,1.336,8.275,1.523,8.275,1.523S25.123,23.473,12,30
	C-1.123,23.473,0.025,3.74,0.025,3.74s5.277-0.188,8.275-1.523C9.836,1.531,10.652,1.035,12,0z"/>
</svg>
