<?xml version="1.0" encoding="utf-8"?>
<!DOCTYPE svg PUBLIC "-//W3C//DTD SVG 1.1//EN" "http://www.w3.org/Graphics/SVG/1.1/DTD/svg11.dtd">
<svg version="1.1" id="support-services" xmlns="http://www.w3.org/2000/svg" xmlns:xlink="http://www.w3.org/1999/xlink" x="0px" y="0px"
	 width="34px" height="34px" viewBox="0 0 34 34" enable-background="new 0 0 34 34" xml:space="preserve">
<path d="M0,0h34v34H0V0z M32,2H2v30h30V2z M27.56,20.094l-0.069,0.234l-0.216-0.059c0.021,0.344,0.059,0.707,0.108,1.123
	c0.201,1.721,0.412,3.5-1.027,4.959c-0.796,0.807-1.786,1.182-3.116,1.182c-0.606,0-1.224-0.074-1.821-0.145
	c-0.379-0.047-0.768-0.09-1.146-0.115l0.057,0.217l-0.234,0.068C19.094,27.852,18.053,28,17,28s-2.094-0.148-3.094-0.441
	l-0.234-0.068l0.059-0.217c-0.346,0.021-0.709,0.059-1.124,0.107c-0.594,0.07-1.208,0.143-1.817,0.143
	c-1.333,0-2.331-0.371-3.141-1.168c-1.459-1.439-1.244-3.227-1.035-4.953c0.045-0.367,0.088-0.754,0.111-1.133l-0.214,0.059
	l-0.069-0.234C6.148,19.092,6,18.051,6,16.998c0-1.051,0.148-2.092,0.441-3.094L6.51,13.67l0.217,0.059
	c-0.021-0.344-0.059-0.707-0.109-1.123c-0.201-1.723-0.41-3.502,1.027-4.959c0.797-0.807,1.787-1.184,3.118-1.184
	c0.61,0,1.231,0.076,1.833,0.148c0.368,0.045,0.754,0.088,1.134,0.111l-0.058-0.215l0.234-0.068c2-0.586,4.188-0.586,6.188,0
	l0.234,0.068l-0.058,0.217c0.346-0.021,0.708-0.061,1.123-0.109c0.597-0.07,1.212-0.143,1.817-0.143c1.334,0,2.332,0.371,3.141,1.17
	c1.459,1.438,1.244,3.223,1.035,4.949c-0.045,0.369-0.088,0.756-0.111,1.137l0.215-0.059l0.069,0.234
	c0.292,1.002,0.44,2.041,0.44,3.094S27.852,19.092,27.56,20.094z M21.5,16.998c0-2.48-2.019-4.5-4.5-4.5s-4.5,2.02-4.5,4.5
	c0,2.482,2.019,4.5,4.5,4.5S21.5,19.48,21.5,16.998z M11.838,15.098c0.556-1.51,1.752-2.705,3.262-3.262L14.19,8.445
	c-2.729,0.893-4.85,3.014-5.743,5.744L11.838,15.098z M25.553,14.189c-0.894-2.73-3.014-4.852-5.743-5.744l-0.908,3.391
	c1.51,0.557,2.706,1.752,3.262,3.262L25.553,14.189z M11.58,16.064l-4.358-1.168C7.074,15.584,7,16.291,7,16.998
	c0,0.709,0.074,1.416,0.222,2.104l4.358-1.168c-0.054-0.307-0.08-0.621-0.08-0.936C11.5,16.686,11.526,16.371,11.58,16.064z
	 M8.447,19.809c0.894,2.729,3.015,4.85,5.743,5.744l0.909-3.391c-1.51-0.557-2.706-1.752-3.262-3.262L8.447,19.809z M22.163,18.9
	c-0.556,1.51-1.752,2.705-3.262,3.262l0.908,3.391c2.729-0.895,4.85-3.016,5.743-5.744L22.163,18.9z M22.421,17.934l4.358,1.168
	C26.926,18.414,27,17.709,27,16.998c0-0.709-0.074-1.414-0.222-2.102l-4.357,1.168c0.053,0.307,0.079,0.621,0.079,0.934
	C22.5,17.312,22.474,17.625,22.421,17.934z M26.394,12.475c0.196-1.623,0.366-3.025-0.745-4.121
	c-0.617-0.609-1.369-0.881-2.436-0.881c-0.541,0-1.105,0.066-1.701,0.137l-0.826,0.088c2.576,1.018,4.6,3.043,5.615,5.617
	L26.394,12.475z M17.936,11.578l1.168-4.359c-1.375-0.293-2.832-0.293-4.206,0l1.168,4.359c0.308-0.053,0.62-0.08,0.935-0.08
	S17.628,11.525,17.936,11.578z M12.477,7.604c-0.601-0.072-1.169-0.141-1.715-0.141c-1.059,0-1.801,0.273-2.404,0.887
	c-1.102,1.115-0.938,2.516-0.746,4.137L7.7,13.314c1.017-2.576,3.04-4.602,5.617-5.617C13.047,7.672,12.769,7.639,12.477,7.604z
	 M7.607,21.521c-0.197,1.625-0.367,3.025,0.744,4.123c0.617,0.609,1.369,0.881,2.437,0.881c0.543,0,1.105-0.066,1.701-0.137
	l0.825-0.09c-2.576-1.016-4.6-3.041-5.615-5.617C7.673,20.971,7.639,21.256,7.607,21.521z M16.065,22.42l-1.168,4.357
	c1.375,0.295,2.832,0.295,4.206,0l-1.168-4.357C17.32,22.525,16.682,22.525,16.065,22.42z M26.3,20.684
	c-1.016,2.576-3.04,4.602-5.616,5.617c0.271,0.023,0.549,0.057,0.84,0.092c0.605,0.074,1.172,0.141,1.715,0.141
	c1.061,0,1.802-0.271,2.406-0.885c1.101-1.117,0.936-2.518,0.744-4.139L26.3,20.684z"/>
</svg>
