<?xml version="1.0" encoding="utf-8"?>
<!DOCTYPE svg PUBLIC "-//W3C//DTD SVG 1.1//EN" "http://www.w3.org/Graphics/SVG/1.1/DTD/svg11.dtd">
<svg version="1.1" id="user-small" xmlns="http://www.w3.org/2000/svg" xmlns:xlink="http://www.w3.org/1999/xlink" x="0px" y="0px"
	 width="39.59px" height="32px" viewBox="0 0 39.59 32" enable-background="new 0 0 39.59 32" xml:space="preserve">
<path d="M16,14H9.381c-0.172,0-0.434-0.197-0.48-0.361l-1.881-6.5L7.98,6.861L9.756,13H16V14z M25,3c0-1.658,1.344-3,3-3
	c1.657,0,3,1.342,3,3c0,1.656-1.343,3-3,3C26.344,6,25,4.656,25,3z M28.691,11.445l-3.952,2.846L17,13.539V12h7.174L28,7.99L32,6
	c2.295,2.189,3.309,3.99,3.99,7.09C36.742,16.504,35,22,35,22H23.69l-0.45,10h-1.65l-1.35-12.611L30,18L28.691,11.445z M37.102,28
	l-0.538-4H27v4H37.102z M37.639,32l-0.403-3H27v3h-1v-8h-1v-1h11.563L38.58,8h1.01l-2.085,15.5l1.144,8.5H37.639z M4,22h12v-6H4V22z
	 M16,23H4v9H3V16H0v-1h20v1h-3v16h-1V23z"/>
</svg>
