<?xml version="1.0" encoding="utf-8"?>
<!DOCTYPE svg PUBLIC "-//W3C//DTD SVG 1.1//EN" "http://www.w3.org/Graphics/SVG/1.1/DTD/svg11.dtd">
<svg version="1.1" id="user-large" xmlns="http://www.w3.org/2000/svg" xmlns:xlink="http://www.w3.org/1999/xlink" x="0px" y="0px"
	 width="48.492px" height="42px" viewBox="0 0 48.492 42" enable-background="new 0 0 48.492 42" xml:space="preserve">
<path d="M18,18h-7.852l-2.621-7.672l0.945-0.324L10.863,17H18V18z M29,4c0-2.209,1.791-4,4-4s4,1.791,4,4s-1.791,4-4,4
	S29,6.209,29,4z M33.908,14.527L28.652,18L19,17v-2h8.898L33,9.986l5.334-2.654c3.043,2.939,4.387,5.328,5.32,9.453
	C44.711,21.459,42.334,29,42.334,29h-15.08l-0.6,13h-2.201l-1.799-16.814l13.012-1.854L33.908,14.527z M44.83,35l-0.719-4H32v4
	H44.83z M48.492,11.088l-3.469,19.328L47.102,42h-1.016l-1.076-6H32v6h-1V31h-2v-1h15.082l3.426-19.088L48.492,11.088z M20,27v-7H5
	v7H20z M20,42V28H5v14H4V20H0v-1h25v1h-4v22H20z"/>
</svg>
