<?xml version="1.0" encoding="utf-8"?>
<!DOCTYPE svg PUBLIC "-//W3C//DTD SVG 1.1//EN" "http://www.w3.org/Graphics/SVG/1.1/DTD/svg11.dtd">
<svg version="1.1" id="worker-small" xmlns="http://www.w3.org/2000/svg" xmlns:xlink="http://www.w3.org/1999/xlink" x="0px" y="0px"
	 width="34.59px" height="32.352px" viewBox="0 0 34.59 32.352" enable-background="new 0 0 34.59 32.352" xml:space="preserve">
<path d="M11,14H5.023L3.027,8.16l0.947-0.322L5.738,13H11V14z M20,3c0-1.658,1.344-3,3-3c1.658,0,3,1.342,3,3c0,1.656-1.342,3-3,3
	C21.344,6,20,4.656,20,3z M23.691,11.445l-3.951,2.844L12,13.539V12h7.174L23,7.988L27,6c2.295,2.189,3.309,3.99,3.99,7.09
	C31.742,16.504,30,22,30,22H18.691L18.24,32h-1.65l-1.35-12.611L25,18L23.691,11.445z M34.59,8l-2.152,16H27v5.008
	c2.4,0.092,4.096,0.865,5.855,2.639l-0.709,0.705c-1.572-1.584-3.023-2.256-5.146-2.342V32h-1v-1.99
	c-2.123,0.086-3.574,0.758-5.145,2.342l-0.709-0.705c1.758-1.773,3.455-2.547,5.854-2.639V24h-6v-1h11.564L33.58,8H34.59z M0,32V4h1
	v11h16v1H1v16H0z"/>
</svg>
