<?xml version="1.0" encoding="utf-8"?>
<!DOCTYPE svg PUBLIC "-//W3C//DTD SVG 1.1//EN" "http://www.w3.org/Graphics/SVG/1.1/DTD/svg11.dtd">
<svg version="1.1" id="worker-small" xmlns="http://www.w3.org/2000/svg" xmlns:xlink="http://www.w3.org/1999/xlink" x="0px" y="0px"
	 width="71.178px" height="32.352px" viewBox="0 0 71.178 32.352" enable-background="new 0 0 71.178 32.352" xml:space="preserve">
<path d="M47.588,14h-5.977l-1.996-5.84l0.945-0.322L42.326,13h5.262V14z M56.588,3c0-1.658,1.344-3,3-3s3,1.342,3,3
	c0,1.656-1.344,3-3,3S56.588,4.656,56.588,3z M60.279,11.445l-3.953,2.844l-7.738-0.75V12h7.174l3.826-4.012l4-1.988
	c2.295,2.189,3.309,3.99,3.99,7.09c0.752,3.414-0.99,8.91-0.99,8.91H55.277l-0.449,10h-1.65l-1.35-12.611L61.588,18L60.279,11.445z
	 M71.178,8l-2.152,16h-5.438v5.008c2.398,0.092,4.096,0.865,5.855,2.639l-0.711,0.705c-1.57-1.584-3.021-2.256-5.145-2.342V32h-1
	v-1.99c-2.123,0.086-3.574,0.758-5.145,2.342l-0.711-0.705c1.76-1.773,3.457-2.547,5.855-2.639V24h-6v-1H68.15l2.018-15H71.178z
	 M36.588,32V4h1v11h16v1h-16v16H36.588z M23.588,14h5.979l1.994-5.84l-0.945-0.322L28.852,13h-5.264V14z M14.588,3
	c0-1.658-1.344-3-3-3s-3,1.342-3,3c0,1.656,1.344,3,3,3S14.588,4.656,14.588,3z M10.898,11.445l3.951,2.844l7.738-0.75V12h-7.174
	l-3.826-4.012L7.588,6c-2.295,2.189-3.309,3.99-3.99,7.09C2.848,16.504,4.588,22,4.588,22h11.311l0.449,10h1.65l1.35-12.611
	L9.588,18L10.898,11.445z M0,8l2.15,16h5.438v5.008c-2.398,0.092-4.096,0.865-5.855,2.639l0.711,0.705
	c1.57-1.584,3.021-2.256,5.145-2.342V32h1v-1.99c2.123,0.086,3.574,0.758,5.145,2.342l0.711-0.705
	c-1.76-1.773-3.457-2.547-5.855-2.639V24h6v-1H3.025L1.008,8H0z M34.588,32V4h-1v11h-16v1h16v16H34.588z"/>
</svg>
