<?xml version="1.0" encoding="utf-8"?>
<!DOCTYPE svg PUBLIC "-//W3C//DTD SVG 1.1//EN" "http://www.w3.org/Graphics/SVG/1.1/DTD/svg11.dtd">
<svg version="1.1" id="building-3" xmlns="http://www.w3.org/2000/svg" xmlns:xlink="http://www.w3.org/1999/xlink" x="0px" y="0px"
	 width="42px" height="41px" viewBox="0 0 42 41" enable-background="new 0 0 42 41" xml:space="preserve">
<path d="M23,39v-9h-4v9H23z M18,29h6v10h13V6H5v33h13V29z M31,4V2H20v2H31z M33,0v4h6v35h3v2H0v-2h3V4h15V0H33z M27,29.125h6v6h-6
	V29.125z M32,30.125h-4v4h4V30.125z M14,12.125h-4v4h4V12.125z M9,11.125h6v6H9V11.125z M23,12.125h-4v4h4V12.125z M18,11.125h6v6
	h-6V11.125z M32,12.125h-4v4h4V12.125z M27,11.125h6v6h-6V11.125z M14,21.125h-4v4h4V21.125z M9,20.125h6v6H9V20.125z M23,21.125h-4
	v4h4V21.125z M18,20.125h6v6h-6V20.125z M32,21.125h-4v4h4V21.125z M27,20.125h6v6h-6V20.125z M14,30.125h-4v4h4V30.125z M9,29.125
	h6v6H9V29.125z"/>
</svg>
