<?xml version="1.0" encoding="utf-8"?>
<!DOCTYPE svg PUBLIC "-//W3C//DTD SVG 1.1//EN" "http://www.w3.org/Graphics/SVG/1.1/DTD/svg11.dtd">
<svg version="1.1" id="checklist" xmlns="http://www.w3.org/2000/svg" xmlns:xlink="http://www.w3.org/1999/xlink" x="0px" y="0px"
	 width="29px" height="40px" viewBox="0 0 29 40" enable-background="new 0 0 29 40" xml:space="preserve">
<path d="M13.5,2.5c0,0.553,0.447,1,1,1s1-0.447,1-1s-0.447-1-1-1S13.5,1.947,13.5,2.5z M27,6h-3.8L24,8H5l0.8-2H2v32h25V6z M29,4v36
	H0V4h6.6L7,3h5.05C12.018,2.838,12,2.67,12,2.5C12,1.119,13.119,0,14.5,0S17,1.119,17,2.5c0,0.17-0.018,0.338-0.05,0.5H22l0.4,1H29z
	 M11,12h13v1H11V12z M11,14h11v1H11V14z M11,21h13v1H11V21z M11,23h11v1H11V23z M11,30h13v1H11V30z M11,32h11v1H11V32z
	 M5.961,16.061c-0.161,0-0.312-0.076-0.406-0.207l-0.961-1.336c-0.161-0.225-0.109-0.537,0.114-0.697s0.536-0.111,0.698,0.113
	l0.555,0.771l2.158-2.998c0.162-0.225,0.476-0.273,0.698-0.113c0.225,0.162,0.275,0.475,0.113,0.697l-2.563,3.562
	C6.273,15.984,6.121,16.061,5.961,16.061z M5.961,25.061c-0.161,0-0.312-0.076-0.406-0.207l-0.961-1.336
	c-0.161-0.225-0.109-0.537,0.114-0.697s0.536-0.111,0.698,0.113l0.555,0.771l2.158-2.998c0.162-0.225,0.476-0.273,0.698-0.113
	c0.225,0.162,0.275,0.475,0.113,0.697l-2.563,3.562C6.273,24.984,6.121,25.061,5.961,25.061z M5.961,34.061
	c-0.161,0-0.312-0.076-0.406-0.207l-0.961-1.336c-0.161-0.225-0.109-0.537,0.114-0.697s0.536-0.111,0.698,0.113l0.555,0.771
	l2.158-2.998c0.162-0.225,0.476-0.273,0.698-0.113c0.225,0.162,0.275,0.475,0.113,0.697l-2.563,3.562
	C6.273,33.984,6.121,34.061,5.961,34.061z"/>
</svg>
