<?xml version="1.0" encoding="utf-8"?>
<!DOCTYPE svg PUBLIC "-//W3C//DTD SVG 1.1//EN" "http://www.w3.org/Graphics/SVG/1.1/DTD/svg11.dtd">
<svg version="1.1" id="cloud-tools" xmlns="http://www.w3.org/2000/svg" xmlns:xlink="http://www.w3.org/1999/xlink" x="0px" y="0px"
	 width="50px" height="39px" viewBox="0 0 50 39" enable-background="new 0 0 50 39" xml:space="preserve">
<path d="M10.904,39C4.883,39,0,34.117,0,28.096c0-4.33,2.523-8.07,6.18-9.83c-0.879-1.715-1.375-3.66-1.375-5.719
	C4.805,5.617,10.422,0,17.35,0c5.533,0,10.23,3.582,11.898,8.553c1.254-0.627,2.666-0.979,4.162-0.979
	c5.152,0,9.328,4.176,9.328,9.328c0,0.973-0.15,1.91-0.426,2.791C46.707,20.645,50,24.557,50,29.236C50,34.629,45.629,39,40.236,39
	H10.904z M40.236,21.473c-0.398,0-0.789,0.029-1.17,0.088c1.045-1.268,1.672-2.891,1.672-4.658c0-4.047-3.281-7.328-7.328-7.328
	c-2.203,0-4.18,0.973-5.523,2.514C27.646,6.475,23.021,2,17.35,2C11.525,2,6.805,6.721,6.805,12.547
	c0,2.586,0.932,4.957,2.477,6.791C5.139,20.102,2,23.732,2,28.096C2,33.014,5.986,37,10.904,37h29.332
	C44.523,37,48,33.523,48,29.236C48,24.947,44.523,21.473,40.236,21.473z M22.494,14.93c-1.109-0.33-2.361-0.059-3.238,0.818
	l-2.715,2.715c0.18,0.666,0.006,1.408-0.518,1.932s-1.264,0.695-1.932,0.518l-0.381,0.383l2.293,2.293l0.381-0.383
	c-0.178-0.666-0.006-1.408,0.518-1.932c0.781-0.781,2.047-0.781,2.828,0l10.061,11.061c0.766,0.85,1.82,0.852,2.482,0.189
	c0.664-0.664,0.66-1.717-0.189-2.482L21.023,19.98c-1.172-1.172-1.172-3.07,0-4.242C21.443,15.318,21.955,15.049,22.494,14.93z
	 M19.023,21.98c-0.93-0.932-2.344,0.482-1.414,1.414l-1.605,1.607l-3.707-3.707l1.605-1.607c0.932,0.932,2.346-0.482,1.414-1.414
	l3.232-3.232c1.662-1.662,4.359-1.662,6.021,0l0.697,0.697l-0.709,0.707c-0.779-0.781-2.047-0.781-2.828,0s-0.781,2.047,0,2.828
	l3.008,2.734l1.285-1.17c-0.609-1.68-0.24-3.635,1.107-4.982c1.611-1.611,4.096-1.822,5.936-0.633l-2.932,2.932
	c-0.391,0.391-0.391,1.023,0,1.414s1.023,0.391,1.414,0l2.932-2.932c1.191,1.84,0.98,4.324-0.633,5.938
	c-1.33,1.328-3.25,1.705-4.916,1.129l-1.055,1.16l4.879,4.436c1.23,1.109,1.334,2.822,0.225,3.932s-2.822,1.006-3.93-0.225
	l-4.289-4.717l-4.295,4.723c-1.113,1.234-2.836,1.32-3.943,0.213c-1.105-1.105-1.02-2.83,0.215-3.941l4.887-4.443L19.023,21.98z
	 M25.48,22.684l1.656,1.506l1.539-1.691c1.426,0.789,3.256,0.578,4.465-0.631c0.945-0.945,1.279-2.27,1.006-3.482l-1.891,1.891
	c-0.779,0.781-2.047,0.781-2.828,0s-0.781-2.047,0-2.828l1.891-1.891c-1.213-0.273-2.537,0.062-3.48,1.006
	c-1.227,1.227-1.426,3.09-0.6,4.523L25.48,22.684z M24.086,27.545l-1.789-1.965l-4.887,4.445c-0.846,0.762-0.846,1.826-0.178,2.492
	c0.666,0.668,1.73,0.668,2.492-0.178L24.086,27.545z"/>
</svg>
