<?xml version="1.0" encoding="utf-8"?>
<!DOCTYPE svg PUBLIC "-//W3C//DTD SVG 1.1//EN" "http://www.w3.org/Graphics/SVG/1.1/DTD/svg11.dtd">
<svg version="1.1" id="cloud-block-storage" xmlns="http://www.w3.org/2000/svg" xmlns:xlink="http://www.w3.org/1999/xlink" x="0px" y="0px"
	 width="50px" height="39px" viewBox="0 0 50 39" enable-background="new 0 0 50 39" xml:space="preserve">
<path d="M40.236,21.473c-0.397,0-0.789,0.029-1.17,0.088c1.044-1.268,1.671-2.891,1.671-4.658c0-4.047-3.28-7.328-7.327-7.328
	c-2.203,0-4.18,0.973-5.523,2.514C27.646,6.475,23.021,2,17.351,2C11.525,2,6.804,6.721,6.804,12.547
	c0,2.586,0.932,4.957,2.478,6.791C5.139,20.102,2,23.732,2,28.096C2,33.014,5.986,37,10.904,37h29.332
	C44.524,37,48,33.523,48,29.236C48,24.947,44.524,21.473,40.236,21.473z M10.904,39C4.882,39,0,34.117,0,28.096
	c0-4.33,2.523-8.07,6.18-9.83c-0.88-1.715-1.376-3.66-1.376-5.719C4.804,5.617,10.421,0,17.351,0c5.533,0,10.229,3.582,11.897,8.553
	c1.253-0.627,2.666-0.979,4.162-0.979c5.151,0,9.327,4.176,9.327,9.328c0,0.973-0.148,1.91-0.425,2.791
	C46.707,20.645,50,24.557,50,29.236C50,34.629,45.629,39,40.236,39H10.904z M21,33v1h-5v-1H21z M32,30V15H17v15H32z M25,31v1.084
	c0.582,0.207,1,0.762,1,1.416c0,0.828-0.672,1.5-1.5,1.5S23,34.328,23,33.5c0-0.654,0.418-1.209,1-1.416V31h-8V14h17v17H25z
	 M30.5,22.5c0,3.312-2.687,6-6,6s-6-2.688-6-6c0-3.314,2.687-6,6-6S30.5,19.186,30.5,22.5z M24.5,27.5c2.762,0,5-2.238,5-5
	s-2.238-5-5-5s-5,2.238-5,5S21.738,27.5,24.5,27.5z M24.5,20c1.381,0,2.5,1.119,2.5,2.5S25.881,25,24.5,25S22,23.881,22,22.5
	S23.119,20,24.5,20z M26,22.5c0-0.828-0.672-1.5-1.5-1.5S23,21.672,23,22.5s0.672,1.5,1.5,1.5S26,23.328,26,22.5z M33,33v1h-5v-1H33
	z"/>
</svg>
