<?xml version="1.0" encoding="utf-8"?>
<!DOCTYPE svg PUBLIC "-//W3C//DTD SVG 1.1//EN" "http://www.w3.org/Graphics/SVG/1.1/DTD/svg11.dtd">
<svg version="1.1" id="cloud-big-data" xmlns="http://www.w3.org/2000/svg" xmlns:xlink="http://www.w3.org/1999/xlink" x="0px" y="0px"
	 width="50px" height="39px" viewBox="0 0 50 39" enable-background="new 0 0 50 39" xml:space="preserve">
<path d="M40.236,21.473c-0.397,0-0.789,0.029-1.17,0.088c1.044-1.268,1.671-2.891,1.671-4.658c0-4.047-3.28-7.328-7.327-7.328
	c-2.203,0-4.18,0.973-5.523,2.514C27.646,6.475,23.021,2,17.351,2C11.525,2,6.804,6.721,6.804,12.547
	c0,2.586,0.932,4.957,2.478,6.791C5.139,20.102,2,23.732,2,28.096C2,33.014,5.986,37,10.904,37h29.332
	C44.524,37,48,33.523,48,29.236C48,24.947,44.524,21.473,40.236,21.473z M10.904,39C4.882,39,0,34.117,0,28.096
	c0-4.33,2.523-8.07,6.18-9.83c-0.88-1.715-1.376-3.66-1.376-5.719C4.804,5.617,10.421,0,17.351,0c5.533,0,10.229,3.582,11.897,8.553
	c1.253-0.627,2.666-0.979,4.162-0.979c5.151,0,9.327,4.176,9.327,9.328c0,0.973-0.148,1.91-0.425,2.791
	C46.707,20.645,50,24.557,50,29.236C50,34.629,45.629,39,40.236,39H10.904z M25,23h4v10h-4V23z M28,24h-2v8h2V24z M19,13h4v20h-4V13
	z M22,14h-2v18h2V14z M13,20h4v13h-4V20z M16,21h-2v11h2V21z M31,19h4v14h-4V19z M34,20h-2v12h2V20z"/>
</svg>
