<?xml version="1.0" encoding="utf-8"?>
<!DOCTYPE svg PUBLIC "-//W3C//DTD SVG 1.1//EN" "http://www.w3.org/Graphics/SVG/1.1/DTD/svg11.dtd">
<svg version="1.1" id="configuration" xmlns="http://www.w3.org/2000/svg" xmlns:xlink="http://www.w3.org/1999/xlink" x="0px" y="0px"
	 width="49px" height="51px" viewBox="0 0 49 51" enable-background="new 0 0 49 51" xml:space="preserve">
<path d="M47,49V32H2v17H47z M0,30h49v21H0V30z M31,36h8v1h-8V36z M42.5,38c-0.829,0-1.5-0.671-1.5-1.5c0-0.828,0.671-1.5,1.5-1.5
	c0.828,0,1.5,0.672,1.5,1.5C44,37.329,43.328,38,42.5,38z M28,46v1H5v-1V35v-1h23v1V46z M16,42v-3H6v3H16z M17,39v3h10v-3H17z
	 M27,35H17v3h10V35z M16,35H6v3h10V35z M6,46h10v-3H6V46z M17,46h10v-3H17V46z M0,0h49v13H0V0z M41,2H31v4h10V2z M30,2H19v4h11V2z
	 M18,2H8v4h10V2z M2,2v4h5V2H2z M2,11h10V7H2V11z M13,11h11V7H13V11z M25,11h11V7H25V11z M47,11V7H37v4H47z M47,6V2h-5v4H47z M0,15
	h49v13H0V15z M33.001,17h-2v3.793L36.208,26h3.586l-6.793-6.793V17z M30.001,17h-2v5.793L31.208,26h3.586l-4.793-4.793V17z
	 M21.001,17h-2v4.207L14.208,26h3.586l3.207-3.207V17z M18.001,17h-2v2.207L9.208,26h3.586l5.207-5.207V17z M2,17v9h5.794
	l7.207-7.207V17H2z M19.208,26h4.793v-9h-2v6.207L19.208,26z M25.001,17v9h4.793l-2.793-2.793V17H25.001z M47,26v-9H34.001v1.793
	L41.208,26H47z"/>
</svg>
