<?xml version="1.0" encoding="utf-8"?>
<!DOCTYPE svg PUBLIC "-//W3C//DTD SVG 1.1//EN" "http://www.w3.org/Graphics/SVG/1.1/DTD/svg11.dtd">
<svg version="1.1" id="data-replication-instance" xmlns="http://www.w3.org/2000/svg" xmlns:xlink="http://www.w3.org/1999/xlink" x="0px" y="0px"
	 width="40px" height="40px" viewBox="0 0 40 40" enable-background="new 0 0 40 40" xml:space="preserve">
<path d="M20,2C10.059,2,2,10.059,2,20s8.059,18,18,18s18-8.059,18-18S29.941,2,20,2z M0,20C0,8.954,8.953,0,20,0
	c11.045,0,20,8.954,20,20s-8.955,20-20,20C8.953,40,0,31.046,0,20z M24.854,17.146L27,19.293V15.5c0-1.381-1.12-2.5-2.5-2.5H22v-1
	h2.5c1.933,0,3.5,1.566,3.5,3.5v3.793l2.146-2.146l0.707,0.707L27.5,21.207l-3.354-3.354L24.854,17.146z M30,30v-6h-7v-1h-3v7H30z
	 M31,31H19v-9h5v1h7V31z M20,17v-6h-7v-1h-3v7H20z M21,18H9V9h5v1h7V18z M15.146,23.854L13,21.707V25.5c0,1.381,1.119,2.5,2.5,2.5
	H18v1h-2.5c-1.934,0-3.5-1.567-3.5-3.5v-3.793l-2.146,2.146l-0.707-0.707l3.354-3.354l3.354,3.354L15.146,23.854z"/>
</svg>
