<?xml version="1.0" encoding="utf-8"?>
<!DOCTYPE svg PUBLIC "-//W3C//DTD SVG 1.1//EN" "http://www.w3.org/Graphics/SVG/1.1/DTD/svg11.dtd">
<svg version="1.1" id="ddos-mitigation-traffic-filtering" xmlns="http://www.w3.org/2000/svg" xmlns:xlink="http://www.w3.org/1999/xlink" x="0px" y="0px"
	 width="49px" height="21px" viewBox="0 0 49 21" enable-background="new 0 0 49 21" xml:space="preserve">
<path d="M0,0v21h49V0H0z M47,16.793L44.793,19h-1.586L47,15.207V16.793z M37.207,13l5-5h4.586l-5,5H37.207z M31.207,13l5-5h4.586
	l-5,5H31.207z M25.207,13l5-5h4.586l-5,5H25.207z M19.207,13l5-5h4.586l-5,5H19.207z M13.207,13l5-5h4.586l-5,5H13.207z M31.207,7
	l5-5h10.586l-5,5H31.207z M29.793,7H19.207l5-5h10.586L29.793,7z M17.793,7H7.207l5-5h10.586L17.793,7z M10.793,8l-5,5H2v-0.793
	L6.207,8H10.793z M2,14h2.793L2,16.793V14z M12.207,8h4.586l-5,5H7.207L12.207,8z M10.793,14l-5,5H4.207l5-5H10.793z M12.207,14
	h1.586l-5,5H7.207L12.207,14z M15.207,14h1.586l-5,5h-1.586L15.207,14z M18.207,14h1.586l-5,5h-1.586L18.207,14z M21.207,14h1.586
	l-5,5h-1.586L21.207,14z M24.207,14h1.586l-5,5h-1.586L24.207,14z M27.207,14h1.586l-5,5h-1.586L27.207,14z M30.207,14h1.586l-5,5
	h-1.586L30.207,14z M33.207,14h1.586l-5,5h-1.586L33.207,14z M36.207,14h1.586l-5,5h-1.586L36.207,14z M39.207,14h1.586l-5,5h-1.586
	L39.207,14z M42.207,14h1.586l-5,5h-1.586L42.207,14z M45.207,14h1.586l-5,5h-1.586L45.207,14z M47,13h-3.793L47,9.207V13z M47,7
	h-3.793L47,3.207V7z M2,2h8.793l-5,5H2V2z M4.793,8L2,10.793V8H4.793z M2,18.207L6.207,14h1.586l-5,5H2V18.207z M46.207,19
	L47,18.207V19H46.207z"/>
</svg>
