<?xml version="1.0" encoding="utf-8"?>
<!DOCTYPE svg PUBLIC "-//W3C//DTD SVG 1.1//EN" "http://www.w3.org/Graphics/SVG/1.1/DTD/svg11.dtd">
<svg version="1.1" id="dedicated-monitoring" xmlns="http://www.w3.org/2000/svg" xmlns:xlink="http://www.w3.org/1999/xlink" x="0px" y="0px"
	 width="34px" height="34px" viewBox="0 0 34 34" enable-background="new 0 0 34 34" xml:space="preserve">
<path d="M7,17c0-5.523,4.477-10,10-10c5.522,0,10,4.477,10,10s-4.478,10-10,10C11.477,27,7,22.523,7,17z M25.945,16h-3.896
	l-1.301,4.004h-1.051l-2.398-7.383l-3.049,9.383h-1.052L11.897,18H8.055c0.498,4.5,4.312,8,8.945,8c4.971,0,9-4.029,9-9
	C26,16.662,25.981,16.328,25.945,16z M17.824,11.004l2.398,7.381l1.099-3.381L25.777,15c-0.91-4.008-4.494-7-8.777-7
	c-4.971,0-9,4.029-9,9l4.625,0.004l1.1,3.381l3.048-9.381H17.824z M32,2H2v30h30V2z M0,0h34v34H0V0z"/>
</svg>
