<?xml version="1.0" encoding="utf-8"?>
<!DOCTYPE svg PUBLIC "-//W3C//DTD SVG 1.1//EN" "http://www.w3.org/Graphics/SVG/1.1/DTD/svg11.dtd">
<svg version="1.1" id="dedicated-load-balancers-ha" xmlns="http://www.w3.org/2000/svg" xmlns:xlink="http://www.w3.org/1999/xlink" x="0px" y="0px"
	 width="56.99px" height="29px" viewBox="0 0 56.99 29" enable-background="new 0 0 56.99 29" xml:space="preserve">
<path d="M49,0H0v13h49V7.016c0.662,0.043,1.3,0.172,1.904,0.375l0.383-0.926c-0.723-0.25-1.49-0.406-2.287-0.451V0z M2,11V2h13
	v1.793L7.793,11H2z M9.207,11L16,4.207V2h2v3.793L12.793,11H9.207z M14.207,11L19,6.207V2h2v5.793L17.793,11H14.207z M24,11h-4.793
	L22,8.207V2h2V11z M25,11V2h2v6.207L29.793,11H25z M31.207,11L28,7.793V2h2v4.207L34.793,11H31.207z M36.207,11L31,5.793V2h2v2.207
	L39.793,11H36.207z M47,11h-5.793L34,3.793V2h13V11z M50.902,21.607C50.3,21.811,49.661,21.939,49,21.984V16H0v13h49v-6.014
	c0.797-0.047,1.564-0.201,2.287-0.453L50.902,21.607z M2,27v-9h13v1.793L7.793,27H2z M9.207,27L16,20.207V18h2v3.793L12.793,27
	H9.207z M14.207,27L19,22.207V18h2v5.793L17.793,27H14.207z M24,27h-4.793L22,24.207V18h2V27z M25,27v-9h2v6.207L29.793,27H25z
	 M31.207,27L28,23.793V18h2v4.207L34.793,27H31.207z M36.207,27L31,21.793V18h2v2.207L39.793,27H36.207z M47,27h-5.793L34,19.793V18
	h13V27z M54.148,9.559l0.707-0.709c0.518,0.58,0.955,1.232,1.299,1.939l-0.926,0.383C54.938,10.586,54.574,10.045,54.148,9.559z
	 M55.611,12.096l0.926-0.385c0.25,0.725,0.406,1.492,0.453,2.289h-1.002C55.945,13.338,55.814,12.699,55.611,12.096z M53.439,8.852
	c-0.486-0.424-1.027-0.789-1.611-1.078l0.383-0.926c0.705,0.344,1.357,0.781,1.938,1.297L53.439,8.852z M55.988,15h1.002
	c-0.047,0.797-0.203,1.564-0.453,2.287l-0.926-0.383C55.814,16.301,55.945,15.662,55.988,15z M53.439,20.146l0.709,0.709
	c-0.58,0.516-1.232,0.953-1.938,1.297l-0.385-0.926C52.412,20.936,52.953,20.572,53.439,20.146z M55.229,17.828l0.926,0.383
	c-0.344,0.707-0.781,1.357-1.299,1.938l-0.709-0.707C54.574,18.955,54.938,18.412,55.229,17.828z"/>
</svg>
