<?xml version="1.0" encoding="utf-8"?>
<!DOCTYPE svg PUBLIC "-//W3C//DTD SVG 1.1//EN" "http://www.w3.org/Graphics/SVG/1.1/DTD/svg11.dtd">
<svg version="1.1" id="dedicated-generic-device-1" xmlns="http://www.w3.org/2000/svg" xmlns:xlink="http://www.w3.org/1999/xlink" x="0px" y="0px"
	 width="49px" height="21px" viewBox="0 0 49 21" enable-background="new 0 0 49 21" xml:space="preserve">
<path d="M0,0v21h49V0H0z M47,19H2V2h45V19z M38,16V5V4H4v1v11v1h34V16z M37,5v3.998c-1.191,0-1.672-0.58-2.279-1.314
	C34.072,6.896,33.336,6.006,31.67,6c-1.662,0.006-2.398,0.896-3.049,1.684C28.014,8.418,27.533,9,26.338,9s-1.676-0.582-2.283-1.316
	C23.404,6.896,22.67,6.006,21.004,6c-1.664,0.006-2.4,0.896-3.049,1.684C17.348,8.418,16.867,9,15.672,9s-1.676-0.58-2.283-1.316
	C12.738,6.896,12.004,6.006,10.336,6C8.674,6.006,7.938,6.896,7.289,7.684C6.68,8.418,6.201,9,5.006,9L5,9.004V5H37z M34,16v-4h-1v4
	h-1v-4h-3v4h-2v-5h-1v5h-1v-3h-3v3h-2v-5h-1v5h-1v-4h-3v4h-2v-4h-1v4h-1v-6H8v6H5V9.994L5.006,10c1.666,0,2.402-0.893,3.053-1.68
	C8.666,7.586,9.146,7.004,10.336,7c1.195,0.004,1.674,0.586,2.281,1.32c0.65,0.787,1.387,1.68,3.055,1.68
	c1.666,0,2.402-0.893,3.053-1.68c0.609-0.734,1.088-1.316,2.279-1.32c1.193,0.004,1.672,0.584,2.279,1.32
	c0.65,0.787,1.389,1.68,3.055,1.68c1.668,0,2.404-0.893,3.055-1.68C30,7.584,30.48,7.004,31.67,7
	c1.193,0.004,1.674,0.586,2.281,1.32c0.65,0.787,1.387,1.678,3.049,1.678V16H34z M41,6.5C41,5.672,41.672,5,42.5,5S44,5.672,44,6.5
	S43.328,8,42.5,8S41,7.328,41,6.5z M41,11.5c0-0.828,0.672-1.5,1.5-1.5s1.5,0.672,1.5,1.5S43.328,13,42.5,13S41,12.328,41,11.5z"/>
</svg>
