<?xml version="1.0" encoding="utf-8"?>
<!DOCTYPE svg PUBLIC "-//W3C//DTD SVG 1.1//EN" "http://www.w3.org/Graphics/SVG/1.1/DTD/svg11.dtd">
<svg version="1.1" id="dedicated-storage" xmlns="http://www.w3.org/2000/svg" xmlns:xlink="http://www.w3.org/1999/xlink" x="0px" y="0px"
	 width="34px" height="34px" viewBox="0 0 34 34" enable-background="new 0 0 34 34" xml:space="preserve">
<path d="M32,2H2v30h30V2z M0,0h34v34H0V0z M26,12.5c0-1.646-3.604-3.5-9-3.5c-5.395,0-9,1.854-9,3.5s3.605,3.5,9,3.5
	C22.396,16,26,14.146,26,12.5z M8.244,14.732C8.076,14.996,8,15.254,8,15.5c0,1.646,3.605,3.5,9,3.5c5.396,0,9-1.854,9-3.5
	c0-0.246-0.076-0.504-0.242-0.768C23.98,16.168,20.537,17,17,17C13.465,17,10.021,16.168,8.244,14.732z M25.758,20.732
	C23.98,22.168,20.537,23,17,23s-6.979-0.832-8.756-2.268C8.076,20.996,8,21.254,8,21.5c0,1.646,3.605,3.5,9,3.5
	c5.396,0,9-1.854,9-3.5C26,21.254,25.924,20.996,25.758,20.732z M26.469,17.006C26.801,17.451,27,17.953,27,18.5
	c0,0.545-0.188,1.047-0.531,1.506C26.801,20.451,27,20.953,27,21.5c0,2.771-4.902,4.5-10,4.5c-5.096,0-10-1.729-10-4.5
	c0-0.547,0.199-1.049,0.531-1.494C7.189,19.547,7,19.045,7,18.5c0-0.547,0.199-1.049,0.531-1.494C7.189,16.547,7,16.045,7,15.5
	c0-0.547,0.199-1.049,0.531-1.494C7.189,13.547,7,13.045,7,12.5C7,9.729,11.904,8,17,8c5.098,0,10,1.729,10,4.5
	c0,0.545-0.188,1.047-0.531,1.506C26.801,14.451,27,14.953,27,15.5C27,16.045,26.812,16.547,26.469,17.006z M8.244,17.732
	C8.076,17.996,8,18.254,8,18.5c0,1.646,3.605,3.5,9,3.5c5.396,0,9-1.854,9-3.5c0-0.246-0.076-0.504-0.242-0.768
	C23.98,19.168,20.537,20,17,20S10.021,19.168,8.244,17.732z M18.596,12.27C18.213,12.109,17.648,12,17,12
	c-0.574,0-1.574,0.1-2.027,0.545c0.211,0.43,1.695,0.561,2.027,0.561c0.574,0,1.574-0.098,2.027-0.545
	C18.967,12.439,18.697,12.312,18.596,12.27z M18.98,11.348c0.469,0.195,1.047,0.576,1.047,1.205c0,1.277-2.152,1.553-3.027,1.553
	s-3.027-0.275-3.027-1.553S16.125,11,17,11C17.748,11,18.447,11.125,18.98,11.348z"/>
</svg>
