<?xml version="1.0" encoding="utf-8"?>
<!DOCTYPE svg PUBLIC "-//W3C//DTD SVG 1.1//EN" "http://www.w3.org/Graphics/SVG/1.1/DTD/svg11.dtd">
<svg version="1.1" id="dedicated-firewalls-ha" xmlns="http://www.w3.org/2000/svg" xmlns:xlink="http://www.w3.org/1999/xlink" x="0px" y="0px"
	 width="56.99px" height="29px" viewBox="0 0 56.99 29" enable-background="new 0 0 56.99 29" xml:space="preserve">
<path d="M54.148,9.559l0.708-0.709c0.517,0.58,0.954,1.232,1.298,1.939l-0.926,0.383C54.938,10.586,54.574,10.045,54.148,9.559z
	 M54.149,8.145c-0.581-0.516-1.232-0.953-1.938-1.297l-0.383,0.926c0.584,0.289,1.126,0.654,1.612,1.078L54.149,8.145z M55.988,14
	h1.002c-0.046-0.797-0.202-1.564-0.453-2.289l-0.926,0.385C55.815,12.699,55.945,13.338,55.988,14z M54.147,19.441l0.709,0.707
	c0.517-0.58,0.954-1.23,1.298-1.938l-0.926-0.383C54.938,18.412,54.574,18.955,54.147,19.441z M55.611,16.904l0.926,0.383
	c0.251-0.723,0.407-1.49,0.453-2.287h-1.002C55.945,15.662,55.815,16.301,55.611,16.904z M51.827,21.227l0.384,0.926
	c0.706-0.344,1.357-0.781,1.938-1.297l-0.708-0.709C52.954,20.572,52.412,20.936,51.827,21.227z M50.903,21.607l0.384,0.926
	c-0.723,0.252-1.49,0.406-2.287,0.453V29H0V16h49v5.984C49.661,21.939,50.3,21.811,50.903,21.607z M31,22h11v-4H31V22z M19,22h11v-4
	H19V22z M7,22h11v-4H7V22z M2,22h4v-4H2V22z M12,23H2v4h10V23z M24,23H13v4h11V23z M36,23H25v4h11V23z M47,23H37v4h10V23z M47,18h-4
	v4h4V18z M49,6.014c0.797,0.045,1.564,0.201,2.287,0.451l-0.383,0.926C50.3,7.188,49.662,7.059,49,7.016V13H0V0h49V6.014z M31,6h11
	V2H31V6z M19,6h11V2H19V6z M7,6h11V2H7V6z M2,6h4V2H2V6z M12,7H2v4h10V7z M24,7H13v4h11V7z M36,7H25v4h11V7z M47,7H37v4h10V7z M47,2
	h-4v4h4V2z"/>
</svg>
