<?xml version="1.0" encoding="utf-8"?>
<!DOCTYPE svg PUBLIC "-//W3C//DTD SVG 1.1//EN" "http://www.w3.org/Graphics/SVG/1.1/DTD/svg11.dtd">
<svg version="1.1" id="ecommerce-website" xmlns="http://www.w3.org/2000/svg" xmlns:xlink="http://www.w3.org/1999/xlink" x="0px" y="0px"
	 width="67px" height="51px" viewBox="0 0 67 51" enable-background="new 0 0 67 51" xml:space="preserve">
<path d="M15,31H7v-1h8V31z M67,0v51H0V0H67z M10,3c0,0.553,0.447,1,1,1s1-0.447,1-1s-0.447-1-1-1S10,2.447,10,3z M6,3
	c0,0.553,0.447,1,1,1s1-0.447,1-1S7.553,2,7,2S6,2.447,6,3z M2,3c0,0.553,0.447,1,1,1s1-0.447,1-1S3.553,2,3,2S2,2.447,2,3z M65,16
	H2v33h63V16z M65,6H2v9h63V6z M13,41H7v1h6V41z M15,38H7v1h8V38z M13,33H7v1h6V33z M13,25H7v1h6V25z M15,22H7v1h8V22z M30.115,21.5
	H24v-1h6.885l0.666,2.5H55l-3.6,13.5H34.5c-0.967,0-1.75,0.783-1.75,1.75S33.533,40,34.5,40h17v1h-17c-1.519,0-2.75-1.23-2.75-2.75
	c0-1.301,0.904-2.393,2.119-2.678L30.115,21.5z M51.031,34H34.484l0.4,1.5h15.747L51.031,34z M51.699,31.5H33.817l0.4,1.5h17.081
	L51.699,31.5z M52.365,29H33.15l0.4,1.5h18.414L52.365,29z M53.031,26.5H32.484l0.4,1.5h19.747L53.031,26.5z M31.817,24l0.399,1.5
	h21.082l0.4-1.5H31.817z M35,42c-0.553,0-1,0.447-1,1s0.447,1,1,1s1-0.447,1-1S35.553,42,35,42z M50.5,42c-0.553,0-1,0.447-1,1
	s0.447,1,1,1s1-0.447,1-1S51.053,42,50.5,42z"/>
</svg>
