<?xml version="1.0" encoding="utf-8"?>
<!DOCTYPE svg PUBLIC "-//W3C//DTD SVG 1.1//EN" "http://www.w3.org/Graphics/SVG/1.1/DTD/svg11.dtd">
<svg version="1.1" id="flame" xmlns="http://www.w3.org/2000/svg" xmlns:xlink="http://www.w3.org/1999/xlink" x="0px" y="0px"
	 width="21px" height="32px" viewBox="0 0 21 32" enable-background="new 0 0 21 32" xml:space="preserve">
<path d="M4.406,32c-3.535-1.787-4.816-5.801-4.294-8.986C0.854,18.5,5.418,16.02,2.641,11.648c1.595-0.201,2.939,0.053,4.031,0.584
	C4.412,8.18,4.858,3.506,10.7,0c-1.819,6.66,2.379,9.141,6.543,14.076c5.678,6.73,4.776,14.814-1.735,17.924h-1.608
	c1.381-1.432,3.563-4.486,2.196-8.553c-0.225,1.016-2.18,2.709-5.351,2.348c1.835-1.229,2.454-5.461-0.714-9.365
	c0.18,0.764,0.191,1.506,0.03,2.129c-0.912,3.539-5.074,4.486-5.183,8.867C4.827,29.562,5.855,31.104,6.701,32H4.406z"/>
</svg>
