<?xml version="1.0" encoding="utf-8"?>
<!DOCTYPE svg PUBLIC "-//W3C//DTD SVG 1.1//EN" "http://www.w3.org/Graphics/SVG/1.1/DTD/svg11.dtd">
<svg version="1.1" id="gear-large" xmlns="http://www.w3.org/2000/svg" xmlns:xlink="http://www.w3.org/1999/xlink" x="0px" y="0px"
	 width="34px" height="34px" viewBox="0 0 34 34" enable-background="new 0 0 34 34" xml:space="preserve">
<path d="M31.838,18.066c0.068-0.15,0.163-0.514,0.163-1.066s-0.095-0.916-0.163-1.066l-2.204-0.207
	c-0.337-0.031-0.76-0.193-0.864-0.787c-0.123-0.709-0.311-1.41-0.561-2.082c-0.098-0.318-0.105-0.736,0.369-1.072l1.806-1.279
	c-0.017-0.164-0.116-0.527-0.393-1.008c-0.276-0.477-0.54-0.744-0.675-0.842L27.305,9.58c-0.445,0.203-0.834,0.115-1.135-0.238
	c-0.455-0.545-0.959-1.049-1.5-1.504c-0.461-0.387-0.391-0.834-0.25-1.143l0.924-2.012c-0.097-0.133-0.364-0.398-0.843-0.674
	c-0.43-0.248-0.808-0.373-1.006-0.393l-1.279,1.805c-0.267,0.375-0.622,0.512-1.055,0.375c-0.724-0.262-1.409-0.445-2.099-0.566
	c-0.595-0.104-0.758-0.527-0.789-0.865l-0.206-2.203C17.917,2.094,17.553,2,17.001,2s-0.917,0.096-1.067,0.162l-0.133,1.414
	l-0.073,0.789c-0.031,0.338-0.194,0.762-0.789,0.865c-0.709,0.123-1.409,0.312-2.079,0.561c-0.529,0.168-0.807,0.006-1.073-0.369
	l-0.18-0.252l-1.098-1.551C10.29,3.643,9.921,3.768,9.501,4.01C9.022,4.285,8.754,4.551,8.658,4.684l0.923,2.012
	C9.783,7.135,9.7,7.527,9.342,7.83c-0.543,0.455-1.048,0.959-1.503,1.5C7.533,9.695,7.141,9.783,6.697,9.58L4.665,8.648
	C4.581,8.723,4.303,8.994,4.01,9.498c-0.275,0.48-0.376,0.844-0.393,1.008l1.806,1.279c0.377,0.268,0.506,0.633,0.374,1.057
	c-0.262,0.719-0.444,1.404-0.564,2.096c-0.105,0.596-0.528,0.758-0.865,0.789l-2.203,0.207C2.096,16.084,2.001,16.447,2.001,17
	s0.095,0.916,0.163,1.066l1.593,0.148l0.61,0.057c0.338,0.033,0.76,0.195,0.864,0.789c0.124,0.709,0.312,1.41,0.561,2.08
	c0.099,0.318,0.106,0.736-0.368,1.072l-1.807,1.281c0.017,0.164,0.117,0.527,0.393,1.006c0.277,0.479,0.541,0.746,0.676,0.842
	l2.011-0.924c0.442-0.203,0.834-0.115,1.136,0.24c0.457,0.547,0.961,1.051,1.499,1.504c0.462,0.387,0.392,0.834,0.251,1.141
	l-0.924,2.012c0.096,0.135,0.363,0.398,0.842,0.676c0.434,0.25,0.805,0.373,1.007,0.393l1.278-1.807
	c0.267-0.373,0.62-0.506,1.045-0.377c0.701,0.258,1.4,0.445,2.107,0.568c0.596,0.105,0.759,0.529,0.79,0.865l0.073,0.789
	l0.133,1.414C16.084,31.904,16.449,32,17.001,32s0.916-0.096,1.066-0.162l0.207-2.205c0.03-0.336,0.192-0.76,0.787-0.865
	c0.708-0.121,1.407-0.311,2.081-0.559c0.529-0.166,0.807-0.008,1.072,0.367l1.277,1.803c0.222-0.021,0.586-0.145,1.009-0.389
	c0.479-0.277,0.746-0.541,0.843-0.676l-0.924-2.01c-0.201-0.439-0.118-0.832,0.238-1.135c0.547-0.459,1.052-0.963,1.504-1.502
	c0.305-0.361,0.696-0.453,1.143-0.25l2.031,0.934c0.084-0.076,0.363-0.346,0.655-0.852c0.276-0.479,0.376-0.842,0.393-1.006
	l-1.806-1.279c-0.376-0.268-0.506-0.631-0.375-1.055c0.264-0.727,0.447-1.412,0.566-2.098c0.104-0.596,0.527-0.758,0.864-0.789
	l0.406-0.039L31.838,18.066z M21.024,3.645l0.917-1.295c0.648-0.922,1.734-0.762,2.224-0.637c0.583,0.148,1.113,0.438,1.337,0.564
	c0.223,0.129,0.736,0.445,1.156,0.875c0.352,0.361,1.035,1.221,0.561,2.242l-0.664,1.443c0.208,0.195,0.41,0.398,0.607,0.607
	l1.442-0.662c1.022-0.475,1.883,0.209,2.243,0.561c0.431,0.42,0.746,0.934,0.875,1.158c0.129,0.223,0.416,0.752,0.564,1.336
	c0.125,0.486,0.287,1.572-0.635,2.221l-1.297,0.918c0.082,0.273,0.156,0.551,0.223,0.83l1.58,0.148
	c1.123,0.1,1.525,1.121,1.662,1.607c0.162,0.578,0.18,1.182,0.18,1.439s-0.018,0.859-0.18,1.438
	c-0.136,0.486-0.539,1.508-1.662,1.607l-1.581,0.148c-0.065,0.275-0.139,0.553-0.222,0.828l1.295,0.918
	c0.922,0.648,0.761,1.734,0.637,2.223c-0.149,0.584-0.437,1.113-0.565,1.338c-0.129,0.223-0.444,0.736-0.874,1.156
	c-0.361,0.352-1.221,1.035-2.242,0.561l-1.444-0.664c-0.194,0.207-0.397,0.41-0.607,0.607l0.662,1.443
	c0.476,1.021-0.208,1.883-0.56,2.242c-0.421,0.432-0.936,0.746-1.158,0.875s-0.753,0.416-1.336,0.564
	c-0.487,0.125-1.574,0.287-2.222-0.635l-0.919-1.297c-0.271,0.082-0.549,0.156-0.83,0.223l-0.146,1.58
	c-0.101,1.123-1.122,1.525-1.607,1.662C17.858,33.982,17.256,34,16.998,34s-0.86-0.018-1.439-0.18
	c-0.484-0.135-1.506-0.539-1.606-1.662l-0.147-1.58c-0.28-0.066-0.558-0.141-0.829-0.223l-0.917,1.295
	c-0.648,0.922-1.735,0.76-2.224,0.637c-0.583-0.15-1.113-0.438-1.337-0.566c-0.223-0.129-0.736-0.443-1.156-0.873
	c-0.352-0.361-1.035-1.221-0.561-2.242l0.663-1.443c-0.208-0.195-0.411-0.398-0.607-0.609l-1.442,0.664
	c-1.022,0.475-1.883-0.209-2.243-0.561c-0.431-0.422-0.746-0.936-0.875-1.158s-0.416-0.752-0.564-1.336
	c-0.125-0.488-0.286-1.574,0.636-2.223l1.296-0.918c-0.082-0.271-0.156-0.549-0.222-0.83l-1.58-0.146
	c-1.124-0.1-1.527-1.121-1.663-1.607C0.016,17.859,0,17.256,0,16.998s0.016-0.861,0.178-1.439c0.137-0.484,0.539-1.506,1.662-1.605
	l1.582-0.148c0.066-0.281,0.141-0.557,0.222-0.828L2.35,12.059c-0.922-0.648-0.761-1.734-0.637-2.225
	c0.149-0.582,0.437-1.113,0.565-1.336s0.444-0.736,0.874-1.156C3.514,6.99,4.373,6.307,5.396,6.781l1.442,0.662
	c0.198-0.209,0.4-0.41,0.607-0.605L6.783,5.395C6.309,4.371,6.992,3.512,7.344,3.15c0.42-0.43,0.935-0.746,1.157-0.873
	c0.224-0.129,0.753-0.416,1.336-0.566c0.487-0.123,1.574-0.285,2.222,0.637l0.918,1.297c0.273-0.084,0.551-0.158,0.83-0.223
	l0.148-1.58c0.1-1.123,1.121-1.527,1.606-1.664C16.141,0.016,16.744,0,17.001,0c0.258,0,0.86,0.016,1.439,0.178
	c0.485,0.137,1.507,0.539,1.606,1.662l0.147,1.582C20.475,3.488,20.753,3.562,21.024,3.645z M17,8.977
	c4.424,0,8.022,3.6,8.022,8.021c0,4.424-3.599,8.023-8.022,8.023s-8.022-3.6-8.022-8.023C8.978,12.576,12.576,8.977,17,8.977z
	 M17,24.021c3.872,0,7.022-3.15,7.022-7.023c0-3.871-3.15-7.021-7.022-7.021s-7.022,3.15-7.022,7.021
	C9.978,20.871,13.128,24.021,17,24.021z"/>
</svg>
