<?xml version="1.0" encoding="utf-8"?>
<!DOCTYPE svg PUBLIC "-//W3C//DTD SVG 1.1//EN" "http://www.w3.org/Graphics/SVG/1.1/DTD/svg11.dtd">
<svg version="1.1" id="gear-enclosed" xmlns="http://www.w3.org/2000/svg" xmlns:xlink="http://www.w3.org/1999/xlink" x="0px" y="0px"
	 width="32px" height="32px" viewBox="0 0 32 32" enable-background="new 0 0 32 32" xml:space="preserve">
<path d="M16,2C8.268,2,2,8.268,2,16s6.268,14,14,14s14-6.268,14-14S23.732,2,16,2z M32,16c0,8.836-7.163,16-16,16S0,24.836,0,16
	C0,7.162,7.163,0,16,0S32,7.162,32,16z M25.67,14.301c0.83,0.133,0.83,1.23,0.83,1.699s0,1.564-0.826,1.697l-2.256,0.352
	c-0.193,0.654-0.4,1.154-0.654,1.621l1.275,1.967c0.492,0.682-0.283,1.457-0.615,1.787c-0.789,0.789-1.345,0.936-1.785,0.617
	l-1.842-1.348c-0.594,0.324-1.093,0.531-1.609,0.686l-0.488,2.291c-0.135,0.83-1.232,0.83-1.7,0.83s-1.563,0-1.698-0.826
	l-0.351-2.256c-0.651-0.191-1.151-0.398-1.622-0.654l-1.966,1.275c-0.448,0.324-0.998,0.174-1.787-0.615
	c-0.331-0.33-1.107-1.105-0.617-1.785l1.347-1.844c-0.324-0.594-0.531-1.094-0.684-1.609l-2.293-0.486C5.5,17.564,5.5,16.469,5.5,16
	s0-1.568,0.826-1.699l2.256-0.352c0.189-0.648,0.396-1.146,0.653-1.621l-1.276-1.967c-0.492-0.68,0.285-1.455,0.616-1.787
	c0.789-0.789,1.345-0.936,1.784-0.617l1.844,1.348c0.594-0.324,1.094-0.531,1.609-0.684L14.3,6.328
	C14.436,5.5,15.531,5.5,15.999,5.5s1.564,0,1.7,0.824l0.35,2.258c0.65,0.189,1.15,0.396,1.621,0.652l1.967-1.275
	c0.449-0.322,0.998-0.174,1.787,0.615c0.332,0.332,1.107,1.107,0.617,1.785l-1.347,1.844c0.323,0.59,0.53,1.09,0.685,1.607
	L25.67,14.301z M25.425,16.725C25.453,16.645,25.5,16.443,25.5,16c0-0.445-0.047-0.645-0.075-0.725l-2.165-0.338
	c-0.623-0.117-0.78-0.643-0.84-0.84c-0.135-0.453-0.314-0.887-0.535-1.291c-0.099-0.186-0.357-0.668-0.01-1.178l1.303-1.781
	c-0.038-0.078-0.146-0.252-0.461-0.566c-0.314-0.312-0.488-0.422-0.565-0.459l-1.769,1.293c-0.414,0.283-0.881,0.166-1.188,0
	c-0.412-0.225-0.846-0.404-1.292-0.535c-0.201-0.061-0.726-0.221-0.839-0.826l-0.339-2.18C16.645,6.547,16.443,6.5,15.999,6.5
	s-0.645,0.047-0.726,0.074l-0.336,2.164c-0.115,0.621-0.641,0.781-0.838,0.84c-0.452,0.135-0.887,0.314-1.293,0.535
	c-0.314,0.168-0.795,0.273-1.178,0.01L9.846,8.82C9.776,8.855,9.602,8.963,9.282,9.281C8.969,9.596,8.859,9.77,8.822,9.848
	l1.293,1.77c0.355,0.52,0.098,1.004,0,1.186c-0.225,0.414-0.404,0.848-0.535,1.293c-0.061,0.201-0.219,0.725-0.825,0.84
	l-2.181,0.338C6.547,15.355,6.5,15.557,6.5,16s0.047,0.645,0.074,0.725l2.164,0.336c0.621,0.117,0.781,0.641,0.841,0.84
	c0.134,0.451,0.313,0.885,0.535,1.293c0.099,0.184,0.357,0.668,0.009,1.176L8.822,22.15c0.037,0.078,0.146,0.252,0.46,0.566
	c0.313,0.314,0.489,0.424,0.565,0.461l1.769-1.293c0.415-0.283,0.882-0.166,1.188,0c0.411,0.223,0.845,0.402,1.292,0.535
	c0.2,0.061,0.727,0.219,0.84,0.824l0.338,2.182c0.08,0.027,0.281,0.074,0.726,0.074c0.445,0,0.646-0.047,0.727-0.074l0.336-2.166
	c0.116-0.621,0.642-0.779,0.839-0.84c0.452-0.135,0.887-0.312,1.292-0.535c0.314-0.168,0.794-0.271,1.178-0.01l1.782,1.303
	c0.07-0.035,0.246-0.143,0.564-0.461c0.314-0.314,0.424-0.488,0.461-0.566l-1.293-1.768c-0.357-0.521-0.099-1.006-0.002-1.188
	c0.224-0.41,0.404-0.844,0.537-1.293c0.06-0.199,0.217-0.725,0.825-0.838L25.425,16.725z M15.999,19.457
	c1.906,0,3.457-1.551,3.457-3.457s-1.551-3.457-3.457-3.457c-1.905,0-3.456,1.551-3.456,3.457S14.094,19.457,15.999,19.457z
	 M15.999,11.543c2.458,0,4.457,2,4.457,4.457s-1.999,4.457-4.457,4.457c-2.457,0-4.456-2-4.456-4.457S13.542,11.543,15.999,11.543z"
	/>
</svg>
