<?xml version="1.0" encoding="utf-8"?>
<!DOCTYPE svg PUBLIC "-//W3C//DTD SVG 1.1//EN" "http://www.w3.org/Graphics/SVG/1.1/DTD/svg11.dtd">
<svg version="1.1" id="globe-small" xmlns="http://www.w3.org/2000/svg" xmlns:xlink="http://www.w3.org/1999/xlink" x="0px" y="0px"
	 width="33px" height="33px" viewBox="0 0 33 33" enable-background="new 0 0 33 33" xml:space="preserve">
<path d="M0,16.5C0,7.387,7.387,0,16.5,0S33,7.387,33,16.5S25.613,33,16.5,33S0,25.613,0,16.5z M23.773,8.037h4.503
	c-1.896-2.633-4.653-4.605-7.86-5.502C21.822,3.746,22.975,5.633,23.773,8.037z M17,8.037h5.725C21.433,4.389,19.301,2.293,17,2.029
	V8.037z M10.275,8.037H16V2.029C13.699,2.293,11.567,4.389,10.275,8.037z M4.724,8.037h4.503c0.798-2.404,1.951-4.291,3.356-5.502
	C9.377,3.432,6.619,5.404,4.724,8.037z M8.924,9.037H4.064c-1.236,2.057-1.977,4.445-2.057,7h5.995
	C8.037,13.438,8.361,11.078,8.924,9.037z M16,9.037H9.953c-0.57,1.963-0.914,4.307-0.95,7H16V9.037z M23.047,9.037H17v7h6.997
	C23.961,13.344,23.617,11,23.047,9.037z M28.936,9.037h-4.859c0.562,2.041,0.887,4.4,0.921,7h5.995
	C30.913,13.482,30.172,11.094,28.936,9.037z M24.055,24.037h4.834c1.252-2.053,2.008-4.441,2.102-7h-5.994
	C24.955,19.641,24.625,22,24.055,24.037z M17,24.037h6.024c0.577-1.959,0.931-4.303,0.972-7H17V24.037z M9.976,24.037H16v-7H9.004
	C9.045,19.734,9.398,22.078,9.976,24.037z M4.111,24.037h4.834c-0.57-2.037-0.9-4.396-0.941-7H2.01
	C2.104,19.596,2.859,21.984,4.111,24.037z M9.252,25.037H4.779c1.894,2.596,4.629,4.539,7.804,5.428
	C11.192,29.266,10.049,27.406,9.252,25.037z M16,25.037h-5.697c1.295,3.602,3.413,5.67,5.697,5.934V25.037z M22.697,25.037H17v5.934
	C19.284,30.707,21.402,28.639,22.697,25.037z M28.221,25.037h-4.473c-0.797,2.369-1.94,4.229-3.332,5.428
	C23.592,29.576,26.327,27.633,28.221,25.037z"/>
</svg>
