<?xml version="1.0" encoding="utf-8"?>
<!DOCTYPE svg PUBLIC "-//W3C//DTD SVG 1.1//EN" "http://www.w3.org/Graphics/SVG/1.1/DTD/svg11.dtd">
<svg version="1.1" id="globe-large" xmlns="http://www.w3.org/2000/svg" xmlns:xlink="http://www.w3.org/1999/xlink" x="0px" y="0px"
	 width="51px" height="51px" viewBox="0 0 51 51" enable-background="new 0 0 51 51" xml:space="preserve">
<path d="M25.5,51C11.416,51,0,39.582,0,25.5C0,11.416,11.416,0,25.5,0S51,11.416,51,25.5C51,39.582,39.584,51,25.5,51z M37.188,17
	H26v8h11.998C37.968,22.109,37.683,19.43,37.188,17z M47.416,17h-9.217c0.491,2.469,0.77,5.154,0.799,8h9.996
	C48.936,22.184,48.382,19.488,47.416,17z M33.765,8H26v8h10.969C36.229,12.836,35.123,10.135,33.765,8z M41.186,8h-6.246
	c1.306,2.217,2.346,4.924,3.047,8H47C45.644,12.932,43.648,10.209,41.186,8z M34.311,7h5.683c-3.112-2.443-6.856-4.115-10.948-4.734
	C31.033,3.152,32.818,4.781,34.311,7z M26,7h7.08C31.076,4.283,28.615,2.697,26,2.518V7z M38.199,34h9.217
	c0.966-2.49,1.52-5.184,1.578-8h-9.996C38.969,28.844,38.69,31.531,38.199,34z M26,34h11.188c0.495-2.43,0.78-5.111,0.811-8H26V34z
	 M33.08,44H26v4.482C28.615,48.303,31.076,46.715,33.08,44z M39.993,44h-5.683c-1.492,2.217-3.277,3.846-5.265,4.734
	C33.137,48.115,36.881,46.441,39.993,44z M34.939,43h6.246c2.463-2.211,4.458-4.934,5.814-8h-9.014
	C37.285,38.074,36.245,40.781,34.939,43z M26,43h7.766c1.357-2.137,2.463-4.838,3.203-8H26V43z M21.954,48.734
	c-1.987-0.889-3.772-2.518-5.265-4.734h-5.683C14.119,46.441,17.863,48.115,21.954,48.734z M12.801,17H3.584
	c-0.966,2.488-1.52,5.184-1.578,8h9.996C12.031,22.154,12.31,19.469,12.801,17z M11.007,7h5.683
	c1.492-2.219,3.277-3.848,5.265-4.734C17.863,2.885,14.119,4.557,11.007,7z M16.061,8H9.814C7.352,10.209,5.356,12.932,4,16h9.014
	C13.715,12.924,14.755,10.217,16.061,8z M3.584,34h9.217c-0.491-2.469-0.77-5.156-0.799-8H2.006C2.064,28.816,2.618,31.51,3.584,34z
	 M13.014,35H4c1.356,3.066,3.352,5.789,5.814,8h6.246C14.755,40.781,13.715,38.074,13.014,35z M25,35H14.031
	c0.74,3.162,1.846,5.863,3.203,8H25v1h-7.08c2.004,2.715,4.465,4.303,7.08,4.482V2.518C22.385,2.697,19.924,4.283,17.92,7H25v1
	h-7.765c-1.358,2.135-2.464,4.836-3.204,8H25v1H13.812c-0.495,2.43-0.78,5.109-0.811,8H25v1H13.002c0.03,2.889,0.315,5.57,0.811,8
	H25V35z"/>
</svg>
