<?xml version="1.0" encoding="utf-8"?>
<!DOCTYPE svg PUBLIC "-//W3C//DTD SVG 1.1//EN" "http://www.w3.org/Graphics/SVG/1.1/DTD/svg11.dtd">
<svg version="1.1" id="global-traffic-manager-gtm" xmlns="http://www.w3.org/2000/svg" xmlns:xlink="http://www.w3.org/1999/xlink" x="0px" y="0px"
	 width="51px" height="51px" viewBox="0 0 51 51" enable-background="new 0 0 51 51" xml:space="preserve">
<path d="M25.5,0C11.416,0,0,11.416,0,25.5C0,39.582,11.416,51,25.5,51S51,39.582,51,25.5C51,11.416,39.584,0,25.5,0z M48.994,25
	h-8.52c-0.087-2.646-0.857-5.112-2.144-7.24c-0.045-0.252-0.083-0.512-0.132-0.76h9.217C48.382,19.488,48.936,22.184,48.994,25z
	 M47,16h-9.014c-0.701-3.076-1.741-5.783-3.047-8h6.246C43.648,10.209,45.644,12.932,47,16z M39.993,7h-5.683
	c-1.492-2.219-3.277-3.848-5.266-4.734C33.137,2.885,36.881,4.557,39.993,7z M26,2.518c2.615,0.18,5.076,1.766,7.08,4.482H26V2.518z
	 M26,8h7.765c1.325,2.082,2.403,4.711,3.143,7.774C34.258,12.67,30.366,10.67,26,10.525V8z M17.92,7
	c2.004-2.717,4.465-4.303,7.08-4.482V7H17.92z M25,8v2.525c-4.366,0.145-8.258,2.145-10.907,5.249
	c0.739-3.063,1.818-5.692,3.143-7.774H25z M21.954,2.266C19.967,3.152,18.182,4.781,16.689,7h-5.683
	C14.119,4.557,17.863,2.885,21.954,2.266z M9.814,8h6.246c-1.306,2.217-2.346,4.924-3.047,8H4C5.356,12.932,7.352,10.209,9.814,8z
	 M3.584,17h9.217c-0.049,0.248-0.087,0.508-0.132,0.76c-1.286,2.127-2.056,4.595-2.144,7.24h-8.52
	C2.064,22.184,2.618,19.488,3.584,17z M2.006,26h8.52c0.087,2.646,0.857,5.112,2.144,7.239c0.045,0.253,0.083,0.513,0.132,0.761
	H3.584C2.618,31.51,2.064,28.816,2.006,26z M4,35h9.014c0.701,3.074,1.741,5.781,3.047,8H9.814C7.352,40.789,5.356,38.066,4,35z
	 M11.007,44h5.683c1.492,2.217,3.277,3.846,5.265,4.734C17.863,48.115,14.119,46.441,11.007,44z M25,48.482
	c-2.615-0.18-5.076-1.768-7.08-4.482H25V48.482z M25,43h-7.766c-1.324-2.084-2.402-4.713-3.142-7.775
	c2.649,3.105,6.541,5.105,10.907,5.25V43z M11.5,25.5c0-7.732,6.268-14,14-14s14,6.268,14,14s-6.268,14-14,14S11.5,33.232,11.5,25.5
	z M36.908,35.225c-0.74,3.062-1.818,5.691-3.142,7.775H26v-2.525C30.366,40.33,34.258,38.33,36.908,35.225z M26,44h7.08
	c-2.004,2.715-4.465,4.303-7.08,4.482V44z M29.046,48.734c1.987-0.889,3.772-2.518,5.265-4.734h5.683
	C36.881,46.441,33.137,48.115,29.046,48.734z M41.186,43h-6.246c1.306-2.219,2.346-4.926,3.047-8H47
	C45.644,38.066,43.648,40.789,41.186,43z M47.416,34h-9.217c0.049-0.248,0.087-0.508,0.132-0.761
	c1.286-2.127,2.056-4.594,2.144-7.239h8.52C48.936,28.816,48.382,31.51,47.416,34z M28.964,25h6.329l-2.646-2.646l0.707-0.707
	l3.854,3.854l-3.854,3.854l-0.707-0.707L35.293,26h-6.329c-0.219,1.533-1.432,2.745-2.964,2.965v6.328l2.646-2.646l0.707,0.707
	L25.5,37.207l-3.854-3.854l0.707-0.707L25,35.293v-6.328c-1.533-0.22-2.745-1.432-2.965-2.965h-6.328l2.646,2.646l-0.707,0.707
	L13.793,25.5l3.854-3.854l0.707,0.707L15.707,25h6.328c0.22-1.533,1.432-2.746,2.965-2.965v-6.328l-2.646,2.646l-0.707-0.707
	l3.854-3.854l3.854,3.854l-0.707,0.707L26,15.707v6.328C27.533,22.254,28.745,23.467,28.964,25z M25.5,23
	c-1.381,0-2.5,1.119-2.5,2.5s1.119,2.5,2.5,2.5s2.5-1.119,2.5-2.5S26.881,23,25.5,23z"/>
</svg>
