<?xml version="1.0" encoding="utf-8"?>
<!DOCTYPE svg PUBLIC "-//W3C//DTD SVG 1.1//EN" "http://www.w3.org/Graphics/SVG/1.1/DTD/svg11.dtd">
<svg version="1.1" id="hybrid-cloud" xmlns="http://www.w3.org/2000/svg" xmlns:xlink="http://www.w3.org/1999/xlink" x="0px" y="0px"
	 width="50px" height="39px" viewBox="0 0 50 39" enable-background="new 0 0 50 39" xml:space="preserve">
<path d="M10.904,39C4.883,39,0,34.117,0,28.096c0-4.33,2.523-8.07,6.18-9.83c-0.879-1.715-1.375-3.66-1.375-5.719
	C4.805,5.617,10.422,0,17.35,0c5.533,0,10.23,3.582,11.898,8.553c1.254-0.627,2.666-0.979,4.162-0.979
	c5.152,0,9.328,4.176,9.328,9.328c0,0.973-0.15,1.91-0.426,2.791C46.707,20.645,50,24.557,50,29.236C50,34.629,45.629,39,40.236,39
	H10.904z M40.236,21.473c-0.398,0-0.789,0.029-1.17,0.088c1.045-1.268,1.672-2.891,1.672-4.658c0-4.047-3.281-7.328-7.328-7.328
	c-2.203,0-4.18,0.973-5.523,2.514C27.646,6.475,23.021,2,17.35,2C11.525,2,6.805,6.721,6.805,12.547
	c0,2.586,0.932,4.957,2.477,6.791C5.139,20.102,2,23.732,2,28.096C2,33.014,5.986,37,10.904,37h29.332
	C44.523,37,48,33.523,48,29.236C48,24.947,44.523,21.473,40.236,21.473z M24,29v4.957c1.049-0.176,1.912-0.895,2.291-1.857
	c0.135-0.34,0.266-0.584,0.49-0.676c0.225-0.094,0.488-0.014,0.824,0.131c1.098,0.477,2.42,0.268,3.318-0.631
	c0.896-0.896,1.107-2.221,0.631-3.316c-0.146-0.336-0.225-0.6-0.133-0.826c0.094-0.225,0.336-0.355,0.676-0.488
	c1.113-0.439,1.9-1.523,1.9-2.793c0-1.268-0.787-2.354-1.9-2.791c-0.34-0.135-0.582-0.266-0.676-0.49s-0.014-0.488,0.133-0.824
	c0.477-1.098,0.266-2.422-0.631-3.318c-0.898-0.896-2.223-1.107-3.318-0.631c-0.336,0.146-0.6,0.225-0.824,0.133
	c-0.225-0.094-0.355-0.336-0.49-0.676c-0.379-0.963-1.242-1.684-2.291-1.859V18h5v5h-5v1h5v1v3v1H24z M23,33.959V29h-5v-5h5v-1h-5
	v-1v-3v-1h5v-4.957c-1.049,0.176-1.914,0.895-2.293,1.859c-0.135,0.34-0.266,0.582-0.49,0.676c-0.225,0.092-0.488,0.014-0.824-0.133
	c-1.096-0.477-2.42-0.266-3.318,0.631c-0.896,0.896-1.105,2.221-0.629,3.318c0.145,0.336,0.225,0.6,0.131,0.824
	s-0.336,0.355-0.676,0.49C13.787,21.146,13,22.232,13,23.5c0,1.27,0.787,2.354,1.9,2.793c0.34,0.135,0.582,0.266,0.676,0.49
	s0.014,0.488-0.131,0.824c-0.477,1.096-0.268,2.42,0.629,3.316c0.898,0.898,2.223,1.107,3.318,0.631
	c0.336-0.145,0.6-0.225,0.824-0.131c0.227,0.094,0.355,0.336,0.49,0.676C21.088,33.062,21.951,33.783,23,33.959z M28,28v-3h-9v3H28z
	 M28,22v-3h-9v3H28z M27.217,14.523c1.461-0.629,3.221-0.348,4.414,0.846s1.475,2.953,0.844,4.414
	c1.479,0.586,2.523,2.029,2.523,3.717s-1.045,3.131-2.523,3.719c0.631,1.461,0.35,3.219-0.844,4.412s-2.953,1.477-4.414,0.846
	C26.629,33.955,25.188,35,23.5,35s-3.131-1.045-3.719-2.523c-1.461,0.631-3.221,0.348-4.412-0.846
	c-1.193-1.193-1.477-2.951-0.846-4.412C13.045,26.631,12,25.188,12,23.5s1.045-3.131,2.523-3.717
	c-0.631-1.461-0.348-3.221,0.846-4.414c1.191-1.193,2.951-1.475,4.412-0.846c0.588-1.477,2.031-2.521,3.719-2.521
	S26.629,13.047,27.217,14.523z M25,27v-1h2v1H25z M25,21v-1h2v1H25z"/>
</svg>
