<?xml version="1.0" encoding="utf-8"?>
<!DOCTYPE svg PUBLIC "-//W3C//DTD SVG 1.1//EN" "http://www.w3.org/Graphics/SVG/1.1/DTD/svg11.dtd">
<svg version="1.1" id="image-file-large" xmlns="http://www.w3.org/2000/svg" xmlns:xlink="http://www.w3.org/1999/xlink" x="0px" y="0px"
	 width="28px" height="36px" viewBox="0 0 28 36" enable-background="new 0 0 28 36" xml:space="preserve">
<path d="M2,34h24V14H14V2H2V34z M16,2.078V12h9.922L16,2.078z M16.75,0L28,11.25V36H0V0H16.75z M14.732,18H5l4.866-8.428L14.732,18z
	 M6.732,17H13l-3.134-5.43L6.732,17z M13,22H7v6h6V22z M6,21h8v8H6V21z M22,20c0-1.658-1.344-3-3-3s-3,1.342-3,3
	c0,1.656,1.344,3,3,3S22,21.656,22,20z M19,16c2.209,0,4,1.791,4,4s-1.791,4-4,4s-4-1.791-4-4S16.791,16,19,16z"/>
</svg>
