<?xml version="1.0" encoding="utf-8"?>
<!DOCTYPE svg PUBLIC "-//W3C//DTD SVG 1.1//EN" "http://www.w3.org/Graphics/SVG/1.1/DTD/svg11.dtd">
<svg version="1.1" id="image-file-small" xmlns="http://www.w3.org/2000/svg" xmlns:xlink="http://www.w3.org/1999/xlink" x="0px" y="0px"
	 width="20px" height="26px" viewBox="0 0 20 26" enable-background="new 0 0 20 26" xml:space="preserve">
<path d="M2,24h16V10h-8V2H2V24z M12,2.078V8h5.922L12,2.078z M12.75,0L20,7.25V26H0V0H12.75z M15,14c0,1.104-0.896,2-2,2
	s-2-0.896-2-2c0-1.105,0.896-2,2-2S15,12.895,15,14z M5,13l2.508-4.344L10.014,13H5z M10,15v4H6v-4H10z"/>
</svg>
