<?xml version="1.0" encoding="utf-8"?>
<!DOCTYPE svg PUBLIC "-//W3C//DTD SVG 1.1//EN" "http://www.w3.org/Graphics/SVG/1.1/DTD/svg11.dtd">
<svg version="1.1" id="key" xmlns="http://www.w3.org/2000/svg" xmlns:xlink="http://www.w3.org/1999/xlink" x="0px" y="0px"
	 width="28.855px" height="15px" viewBox="0 0 28.855 15" enable-background="new 0 0 28.855 15" xml:space="preserve">
<path d="M13.178,7h13.191l-1-2h-12.5l-1.5-3H4.986l-2.75,5.5l2.75,5.5h6.383l1.5-3h2.688l0.5-1h2.242l0.5,1h1.758l0.5-1h2.242l0.5,1
	h1.57l1-2H13.178V7z M17.178,11.229L16.793,12h-2.688l-1.5,3H3.75L0,7.5L3.75,0h8.855l1.5,3h12.5l2.25,4.5l-2.25,4.5h-4.043
	l-0.385-0.771L21.793,12h-4.23L17.178,11.229z M8.178,11H5.869l-1.75-3.5L5.869,4h2.309V11z M7.178,10V5H6.486l-1.25,2.5l1.25,2.5
	H7.178z"/>
</svg>
