<?xml version="1.0" encoding="utf-8"?>
<!DOCTYPE svg PUBLIC "-//W3C//DTD SVG 1.1//EN" "http://www.w3.org/Graphics/SVG/1.1/DTD/svg11.dtd">
<svg version="1.1" id="laptop-computer" xmlns="http://www.w3.org/2000/svg" xmlns:xlink="http://www.w3.org/1999/xlink" x="0px" y="0px"
	 width="47px" height="33px" viewBox="0 0 47 33" enable-background="new 0 0 47 33" xml:space="preserve">
<path d="M41,24V2H6v22H41z M5.535,25l-2.666,4h41.262l-2.666-4H5.535z M45,30H2v1h43V30z M43,23.697l4,6V33H0v-3.303l4-6V0h39
	V23.697z M38,27.5c0-0.277,0.223-0.5,0.5-0.5c0.275,0,0.5,0.223,0.5,0.5c0,0.275-0.225,0.5-0.5,0.5C38.223,28,38,27.775,38,27.5z
	 M40,27.5c0-0.277,0.223-0.5,0.5-0.5c0.275,0,0.5,0.223,0.5,0.5c0,0.275-0.225,0.5-0.5,0.5C40.223,28,40,27.775,40,27.5z M23,26.5
	c0-0.277,0.223-0.5,0.5-0.5c0.275,0,0.5,0.223,0.5,0.5c0,0.275-0.225,0.5-0.5,0.5C23.223,27,23,26.775,23,26.5z M21,26.5
	c0-0.277,0.223-0.5,0.5-0.5c0.275,0,0.5,0.223,0.5,0.5c0,0.275-0.225,0.5-0.5,0.5C21.223,27,21,26.775,21,26.5z M19,26.5
	c0-0.277,0.223-0.5,0.5-0.5c0.275,0,0.5,0.223,0.5,0.5c0,0.275-0.225,0.5-0.5,0.5C19.223,27,19,26.775,19,26.5z M17,26.5
	c0-0.277,0.223-0.5,0.5-0.5c0.275,0,0.5,0.223,0.5,0.5c0,0.275-0.225,0.5-0.5,0.5C17.223,27,17,26.775,17,26.5z M15,26.5
	c0-0.277,0.223-0.5,0.5-0.5c0.275,0,0.5,0.223,0.5,0.5c0,0.275-0.225,0.5-0.5,0.5C15.223,27,15,26.775,15,26.5z M13,26.5
	c0-0.277,0.223-0.5,0.5-0.5c0.275,0,0.5,0.223,0.5,0.5c0,0.275-0.225,0.5-0.5,0.5C13.223,27,13,26.775,13,26.5z M11,26.5
	c0-0.277,0.223-0.5,0.5-0.5c0.275,0,0.5,0.223,0.5,0.5c0,0.275-0.225,0.5-0.5,0.5C11.223,27,11,26.775,11,26.5z M9,26.5
	C9,26.223,9.224,26,9.5,26c0.275,0,0.5,0.223,0.5,0.5c0,0.275-0.225,0.5-0.5,0.5C9.224,27,9,26.775,9,26.5z M7,26.5
	C7,26.223,7.224,26,7.5,26C7.775,26,8,26.223,8,26.5C8,26.775,7.775,27,7.5,27C7.224,27,7,26.775,7,26.5z M25,26.5
	c0-0.277,0.223-0.5,0.5-0.5c0.275,0,0.5,0.223,0.5,0.5c0,0.275-0.225,0.5-0.5,0.5C25.223,27,25,26.775,25,26.5z M27,26.5
	c0-0.277,0.223-0.5,0.5-0.5c0.275,0,0.5,0.223,0.5,0.5c0,0.275-0.225,0.5-0.5,0.5C27.223,27,27,26.775,27,26.5z M29,26.5
	c0-0.277,0.223-0.5,0.5-0.5c0.275,0,0.5,0.223,0.5,0.5c0,0.275-0.225,0.5-0.5,0.5C29.223,27,29,26.775,29,26.5z M31,26.5
	c0-0.277,0.223-0.5,0.5-0.5c0.275,0,0.5,0.223,0.5,0.5c0,0.275-0.225,0.5-0.5,0.5C31.223,27,31,26.775,31,26.5z M33,26.5
	c0-0.277,0.223-0.5,0.5-0.5c0.275,0,0.5,0.223,0.5,0.5c0,0.275-0.225,0.5-0.5,0.5C33.223,27,33,26.775,33,26.5z M35,26.5
	c0-0.277,0.223-0.5,0.5-0.5c0.275,0,0.5,0.223,0.5,0.5c0,0.275-0.225,0.5-0.5,0.5C35.223,27,35,26.775,35,26.5z M37,26.5
	c0-0.277,0.223-0.5,0.5-0.5c0.275,0,0.5,0.223,0.5,0.5c0,0.275-0.225,0.5-0.5,0.5C37.223,27,37,26.775,37,26.5z M39,26.5
	c0-0.277,0.223-0.5,0.5-0.5c0.275,0,0.5,0.223,0.5,0.5c0,0.275-0.225,0.5-0.5,0.5C39.223,27,39,26.775,39,26.5z M24,27.5
	c0-0.277,0.223-0.5,0.5-0.5c0.275,0,0.5,0.223,0.5,0.5c0,0.275-0.225,0.5-0.5,0.5C24.223,28,24,27.775,24,27.5z M22,27.5
	c0-0.277,0.223-0.5,0.5-0.5c0.275,0,0.5,0.223,0.5,0.5c0,0.275-0.225,0.5-0.5,0.5C22.223,28,22,27.775,22,27.5z M20,27.5
	c0-0.277,0.223-0.5,0.5-0.5c0.275,0,0.5,0.223,0.5,0.5c0,0.275-0.225,0.5-0.5,0.5C20.223,28,20,27.775,20,27.5z M18,27.5
	c0-0.277,0.223-0.5,0.5-0.5c0.275,0,0.5,0.223,0.5,0.5c0,0.275-0.225,0.5-0.5,0.5C18.223,28,18,27.775,18,27.5z M16,27.5
	c0-0.277,0.223-0.5,0.5-0.5c0.275,0,0.5,0.223,0.5,0.5c0,0.275-0.225,0.5-0.5,0.5C16.223,28,16,27.775,16,27.5z M14,27.5
	c0-0.277,0.223-0.5,0.5-0.5c0.275,0,0.5,0.223,0.5,0.5c0,0.275-0.225,0.5-0.5,0.5C14.223,28,14,27.775,14,27.5z M12,27.5
	c0-0.277,0.223-0.5,0.5-0.5c0.275,0,0.5,0.223,0.5,0.5c0,0.275-0.225,0.5-0.5,0.5C12.223,28,12,27.775,12,27.5z M10,27.5
	c0-0.277,0.224-0.5,0.5-0.5c0.276,0,0.5,0.223,0.5,0.5c0,0.275-0.225,0.5-0.5,0.5C10.224,28,10,27.775,10,27.5z M8,27.5
	C8,27.223,8.224,27,8.5,27C8.775,27,9,27.223,9,27.5C9,27.775,8.775,28,8.5,28C8.224,28,8,27.775,8,27.5z M6,27.5
	C6,27.223,6.224,27,6.5,27C6.775,27,7,27.223,7,27.5C7,27.775,6.775,28,6.5,28C6.224,28,6,27.775,6,27.5z M26,27.5
	c0-0.277,0.223-0.5,0.5-0.5c0.275,0,0.5,0.223,0.5,0.5c0,0.275-0.225,0.5-0.5,0.5C26.223,28,26,27.775,26,27.5z M28,27.5
	c0-0.277,0.223-0.5,0.5-0.5c0.275,0,0.5,0.223,0.5,0.5c0,0.275-0.225,0.5-0.5,0.5C28.223,28,28,27.775,28,27.5z M30,27.5
	c0-0.277,0.223-0.5,0.5-0.5c0.275,0,0.5,0.223,0.5,0.5c0,0.275-0.225,0.5-0.5,0.5C30.223,28,30,27.775,30,27.5z M32,27.5
	c0-0.277,0.223-0.5,0.5-0.5c0.275,0,0.5,0.223,0.5,0.5c0,0.275-0.225,0.5-0.5,0.5C32.223,28,32,27.775,32,27.5z M34,27.5
	c0-0.277,0.223-0.5,0.5-0.5c0.275,0,0.5,0.223,0.5,0.5c0,0.275-0.225,0.5-0.5,0.5C34.223,28,34,27.775,34,27.5z M36,27.5
	c0-0.277,0.223-0.5,0.5-0.5c0.275,0,0.5,0.223,0.5,0.5c0,0.275-0.225,0.5-0.5,0.5C36.223,28,36,27.775,36,27.5z"/>
</svg>
