<?xml version="1.0" encoding="utf-8"?>
<!DOCTYPE svg PUBLIC "-//W3C//DTD SVG 1.1//EN" "http://www.w3.org/Graphics/SVG/1.1/DTD/svg11.dtd">
<svg version="1.1" id="lcation-marker-large" xmlns="http://www.w3.org/2000/svg" xmlns:xlink="http://www.w3.org/1999/xlink" x="0px" y="0px"
	 width="25px" height="35px" viewBox="0 0 25 35" enable-background="new 0 0 25 35" xml:space="preserve">
<path d="M23,12.5C23,6.701,18.299,2,12.501,2C6.701,2,2,6.701,2,12.5c0,2.178,0.664,4.195,1.797,5.875L12.501,31.4l8.705-13.025
	C22.338,16.699,23,14.678,23,12.5z M0,12.5C0,5.596,5.598,0,12.501,0C19.402,0,25,5.596,25,12.5c0,2.59-0.787,4.994-2.134,6.99
	L12.501,35L2.137,19.49C0.789,17.492,0,15.09,0,12.5z"/>
</svg>
