<?xml version="1.0" encoding="utf-8"?>
<!DOCTYPE svg PUBLIC "-//W3C//DTD SVG 1.1//EN" "http://www.w3.org/Graphics/SVG/1.1/DTD/svg11.dtd">
<svg version="1.1" id="payment-services-credit-card" xmlns="http://www.w3.org/2000/svg" xmlns:xlink="http://www.w3.org/1999/xlink" x="0px" y="0px"
	 width="39px" height="27px" viewBox="0 0 39 27" enable-background="new 0 0 39 27" xml:space="preserve">
<path d="M37,2H2v23h35V2z M39,0v27H0V0H39z M34,12v2h-1v-2H34z M5,6h29v2H5V6z M5,21h7v1H5V21z M14,21h2v1h-2V21z M18,21h6v1h-6V21z
	 M34,17v5h-7v-5H34z M22,17h2v1h-2V17z M18,17h2v1h-2V17z M6,12v2H5v-2H6z M8,12v2H7v-2H8z M10,12v2H9v-2H10z M12,12v2h-1v-2H12z
	 M14,12v2h-1v-2H14z M16,12v2h-1v-2H16z M18,12v2h-1v-2H18z M20,12v2h-1v-2H20z M22,12v2h-1v-2H22z M24,12v2h-1v-2H24z M26,12v2h-1
	v-2H26z M28,12v2h-1v-2H28z M30,12v2h-1v-2H30z M32,12v2h-1v-2H32z"/>
</svg>
