<?xml version="1.0" encoding="utf-8"?>
<!DOCTYPE svg PUBLIC "-//W3C//DTD SVG 1.1//EN" "http://www.w3.org/Graphics/SVG/1.1/DTD/svg11.dtd">
<svg version="1.1" id="process" xmlns="http://www.w3.org/2000/svg" xmlns:xlink="http://www.w3.org/1999/xlink" x="0px" y="0px"
	 width="32px" height="32px" viewBox="0 0 32 32" enable-background="new 0 0 32 32" xml:space="preserve">
<path d="M16,2C8.268,2,2,8.268,2,16s6.268,14,14,14s14-6.268,14-14S23.732,2,16,2z M32,16c0,8.836-7.163,16-16,16S0,24.836,0,16
	C0,7.162,7.163,0,16,0S32,7.162,32,16z M8.016,16.496C8.005,16.332,8,16.166,8,16c0-4.418,3.582-8,8-8
	c2.656,0,5.01,1.293,6.464,3.285l-0.717,0.717C20.482,10.188,18.38,9,16,9c-3.866,0-7,3.133-7,7c0,0.195,0.008,0.389,0.023,0.582
	l2.561-2.561l0.707,0.707l-3.729,3.729l-3.729-3.729l0.707-0.707L8.016,16.496z M16,23c3.866,0,7-3.135,7-7
	c0-0.197-0.008-0.391-0.023-0.582l-2.561,2.561l-0.707-0.707l3.729-3.729l3.729,3.729l-0.707,0.707l-2.475-2.475
	C23.995,15.668,24,15.834,24,16c0,4.418-3.582,8-8,8c-2.656,0-5.01-1.295-6.465-3.287l0.718-0.717C11.518,21.812,13.62,23,16,23z"/>
</svg>
