<?xml version="1.0" encoding="utf-8"?>
<!DOCTYPE svg PUBLIC "-//W3C//DTD SVG 1.1//EN" "http://www.w3.org/Graphics/SVG/1.1/DTD/svg11.dtd">
<svg version="1.1" id="search-large" xmlns="http://www.w3.org/2000/svg" xmlns:xlink="http://www.w3.org/1999/xlink" x="0px" y="0px"
	 width="25px" height="25px" viewBox="0 0 25 25" enable-background="new 0 0 25 25" xml:space="preserve">
<path d="M4.758,13.242c2.343,2.344,6.142,2.344,8.484,0c2.344-2.344,2.344-6.143,0-8.484c-2.343-2.344-6.142-2.344-8.484,0
	C2.414,7.1,2.414,10.898,4.758,13.242z M16.337,14.215L25,22.879L22.879,25l-8.664-8.664c-3.514,2.506-8.426,2.182-11.578-0.973
	c-3.516-3.514-3.516-9.213,0-12.729c3.514-3.514,9.213-3.514,12.727,0C18.518,5.789,18.842,10.699,16.337,14.215z"/>
</svg>
