<?xml version="1.0" encoding="utf-8"?>
<!DOCTYPE svg PUBLIC "-//W3C//DTD SVG 1.1//EN" "http://www.w3.org/Graphics/SVG/1.1/DTD/svg11.dtd">
<svg version="1.1" id="search-small" xmlns="http://www.w3.org/2000/svg" xmlns:xlink="http://www.w3.org/1999/xlink" x="0px" y="0px"
	 width="32px" height="32px" viewBox="0 0 32 32" enable-background="new 0 0 32 32" xml:space="preserve">
<path d="M16,2C8.268,2,2,8.268,2,16c0,7.73,6.268,14,14,14c7.731,0,14-6.27,14-14C30,8.268,23.731,2,16,2z M32,16
	c0,8.836-7.163,16-16,16S0,24.836,0,16C0,7.162,7.163,0,16,0S32,7.162,32,16z M8,14c0-3.314,2.687-6,6-6s6,2.686,6,6
	c0,1.295-0.411,2.494-1.109,3.477L24,22.586L22.585,24l-5.108-5.109C16.495,19.588,15.296,20,14,20C10.687,20,8,17.312,8,14z M14,10
	c-2.21,0-4,1.791-4,4s1.79,4,4,4c2.209,0,4-1.791,4-4S16.209,10,14,10z"/>
</svg>
