<?xml version="1.0" encoding="utf-8"?>
<!DOCTYPE svg PUBLIC "-//W3C//DTD SVG 1.1//EN" "http://www.w3.org/Graphics/SVG/1.1/DTD/svg11.dtd">
<svg version="1.1" id="server-instances" xmlns="http://www.w3.org/2000/svg" xmlns:xlink="http://www.w3.org/1999/xlink" x="0px" y="0px"
	 width="50px" height="38.135px" viewBox="0 0 50 38.135" enable-background="new 0 0 50 38.135" xml:space="preserve">
<path d="M36,10.744L24,9.672v3.592l12,1.18V10.744z M36,15.447L24,14.27v3.088l12,1.285V15.447z M36,19.648l-12-1.285v3.088
	l12,1.393V19.648z M36,23.852l-12-1.393v11.779l12,1.713V23.852z M27.57,7.982l9.305,0.832l8.492-2.965l-8.52-0.689L27.57,7.982z
	 M48,7.049l-10,3.49v25.02l10-4.5V7.049z M5.57,4.848l9.305,0.83l8.492-2.963l-8.52-0.691L5.57,4.848z M14,20.715L2,19.322v11.779
	l12,1.715V20.715z M14,16.514L2,15.229v3.088l12,1.393V16.514z M14,12.312l-12-1.18v3.09l12,1.285V12.312z M14,7.607L2,6.537v3.592
	l12,1.178V7.607z M26,6.371V3.914l-10,3.49v25.018l6-2.699V7.588L26,6.371z M28,1.084v4.678l8.629-2.627L50,4.219v28.133
	l-12.854,5.783L22,35.973v-4.057L15.146,35L0,32.836V4.453L14.629,0L28,1.084z M32,27.135c0-0.551,0.447-1,1-1s1,0.449,1,1
	c0,0.553-0.447,1-1,1S32,27.688,32,27.135z M32,31.135c0-0.551,0.447-1,1-1s1,0.449,1,1c0,0.553-0.447,1-1,1S32,31.688,32,31.135z
	 M10,28c0-0.553,0.447-1,1-1s1,0.447,1,1s-0.447,1-1,1S10,28.553,10,28z M10,24c0-0.553,0.447-1,1-1s1,0.447,1,1s-0.447,1-1,1
	S10,24.553,10,24z"/>
</svg>
