<?xml version="1.0" encoding="utf-8"?>
<!DOCTYPE svg PUBLIC "-//W3C//DTD SVG 1.1//EN" "http://www.w3.org/Graphics/SVG/1.1/DTD/svg11.dtd">
<svg version="1.1" id="shield-large" xmlns="http://www.w3.org/2000/svg" xmlns:xlink="http://www.w3.org/1999/xlink" x="0px" y="0px"
	 width="32px" height="40px" viewBox="0 0 32 40" enable-background="new 0 0 32 40" xml:space="preserve">
<path d="M19.63,4.557c-1.428-0.658-2.453-1.238-3.629-2.068c-1.307,0.922-2.426,1.539-4.117,2.293
	c-2.283,1.018-5.291,1.553-7.58,1.842c-0.857,0.109-1.646,0.186-2.301,0.24C2.019,9.559,2.265,14.83,3.79,20.404L19.63,4.557z
	 M4.101,21.502c0.367,1.104,0.748,2.256,1.199,3.389L24.159,6.029c-1.217-0.264-2.443-0.604-3.539-1.041L4.101,21.502z
	 M29.46,14.146L10.378,33.229c1.564,1.75,3.426,3.287,5.623,4.512C25.163,32.631,28.368,21.932,29.46,14.146z M7.271,28.922
	L29.39,6.805c-0.514-0.047-1.086-0.105-1.691-0.182c-0.729-0.092-1.531-0.211-2.359-0.361L5.72,25.883
	C6.175,26.92,6.698,27.928,7.271,28.922z M9.72,32.467l19.941-19.938c0.215-1.938,0.299-3.629,0.328-4.918L7.8,29.803
	C8.38,30.725,9.021,31.615,9.72,32.467z M16.001,0c1.797,1.379,2.885,2.043,4.932,2.955c3.998,1.781,11.033,2.031,11.033,2.031
	S33.499,31.297,16.001,40C-1.497,31.297,0.034,4.986,0.034,4.986s7.037-0.25,11.035-2.031C13.116,2.043,14.204,1.379,16.001,0z"/>
</svg>
