<?xml version="1.0" encoding="utf-8"?>
<svg version="1.1" id="ssl-certificate" xmlns="http://www.w3.org/2000/svg" xmlns:xlink="http://www.w3.org/1999/xlink" x="0px" y="0px"
	 width="39px" height="27px" viewBox="0 0 39 27" enable-background="new 0 0 39 27" xml:space="preserve">
<path d="M37,2H2v23h35V2z M39,0v27H0V0H39z M5,5V4H4v1H5z M5,23v-1H4v1H5z M35,22h-1v1h1V22z M35,6h-1V5h-1V4h-1v1h-1V4h-1v1h-1V4
	h-1v1h-1V4h-1v1h-1V4h-1v1h-1V4h-1v1h-1V4h-1v1h-1V4h-1v1h-1V4h-1v1h-1V4h-1v1h-1V4h-1v1h-1V4h-1v1H9V4H8v1H7V4H6v1H5v1H4v1h1v1H4v1
	h1v1H4v1h1v1H4v1h1v1H4v1h1v1H4v1h1v1H4v1h1v1H4v1h1v1h1v1h1v-1h1v1h1v-1h1v1h1v-1h1v1h1v-1h1v1h1v-1h1v1h1v-1h1v1h1v-1h1v1h1v-1h1
	v1h1v-1h1v1h1v-1h1v1h1v-1h1v1h1v-1h1v1h1v-1h1v1h1v-1h1v-1h1v-1h-1v-1h1v-1h-1v-1h1v-1h-1v-1h1v-1h-1v-1h1v-1h-1v-1h1v-1h-1V9h1V8
	h-1V7h1V6z M35,5v1h1v1h-1v1h1v1h-1v1h1v1h-1v1h1v1h-1v1h1v1h-1v1h1v1h-1v1h1v1h-1v1h1v1h-1v1h1v1h-1v1h-1v-1h-1v1h-1v-1h-1v1h-1v-1
	h-1v1h-1v-1h-1v1h-1v-1h-1v1h-1v-1h-1v1h-1v-1h-1v1h-1v-1h-1v1h-1v-1h-1v1h-1v-1h-1v1h-1v-1h-1v1h-1v-1h-1v1h-1v-1H9v1H8v-1H7v1H6
	v-1H5v1H4v-1H3v-1h1v-1H3v-1h1v-1H3v-1h1v-1H3v-1h1v-1H3v-1h1v-1H3v-1h1v-1H3v-1h1V9H3V8h1V7H3V6h1V5H3V4h1V3h1v1h1V3h1v1h1V3h1v1h1
	V3h1v1h1V3h1v1h1V3h1v1h1V3h1v1h1V3h1v1h1V3h1v1h1V3h1v1h1V3h1v1h1V3h1v1h1V3h1v1h1V3h1v1h1V3h1v1h1V3h1v1h1v1H35z M34,5h1V4h-1V5z
	 M7,7h7v1H7V7z M21,13v-2.5C21,9.672,20.328,9,19.5,9S18,9.672,18,10.5V13H21z M16,10.5C16,8.566,17.566,7,19.5,7S23,8.566,23,10.5
	V13h2v7H14v-7h2V10.5z M7,19h5v1H7V19z M7,17h5v1H7V17z M27,19h5v1h-5V19z M27,17h5v1h-5V17z M25,9h7v1h-7V9z M25,7h7v1h-7V7z M7,9
	h7v1H7V9z"/>
</svg>
