<?xml version="1.0" encoding="utf-8"?>
<!DOCTYPE svg PUBLIC "-//W3C//DTD SVG 1.1//EN" "http://www.w3.org/Graphics/SVG/1.1/DTD/svg11.dtd">
<svg version="1.1" id="support-large" xmlns="http://www.w3.org/2000/svg" xmlns:xlink="http://www.w3.org/1999/xlink" x="0px" y="0px"
	 width="44px" height="44.001px" viewBox="0 0 44 44.001" enable-background="new 0 0 44 44.001" xml:space="preserve">
<path d="M43.119,28.188C43.703,26.185,44,24.103,44,21.999c0-2.105-0.297-4.186-0.881-6.188l-0.139-0.469l-0.43,0.115
	c0.047-0.76,0.133-1.533,0.223-2.273c0.418-3.451,0.848-7.021-2.072-9.898c-1.617-1.596-3.611-2.338-6.279-2.338
	c-1.211,0-2.441,0.145-3.635,0.285c-0.83,0.098-1.555,0.174-2.246,0.215l0.115-0.432L28.188,0.88c-4-1.172-8.375-1.174-12.375,0
	l-0.469,0.137l0.115,0.43c-0.76-0.047-1.531-0.133-2.268-0.223c-1.203-0.145-2.445-0.297-3.666-0.297
	c-2.662,0-4.645,0.752-6.236,2.367C0.412,6.21,0.83,9.767,1.236,13.21c0.098,0.834,0.174,1.561,0.217,2.248L1.02,15.343
	l-0.137,0.469C0.297,17.813,0,19.896,0,21.999c0,2.102,0.297,4.186,0.883,6.189l0.139,0.469l0.428-0.115
	c-0.047,0.758-0.133,1.529-0.223,2.266c-0.418,3.453-0.848,7.023,2.07,9.904c1.619,1.596,3.615,2.338,6.279,2.338
	c1.221,0,2.449-0.145,3.637-0.285c0.83-0.098,1.557-0.174,2.246-0.215l-0.115,0.432l0.469,0.137c2,0.586,4.082,0.883,6.188,0.883
	s4.188-0.297,6.188-0.883l0.469-0.137l-0.115-0.432c0.76,0.049,1.537,0.135,2.295,0.229c1.195,0.143,2.43,0.291,3.643,0.291
	c2.66,0,4.641-0.752,6.232-2.365c2.877-2.918,2.459-6.477,2.053-9.918c-0.098-0.83-0.174-1.557-0.215-2.244l0.432,0.115
	L43.119,28.188z M31,21.999c0,4.963-4.037,9-9,9s-9-4.037-9-9s4.037-9.002,9-9.002S31,17.036,31,21.999z M11.674,18.196L4.895,16.38
	c1.787-5.459,6.029-9.701,11.486-11.488l1.816,6.781C15.18,12.784,12.787,15.179,11.674,18.196z M39.107,16.38l-6.781,1.816
	c-1.113-3.018-3.504-5.412-6.523-6.523l1.816-6.781C33.076,6.679,37.318,10.921,39.107,16.38z M11.158,20.128
	C11.053,20.743,11,21.37,11,21.999c0,0.627,0.053,1.254,0.158,1.869l-8.715,2.336C2.148,24.827,2,23.415,2,21.999
	s0.148-2.828,0.443-4.205L11.158,20.128z M4.895,27.618l6.779-1.816c1.113,3.02,3.506,5.412,6.525,6.523l-1.818,6.781
	C10.924,37.319,6.682,33.077,4.895,27.618z M32.326,25.802l6.781,1.816c-1.789,5.459-6.031,9.701-11.488,11.488l-1.816-6.781
	C28.822,31.214,31.213,28.821,32.326,25.802z M32.842,23.868C32.947,23.253,33,22.626,33,21.999s-0.053-1.254-0.158-1.871
	l8.715-2.334C41.852,19.169,42,20.579,42,21.999c0,1.418-0.148,2.83-0.443,4.205L32.842,23.868z M40.787,12.95
	c-0.07,0.584-0.135,1.141-0.186,1.682c-2.031-5.152-6.08-9.201-11.23-11.234c0.531-0.047,1.078-0.109,1.652-0.178
	c1.191-0.141,2.318-0.273,3.404-0.273c2.131,0,3.633,0.543,4.869,1.764C41.52,6.901,41.18,9.704,40.787,12.95z M23.869,11.155
	c-0.613-0.104-1.24-0.158-1.869-0.158s-1.256,0.055-1.869,0.158L17.795,2.44c2.75-0.588,5.662-0.588,8.41,0L23.869,11.155z
	 M12.953,3.21c0.584,0.07,1.141,0.137,1.682,0.186C9.482,5.427,5.432,9.476,3.4,14.63c-0.049-0.545-0.113-1.096-0.18-1.656
	C2.84,9.733,2.512,6.933,4.713,4.7c1.209-1.227,2.693-1.773,4.811-1.773C10.615,2.927,11.752,3.063,12.953,3.21z M3.213,31.046
	c0.064-0.533,0.133-1.102,0.186-1.682c2.029,5.152,6.078,9.203,11.23,11.236c-0.57,0.051-1.127,0.117-1.65,0.178
	c-1.191,0.141-2.316,0.273-3.402,0.273c-2.135,0-3.639-0.543-4.875-1.762C2.479,37.097,2.818,34.292,3.213,31.046z M20.131,32.841
	c1.232,0.211,2.51,0.211,3.738,0l2.336,8.717c-2.746,0.59-5.66,0.59-8.41,0L20.131,32.841z M40.6,29.37
	c0.051,0.57,0.117,1.127,0.178,1.65c0.383,3.244,0.713,6.043-1.488,8.277c-1.209,1.227-2.693,1.771-4.811,1.771
	c-1.09,0-2.223-0.135-3.432-0.281c-0.584-0.07-1.139-0.137-1.68-0.186C34.518,38.571,38.568,34.522,40.6,29.37z"/>
</svg>
