<?xml version="1.0" encoding="utf-8"?>
<!DOCTYPE svg PUBLIC "-//W3C//DTD SVG 1.1//EN" "http://www.w3.org/Graphics/SVG/1.1/DTD/svg11.dtd">
<svg version="1.1" id="virtual-private-network-vpn" xmlns="http://www.w3.org/2000/svg" xmlns:xlink="http://www.w3.org/1999/xlink" x="0px" y="0px"
	 width="47px" height="22px" viewBox="0 0 47 22" enable-background="new 0 0 47 22" xml:space="preserve">
<path d="M14.5,11c0,4.971,4.029,9,9,9s9-4.029,9-9s-4.029-9-9-9S14.5,6.029,14.5,11z M10.209,16.131l2.855-1.641
	C12.697,13.393,12.5,12.219,12.5,11c0-6.076,4.924-11,11-11c3.781,0,7.117,1.908,9.098,4.814l6.09-3.5l-0.195,3.576L47,0
	L36.596,9.443l0.195-3.576L33.934,7.51C34.301,8.605,34.5,9.779,34.5,11c0,6.074-4.926,11-11,11c-3.783,0-7.119-1.908-9.098-4.816
	l-6.09,3.502l0.195-3.576L0,22l10.404-9.445L10.209,16.131z M25.5,10V8c0-1.105-0.896-2-2-2c-1.105,0-2,0.896-2,2v2H25.5z M23.5,5
	c1.656,0,3,1.342,3,3v2h1v6h-8v-6h1V8C20.5,6.344,21.844,5,23.5,5z"/>
</svg>
