<?xml version="1.0" encoding="utf-8"?>
<!DOCTYPE svg PUBLIC "-//W3C//DTD SVG 1.1//EN" "http://www.w3.org/Graphics/SVG/1.1/DTD/svg11.dtd">
<svg version="1.1" id="website" xmlns="http://www.w3.org/2000/svg" xmlns:xlink="http://www.w3.org/1999/xlink" x="0px" y="0px"
	 width="67px" height="51px" viewBox="0 0 67 51" enable-background="new 0 0 67 51" xml:space="preserve">
<path d="M2,3c0,0.553,0.447,1,1,1s1-0.447,1-1S3.553,2,3,2S2,2.447,2,3z M6,3c0,0.553,0.447,1,1,1s1-0.447,1-1S7.553,2,7,2
	S6,2.447,6,3z M10,3c0,0.553,0.447,1,1,1s1-0.447,1-1s-0.447-1-1-1S10,2.447,10,3z M67,0v51H0V0H67z M65,20H2v29h63V20z M2,19h63V6
	H2V19z M22.32,15.824c-0.199,0-0.37-0.17-0.37-0.379V9.555c0-0.209,0.171-0.381,0.37-0.381h4.133c0.19,0,0.342,0.152,0.342,0.344
	c0,0.189-0.151,0.342-0.342,0.342h-3.752v2.27h3.324c0.19,0,0.342,0.162,0.342,0.342c0,0.191-0.151,0.342-0.342,0.342h-3.324v2.328
	h3.8c0.19,0,0.342,0.152,0.342,0.342s-0.151,0.342-0.342,0.342H22.32z M8.66,15.92c-0.969,0-1.777-0.305-2.518-0.893
	C6.057,14.969,6,14.865,6,14.742c0-0.209,0.162-0.371,0.361-0.371c0.095,0,0.18,0.037,0.228,0.086
	c0.627,0.531,1.254,0.787,2.1,0.787c0.894,0,1.481-0.475,1.481-1.129c0-0.637-0.332-0.988-1.729-1.283
	c-1.529-0.332-2.232-0.826-2.232-1.918c0-1.064,0.922-1.834,2.186-1.834c0.873,0,1.51,0.219,2.117,0.654
	c0.076,0.059,0.162,0.162,0.162,0.305c0,0.199-0.162,0.361-0.361,0.361c-0.085,0-0.152-0.02-0.218-0.066
	c-0.562-0.408-1.103-0.58-1.72-0.58c-0.865,0-1.416,0.475-1.416,1.074c0,0.646,0.342,0.996,1.806,1.311
	c1.481,0.322,2.166,0.865,2.166,1.881C10.931,15.178,9.98,15.92,8.66,15.92z M12.717,15.492V9.508c0-0.209,0.17-0.381,0.37-0.381
	c0.209,0,0.38,0.172,0.38,0.381v5.984c0,0.209-0.171,0.381-0.38,0.381C12.887,15.873,12.717,15.701,12.717,15.492z M17.361,15.492
	V9.867h-1.928c-0.19,0-0.352-0.15-0.352-0.342c0-0.189,0.161-0.352,0.352-0.352h4.617c0.189,0,0.352,0.162,0.352,0.352
	c0,0.191-0.162,0.342-0.352,0.342h-1.93v5.625c0,0.209-0.17,0.381-0.379,0.381S17.361,15.701,17.361,15.492z M44,41h13v1H44V41z
	 M7,40h8v1H7V40z M7,43h6v1H7V43z M7,32h8v1H7V32z M7,35h6v1H7V35z M7,24h8v1H7V24z M7,27h6v1H7V27z M20,24v20h-1V24H20z M24,24h13
	v2H24V24z M39,24h4v2h-4V24z M45,24h8v2h-8V24z M24,29h16v1H24V29z M44,29h16v1H44V29z M24,32h16v1H24V32z M44,32h16v1H44V32z
	 M24,35h16v1H24V35z M44,35h16v1H44V35z M24,38h16v1H24V38z M44,38h16v1H44V38z M24,41h11v1H24V41z"/>
</svg>
