<?xml version="1.0" encoding="utf-8"?>
<!DOCTYPE svg PUBLIC "-//W3C//DTD SVG 1.1//EN" "http://www.w3.org/Graphics/SVG/1.1/DTD/svg11.dtd">
<svg version="1.1" id="worker-large" xmlns="http://www.w3.org/2000/svg" xmlns:xlink="http://www.w3.org/1999/xlink" x="0px" y="0px"
	 width="44.492px" height="42.352px" viewBox="0 0 44.492 42.352" enable-background="new 0 0 44.492 42.352" xml:space="preserve">
<path d="M14,18H6.148l-2.621-7.672l0.945-0.324L6.863,17H14V18z M41.145,42.352c-2.166-2.186-4.176-3.09-7.145-3.178V42h-1v-2.826
	c-2.967,0.088-4.979,0.992-7.145,3.178l-0.711-0.705c2.355-2.373,4.613-3.383,7.855-3.475V31h-8v-1h15.082l3.426-19.09l0.984,0.178
	l-3.5,19.5C40.957,30.789,40.705,31,40.5,31H34v7.172c3.242,0.092,5.5,1.102,7.855,3.475L41.145,42.352z M25,4c0-2.209,1.791-4,4-4
	s4,1.791,4,4s-1.791,4-4,4S25,6.209,25,4z M29.908,14.527L24.652,18L15,17v-2h8.898L29,9.986l5.334-2.654
	c3.059,2.922,4.41,5.322,5.32,9.453C40.656,21.338,38.334,29,38.334,29h-15.08l-0.6,13h-2.201l-1.799-16.814l13.012-1.854
	L29.908,14.527z M21,20H1v22H0V4.332h1V19h20V20z"/>
</svg>
